<svg xmlns="http://www.w3.org/2000/svg" viewBox="0 0 825.75 487.23"><defs><style>.cls-1{fill:#fcfcfc;}.cls-2{fill:#ddd;}.cls-3{fill:#ededed;}.cls-4{fill:#f2f2f2;}.cls-5{fill:#bfbfbf;}.cls-6{fill:#dbdbdb;}.cls-7{fill:#f3f3f3;}.cls-8{fill:#e5e5e5;}.cls-9{fill:#d0d0d0;}.cls-10{fill:silver;}.cls-11{fill:#b3b3b3;}.cls-12{fill:#c7c7c7;}.cls-13{fill:#d9d9d9;}.cls-14{fill:#efefef;}.cls-15{fill:#bdccd4;}.cls-16{fill:#e6e6e6;}.cls-17{fill:#991a5f;}.cls-18{fill:#d3e3ea;}.cls-19{fill:#f4f4f4;}.cls-20{fill:#dadada;}.cls-21{fill:#cbcbcb;}.cls-22{fill:#f0f0f0;}.cls-23{fill:#d5d5d5;}.cls-24{fill:#d1d1d1;}.cls-25{fill:#b2b2b2;}.cls-26{fill:#e3e3e3;}.cls-27{fill:#c9c9c9;}.cls-28{fill:#ccc;}.cls-29{fill:#adb8bd;}.cls-30{fill:#bdc8cd;}.cls-31{fill:#afafaf;}.cls-32{fill:#a2a2a2;}.cls-33{fill:#b6b6b6;}.cls-34{fill:#e1e1e1;}.cls-35{fill:#dedede;}.cls-36{fill:#ef8560;}.cls-37{fill:#933e24;}.cls-38{fill:#ffcdc2;}.cls-39{fill:#182728;}.cls-40{fill:#1b2d37;}.cls-41{fill:#121e21;}.cls-42{fill:#22393d;}.cls-43{fill:#cce0ff;}.cls-44{fill:#a7c3ea;}.cls-45{fill:#11b397;}.cls-46{fill:#e0a4ab;}.cls-47{fill:#414042;}.cls-48{fill:#688eba;}.cls-49{fill:#bbbebf;}.cls-50{fill:#dd6680;}.cls-51{fill:#bd98f9;}.cls-52{fill:#aa88ea;}.cls-53{fill:#dcf;}.cls-54{fill:#bc5b35;}.cls-55{fill:#8c46f2;}.cls-56{fill:#f7c3ba;}.cls-57{fill:#f4c0b8;}.cls-58{fill:#a00243;}.cls-59{fill:#f75291;}.cls-60{fill:#ef5ea0;}.cls-61{fill:#6c273d;}.cls-62{fill:#5e7782;}.cls-63{fill:#97979b;}.cls-64{fill:#00c6b3;}.cls-65{fill:#ff6a66;}.cls-66{fill:#cc3a2f;}.cls-67{fill:#cccdce;}.cls-68{fill:#6fce5b;}.cls-69{fill:#449935;}.cls-70{fill:#243bb2;}.cls-71{fill:#008e7d;}.cls-72{fill:#4358eb;}.cls-73{fill:#314ec9;}.cls-74{fill:#089e88;}</style></defs><g id="Layer_2" data-name="Layer 2"><g id="Layer_1-2" data-name="Layer 1"><path class="cls-1" d="M425.19,49.56c-4.18,18.09-20.52,19.35-39,22.16C371.65,73.94,368,85.36,367,90.05v15.73h23.75c-9.65-18-.19-20.3,13-26,18.84-8.2,21.2-18.4,21.44-21.82V49.56m0-.16H367v.16h58.15V49.4"/><path class="cls-2" d="M367,49.56V49.4h58.15v.16h0v8.38h0V56.76a7,7,0,0,1,0,1.17v47.85H367V90.05a18.12,18.12,0,0,0-.29,2V49.56H367m66.14-8.16H359v72.38h74.14V41.4"/><path class="cls-3" d="M425.19,49.56H366.75V92.07a18.12,18.12,0,0,1,.29-2c.91-4.69,4.61-16.11,19.19-18.33,18.44-2.81,34.78-4.07,39-22.16h0"/><path class="cls-4" d="M425.19,57.93h0c-.24,3.42-2.6,13.62-21.44,21.82-13.15,5.72-22.61,8-13,26h34.4V57.93m0-1.17v1.17a7,7,0,0,0,0-1.17"/><path class="cls-1" d="M511,170.89s-6.93-23.72,4.36-34.41c0,0-7,12.7-1.34,23.79s3.32,16,1.34,20.41,7.52,18.83,7.52,18.83H508.6s5.15-22.78-16.64-37a6.35,6.35,0,0,1,3-.58c3.08,0,8.53,1.46,16.07,9m-25.52-18.46V81.56s12.61-10.82,7.41-24.63c0,0,9.66,14.41,1.37,27.63,0,0,15.8-11.41,17-19.22,0,0,4.43,10.81-12.89,27.63,0,0-2.08,45.65-12.89,59.46M523,47.58H485.32V199.51H523V47.58"/><path class="cls-2" d="M485.32,199.51V47.58H523V199.51H485.32M529.54,41.08H478.81V206h50.73V41.08"/><path class="cls-3" d="M492.87,56.93c5.2,13.81-7.41,24.63-7.41,24.63v70.87C496.27,138.62,498.35,93,498.35,93c17.32-16.82,12.89-27.63,12.89-27.63-1.2,7.81-17,19.22-17,19.22,8.29-13.22-1.37-27.63-1.37-27.63"/><path class="cls-3" d="M515.34,136.48c-11.29,10.69-4.36,34.41-4.36,34.41-7.54-7.54-13-9-16.07-9a6.35,6.35,0,0,0-3,.58c21.79,14.26,16.64,37,16.64,37h14.26s-9.51-14.47-7.52-18.83,4.35-9.32-1.34-20.41,1.34-23.79,1.34-23.79"/><path class="cls-5" d="M640.31,121.85c-4.12,1.94-6,8.47-6.84,15.87a110.47,110.47,0,0,1,.26,12.83h2.32l4.26-28.71"/><path class="cls-6" d="M627.36,121.76l3.56,28.77h.17l2.64,0a110.47,110.47,0,0,0-.26-12.83c-.64-7.41-2.33-14-6.11-16"/><polyline class="cls-7" points="628.12 150.51 624.73 172.58 639.1 172.58 636.02 150.56 633.73 150.55 631.09 150.53 630.92 150.53 628.12 150.51"/><polyline class="cls-8" points="636.02 150.56 636.02 150.56 639.1 172.58 642.06 172.58 638.99 150.58 636.05 150.56 636.02 150.56"/><polyline class="cls-9" points="685.14 134.59 666.48 134.59 666.48 172.58 670.11 172.58 670.11 140.24 676.73 140.24 685.14 140.24 685.14 134.59"/><polyline class="cls-10" points="666.48 134.59 660.7 134.59 660.04 134.59 660.04 172.58 666.48 172.58 666.48 134.59"/><polyline class="cls-10" points="692 140.24 685.14 140.24 676.73 140.24 676.73 172.58 689.46 172.58 680.98 147.24 686.38 144.56 692 144.56 692 140.24"/><polyline class="cls-11" points="676.73 140.24 670.11 140.24 670.11 172.58 676.73 172.58 676.73 140.24"/><polyline class="cls-6" points="701.88 144.56 692 144.56 686.38 144.56 695.77 171.47 712.46 171.47 701.88 144.56"/><polyline class="cls-12" points="686.38 144.56 680.98 147.24 689.46 172.58 693.43 172.58 695.77 171.47 686.38 144.56"/><polyline class="cls-4" points="712.46 171.47 712.46 171.47 695.77 171.47 693.43 172.58 710.43 172.58 712.46 171.47"/><polyline class="cls-12" points="623.4 178.91 617.07 178.91 617.07 200.22 623.4 200.22 623.4 178.91"/><polyline class="cls-12" points="707.38 178.91 701.05 178.91 701.05 200.22 707.38 200.22 707.38 178.91"/><polyline class="cls-13" points="710.54 172.58 710.43 172.58 693.43 172.58 689.46 172.58 676.73 172.58 670.11 172.58 666.48 172.58 660.04 172.58 642.06 172.58 639.1 172.58 624.73 172.58 589 172.58 589 178.91 617.07 178.91 623.4 178.91 701.05 178.91 707.38 178.91 710.54 178.91 710.54 172.58"/><polyline class="cls-12" points="738.18 172.58 710.54 172.58 710.54 178.91 738.18 178.91 738.18 172.58"/><rect class="cls-14" x="64.52" width="66.28" height="114.46"/><rect class="cls-14" x="139.32" width="66.28" height="114.46"/><rect class="cls-14" x="64.52" y="124.76" width="66.28" height="114.46"/><rect class="cls-14" x="139.32" y="124.76" width="66.28" height="114.46"/><rect class="cls-14" x="215.07" width="66.28" height="114.46"/><rect class="cls-14" x="215.07" y="124.76" width="66.28" height="114.46"/><polyline class="cls-15" points="623.62 354.96 557.59 354.96 557.59 352.96 623.62 352.96 623.62 354.96"/><rect class="cls-16" x="557.59" y="351.07" width="66.02" height="2"/><rect class="cls-15" x="557.59" y="349.18" width="66.02" height="2"/><rect class="cls-16" x="557.59" y="347.29" width="66.02" height="2"/><rect class="cls-15" x="557.59" y="345.4" width="66.02" height="2"/><rect class="cls-16" x="557.59" y="343.51" width="66.02" height="2"/><rect class="cls-15" x="557.59" y="341.62" width="66.02" height="2"/><rect class="cls-16" x="557.59" y="339.73" width="66.02" height="2"/><rect class="cls-15" x="557.59" y="337.84" width="66.02" height="2"/><rect class="cls-16" x="557.59" y="335.95" width="66.02" height="2"/><rect class="cls-15" x="557.59" y="334.06" width="66.02" height="2"/><rect class="cls-16" x="557.59" y="332.17" width="66.02" height="2"/><rect class="cls-15" x="557.59" y="330.28" width="66.02" height="2"/><rect class="cls-16" x="557.59" y="328.39" width="66.02" height="2"/><rect class="cls-15" x="557.59" y="326.5" width="66.02" height="2"/><rect class="cls-16" x="557.59" y="324.61" width="66.02" height="2"/><rect class="cls-15" x="557.59" y="322.72" width="66.02" height="2"/><rect class="cls-16" x="557.59" y="320.83" width="66.02" height="2"/><rect class="cls-15" x="557.59" y="318.94" width="66.02" height="2"/><rect class="cls-16" x="557.59" y="317.05" width="66.02" height="2"/><rect class="cls-15" x="557.59" y="315.16" width="66.02" height="2"/><rect class="cls-16" x="557.59" y="313.27" width="66.02" height="2"/><polyline class="cls-15" points="623.62 354.96 557.59 354.96 557.59 352.96 623.62 352.96 623.62 354.96"/><rect class="cls-16" x="557.59" y="351.07" width="66.02" height="2"/><rect class="cls-15" x="557.59" y="349.18" width="66.02" height="2"/><rect class="cls-16" x="557.59" y="347.29" width="66.02" height="2"/><rect class="cls-16" x="557.59" y="343.51" width="66.02" height="2"/><rect class="cls-15" x="557.59" y="341.62" width="66.02" height="2"/><rect class="cls-16" x="557.59" y="339.73" width="66.02" height="2"/><rect class="cls-15" x="557.59" y="337.84" width="66.02" height="2"/><rect class="cls-16" x="557.59" y="335.95" width="66.02" height="2"/><rect class="cls-15" x="557.59" y="334.06" width="66.02" height="2"/><rect class="cls-16" x="557.59" y="332.17" width="66.02" height="2"/><rect class="cls-15" x="557.59" y="330.28" width="66.02" height="2"/><rect class="cls-16" x="557.59" y="328.39" width="66.02" height="2"/><rect class="cls-15" x="557.59" y="326.5" width="66.02" height="2"/><rect class="cls-16" x="557.59" y="324.61" width="66.02" height="2"/><rect class="cls-15" x="557.59" y="322.72" width="66.02" height="2"/><rect class="cls-16" x="557.59" y="320.83" width="66.02" height="2"/><rect class="cls-15" x="557.59" y="318.94" width="66.02" height="2"/><rect class="cls-16" x="557.59" y="317.05" width="66.02" height="2"/><rect class="cls-15" x="557.59" y="315.16" width="66.02" height="2"/><rect class="cls-16" x="557.59" y="313.27" width="66.02" height="2"/><polyline class="cls-17" points="623.61 353.96 649.97 353.96 623.61 353.96"/><polyline class="cls-18" points="649.97 354.96 623.62 354.96 623.62 352.96 649.97 352.96 649.97 354.96"/><line class="cls-17" x1="623.61" y1="352.07" x2="649.97" y2="352.07"/><rect class="cls-19" x="623.61" y="351.07" width="26.35" height="2"/><line class="cls-17" x1="623.61" y1="350.18" x2="649.97" y2="350.18"/><rect class="cls-18" x="623.61" y="349.18" width="26.35" height="2"/><line class="cls-17" x1="623.61" y1="348.29" x2="649.97" y2="348.29"/><rect class="cls-19" x="623.61" y="347.29" width="26.35" height="2"/><line class="cls-17" x1="623.61" y1="346.4" x2="649.97" y2="346.4"/><rect class="cls-18" x="623.61" y="345.4" width="26.35" height="2"/><line class="cls-17" x1="623.61" y1="344.51" x2="649.97" y2="344.51"/><rect class="cls-19" x="623.61" y="343.51" width="26.35" height="2"/><line class="cls-17" x1="623.61" y1="342.62" x2="649.97" y2="342.62"/><rect class="cls-18" x="623.61" y="341.62" width="26.35" height="2"/><line class="cls-17" x1="623.61" y1="340.73" x2="649.97" y2="340.73"/><rect class="cls-19" x="623.61" y="339.73" width="26.35" height="2"/><line class="cls-17" x1="623.61" y1="338.84" x2="649.97" y2="338.84"/><rect class="cls-18" x="623.61" y="337.84" width="26.35" height="2"/><line class="cls-17" x1="623.61" y1="336.95" x2="649.97" y2="336.95"/><rect class="cls-19" x="623.61" y="335.95" width="26.35" height="2"/><line class="cls-17" x1="623.61" y1="335.06" x2="649.97" y2="335.06"/><rect class="cls-18" x="623.61" y="334.06" width="26.35" height="2"/><line class="cls-17" x1="623.61" y1="333.17" x2="649.97" y2="333.17"/><rect class="cls-19" x="623.61" y="332.17" width="26.35" height="2"/><line class="cls-17" x1="623.61" y1="331.28" x2="649.97" y2="331.28"/><rect class="cls-18" x="623.61" y="330.28" width="26.35" height="2"/><line class="cls-17" x1="623.61" y1="329.39" x2="649.97" y2="329.39"/><rect class="cls-19" x="623.61" y="328.39" width="26.35" height="2"/><line class="cls-17" x1="623.61" y1="327.5" x2="649.97" y2="327.5"/><rect class="cls-18" x="623.61" y="326.5" width="26.35" height="2"/><line class="cls-17" x1="623.61" y1="325.61" x2="649.97" y2="325.61"/><rect class="cls-19" x="623.61" y="324.61" width="26.35" height="2"/><line class="cls-17" x1="623.61" y1="323.72" x2="649.97" y2="323.72"/><rect class="cls-18" x="623.61" y="322.72" width="26.35" height="2"/><line class="cls-17" x1="623.61" y1="321.83" x2="649.97" y2="321.83"/><rect class="cls-19" x="623.61" y="320.83" width="26.35" height="2"/><line class="cls-17" x1="623.61" y1="319.94" x2="649.97" y2="319.94"/><rect class="cls-18" x="623.61" y="318.94" width="26.35" height="2"/><line class="cls-17" x1="623.61" y1="318.05" x2="649.97" y2="318.05"/><rect class="cls-19" x="623.61" y="317.05" width="26.35" height="2"/><line class="cls-17" x1="623.61" y1="316.16" x2="649.97" y2="316.16"/><rect class="cls-18" x="623.61" y="315.16" width="26.35" height="2"/><line class="cls-17" x1="623.61" y1="314.27" x2="649.97" y2="314.27"/><rect class="cls-19" x="623.61" y="313.27" width="26.35" height="2"/><path class="cls-20" d="M525.75,432.22l-1.62,2c.44.33.89.63,1.35.93l1.59-2.09c-.45-.27-.89-.57-1.32-.88"/><path class="cls-20" d="M532.26,441.32v2.73h1.12v-.24h5.24v.24h1v-2c-.44,0-.88,0-1.33,0h0a26,26,0,0,1-6.08-.73"/><path class="cls-20" d="M537.15,445.37h-3.77v2.3a10.1,10.1,0,0,1,2.54-.47l-.32,0h.21l.66,0h.68v-1.83m1.47-1.56h-5.24v.24h5.24v-.24"/><path class="cls-21" d="M538.62,445.37h-1.47v1.83l.34,0c.38,0,.76.1,1.13.17v-2"/><path class="cls-22" d="M563.69,419.54h0m0-.08v0m0-.08v0m0-.08v0m0-.08v0m0-.08v0m0-.08v0m0-.08v0m0-.08v0m0-.08v0m0-.08v0m0-.08v0m0-.08v0m0-.08v0m0-.08v0m0-.08v0m0-.08v0m0-.08v0m0-.08v0m0-.08v0m0-.08v0m0-.08v0m0-.08v0m0-.08v0m0-.08v0m0-.09v0m0-.08v0m0-.09v0m0-.08v0m0-.08v0m0-.07v0m0-.09v0m0-.08v0m0-.08v0m0-.08v0m0-.09v0m0-.07v0m0-.12v0h0m0-.12v0m0-.12v0m0-.12v0m0-.12v0m0-.12v0m0-.12v0m0-.12v0m0-.12v0m0-.11v0m0-.12v0m0-.12v0m0-.11v0m0-.12v0m0-.11v0m0-.11v0m0-.1h0m-.07-.79h0m0-.22h0m0-.12h0m-15.09-20.39.07,0-.07,0m-.12-.05.11,0-.11,0m0,0-1.6,2.93a22.36,22.36,0,0,1-8.56,42.61l-.89,0a22.29,22.29,0,0,1-12-3.46c-.46-.3-.91-.6-1.35-.93l-.61-.47c-.36-.28-.71-.58-1-.89L520.72,435a25.58,25.58,0,0,0,11.54,6.33,26,26,0,0,0,6.08.73h0l-.9,0a25.53,25.53,0,0,0,10.68-48.27l.37-.67"/><path class="cls-10" d="M541.12,426.33c.27,0,.46-.08.5-.25a22.81,22.81,0,0,1,2.62-3.29s.82,8-2.1,9.73a5.1,5.1,0,0,1-2.47.83,2.08,2.08,0,0,1-2.07-2.11c-.21-1.79-5.26-2.32-5.26-2.32-.15-3.39,1.75-3.94,3-3.94a4.14,4.14,0,0,1,1,.13s1-1.33,1.72-1.33c.27,0,.51.18.67.65a2.76,2.76,0,0,0,2.35,1.9m6.51-1.2s.87-3.61-1.82-4.59-1.8-2.91-1.8-2.91a12.31,12.31,0,0,0,2.92,1c1.2.15,2.69.07,3.07,2.24s1.77,4.29,1,4.29a.44.44,0,0,1-.15,0,8.56,8.56,0,0,0-2.13-.64,1.28,1.28,0,0,0-1.14.66m2.85-24.7h0a11.89,11.89,0,0,1-3.41,2.07s.82,2.15-1.37,2.15a5.42,5.42,0,0,1-.65-.05,4.74,4.74,0,0,0-.82-.08c-1.62,0,.5,1.55,2.09,4.86,1.8,3.75-3.59,5-3.59,5s-.45-2.92-1.35-2.92-.45,5.61-.45,5.61a10.28,10.28,0,0,1-1.94-4.49c-.35-2.08-1.55-2.24-2.24-2.24h-.46c-.37-.08.53-2.47-1.87-3.67a1.11,1.11,0,0,0-.5-.12c-1.15,0-2.42,1.75-3.52,3.5s-2,3.51-2.55,3.51h0c-1.05-.08-.52-6,.07-7.56s.75-1.72-2.24-2.17l-.31,0c-2.63,0-2,5.58-3.58,5.86s-4.27,4.56-4.27,4.56a21.09,21.09,0,0,1,1.84-6.91,20.18,20.18,0,0,0,6.39,24.88c.43.31.87.61,1.32.88a20.15,20.15,0,0,0,23.41-32.67m-16.55-4.32c-.47.09-.95.19-1.41.31.38-.1.77-.18,1.17-.26l.24-.05"/><path class="cls-6" d="M537.7,395.76a20.2,20.2,0,0,0-3.77.35l-.24.05c-.4.08-.79.16-1.17.26a19.66,19.66,0,0,0-13.16,10.92,21.09,21.09,0,0,0-1.84,6.91s2.62-4.26,4.27-4.56,1-5.86,3.58-5.86l.31,0c3,.45,2.84.6,2.24,2.17s-1.12,7.48-.07,7.56h0c.5,0,1.44-1.76,2.55-3.51s2.37-3.5,3.52-3.5a1.11,1.11,0,0,1,.5.12c2.4,1.2,1.5,3.59,1.87,3.67h.46c.69,0,1.89.16,2.24,2.24a10.28,10.28,0,0,0,1.94,4.49s-.44-5.61.45-5.61,1.35,2.92,1.35,2.92,5.39-1.27,3.59-5c-1.59-3.31-3.71-4.86-2.09-4.86a4.74,4.74,0,0,1,.82.08,5.42,5.42,0,0,0,.65.05c2.19,0,1.37-2.15,1.37-2.15a11.89,11.89,0,0,0,3.41-2.07h0a19.81,19.81,0,0,0-12.78-4.67"/><path class="cls-6" d="M544.24,422.79a22.81,22.81,0,0,0-2.62,3.29c0,.17-.23.25-.5.25a2.76,2.76,0,0,1-2.35-1.9c-.16-.47-.4-.65-.67-.65-.75,0-1.72,1.33-1.72,1.33a4.14,4.14,0,0,0-1-.13c-1.25,0-3.15.55-3,3.94,0,0,5,.53,5.26,2.32a2.08,2.08,0,0,0,2.07,2.11,5.1,5.1,0,0,0,2.47-.83c2.92-1.73,2.1-9.73,2.1-9.73"/><path class="cls-6" d="M544,417.63s-.9,1.94,1.8,2.91,1.82,4.59,1.82,4.59a1.28,1.28,0,0,1,1.14-.66,8.56,8.56,0,0,1,2.13.64.44.44,0,0,0,.15,0c.72,0-.7-2.24-1-4.29s-1.87-2.09-3.07-2.24a12.31,12.31,0,0,1-2.92-1"/><path class="cls-20" d="M548.49,393.09h0l-.37.67A25.53,25.53,0,0,1,537.44,442l.9,0h0c.45,0,.89,0,1.33,0a25.53,25.53,0,0,0,24-22.47h0v-3h0v-1.85h0c0-.26,0-.53-.07-.78h0a1.8,1.8,0,0,0,0-.22h0v-.11h0a25.57,25.57,0,0,0-15-20.36l-.07,0h0l-.11,0h0"/><polyline class="cls-21" points="539.67 444.05 539.67 444.05 538.63 444.05 533.38 444.05 532.26 444.05 532.26 444.49 532.26 445.37 533.38 445.37 537.15 445.37 538.63 445.37 539.67 445.37 539.67 444.05"/><path class="cls-20" d="M537.49,447.23a10.16,10.16,0,0,1,9.13,9.68h0a10.06,10.06,0,0,0-8-9.51c-.37-.07-.75-.13-1.13-.17m-1.57,0a10,10,0,0,0-9.46,9.2h18.33a10.19,10.19,0,0,0-8.87-9.2m.6,0h0"/><path class="cls-20" d="M526.43,457.26h-2.09a3.82,3.82,0,0,0,1.32,2.9h19.47a1.88,1.88,0,0,1-.28-1V458h0v-.24H526.43v-.46"/><path class="cls-21" d="M548.72,456.91h-2.1c0,.17,0,.33,0,.5V458h-1.78v1.2a1.88,1.88,0,0,0,.28,1h3.32a2,2,0,0,0,.27-1v-2.25"/><path class="cls-21" d="M535.81,447.16h-.21l.32,0a10.19,10.19,0,0,1,8.87,9.2h.49v1.32h-.44V458h1.79v-.55c0-.17,0-.33,0-.5a10.16,10.16,0,0,0-9.13-9.68l-.34,0h-.68l-.66,0"/><polyline class="cls-21" points="545.28 456.4 544.79 456.4 526.46 456.4 526.43 456.4 526.43 457.26 526.43 457.72 544.84 457.72 545.28 457.72 545.28 456.4"/><polyline class="cls-23" points="698.47 368.77 688.41 368.77 688.41 395.74 682.32 395.74 698.47 395.74 698.47 368.77"/><polyline class="cls-24" points="761.72 354.95 749.74 354.95 749.74 368.77 688.41 368.77 698.47 368.77 761.72 368.77 761.72 354.95"/><polyline class="cls-23" points="761.82 395.74 749.74 395.74 749.74 462.03 749.74 472.15 743.74 472.15 761.82 472.15 761.82 395.74"/><path class="cls-25" d="M521.64,472.15H495.8v4.32a4.66,4.66,0,0,0,4.67,4.66H517a4.66,4.66,0,0,0,4.66-4.66v-4.32"/><path class="cls-25" d="M743.74,472.15H717.9v4.32a4.66,4.66,0,0,0,4.67,4.66h16.51a4.66,4.66,0,0,0,4.66-4.66v-4.32"/><path class="cls-26" d="M569,460.16H548.45a2,2,0,0,1-1.67.94,1.89,1.89,0,0,1-.78-.17,3.8,3.8,0,0,1-1.12.17h-16.7a3.83,3.83,0,0,1-2.52-.94h-33.6v12h-12v0H749.74V462H614.9v-1.82H569.09l-.1,0"/><path class="cls-27" d="M545.13,460.16H525.66a3.83,3.83,0,0,0,2.52.94h16.7a3.8,3.8,0,0,0,1.12-.17,1.86,1.86,0,0,1-.87-.77"/><path class="cls-5" d="M548.45,460.16h-3.32a1.86,1.86,0,0,0,.87.77,1.89,1.89,0,0,0,.78.17,2,2,0,0,0,1.67-.94"/><polyline class="cls-23" points="505.54 368.77 492.06 368.77 492.06 460.16 505.54 460.16 505.54 368.77"/><polyline class="cls-26" points="480.07 354.95 480.07 354.95 480.07 460.16 480.07 472.15 492.06 472.15 492.06 460.16 492.06 368.77 480.07 368.77 480.07 354.95"/><path class="cls-26" d="M632.1,460V409.75H739.66V460H632.1m117.64-64.27H614.9V419.4h3v40.81h-3V462H749.74V395.74"/><path class="cls-26" d="M662.84,438.81V431H710v7.86h-47.2m75.25-27.49H633.66v47.12H738.09V411.32"/><path class="cls-23" d="M633.66,458.44V411.32H738.09v47.12H633.66m106-48.69H632.1V460H739.66V409.75"/><polyline class="cls-26" points="688.41 368.77 674.64 368.77 674.64 395.74 682.32 395.74 688.41 395.74 688.41 368.77"/><polyline class="cls-28" points="710.03 430.95 662.84 430.95 662.84 438.81 710.03 438.81 710.03 430.95"/><polyline class="cls-6" points="749.74 354.95 649.97 354.95 649.97 354.96 623.62 354.96 623.62 354.95 623.62 354.96 557.59 354.96 557.59 354.95 480.07 354.95 480.07 368.77 492.06 368.77 674.64 368.77 688.41 368.77 749.74 368.77 749.74 354.95"/><polyline class="cls-29" points="623.62 354.95 557.59 354.95 557.59 354.96 623.62 354.96 623.62 354.95"/><polyline class="cls-30" points="649.97 354.95 623.62 354.95 623.62 354.96 649.97 354.96 649.97 354.95"/><polyline class="cls-9" points="611.29 419.4 592.06 419.4 592.06 425.23 600.72 425.23 607.55 425.23 607.55 460.16 611.29 460.16 611.29 419.4"/><polyline class="cls-5" points="611.29 460.16 607.55 460.16 607.55 460.21 592.06 460.21 614.9 460.21 611.29 460.21 611.29 460.16"/><polyline class="cls-10" points="614.9 419.4 611.29 419.4 611.29 460.16 614.9 460.16 614.9 419.4"/><polyline class="cls-31" points="614.9 460.16 611.29 460.16 611.29 460.21 614.9 460.21 614.9 460.16"/><polyline class="cls-31" points="617.92 419.4 617.25 419.4 614.9 419.4 614.9 460.16 614.9 460.21 617.92 460.21 617.92 419.4"/><polyline class="cls-10" points="600.72 425.23 592.06 425.23 585 425.23 585 429.67 590.79 429.67 596.35 432.43 587.08 460.16 600.72 460.16 600.72 425.23"/><polyline class="cls-31" points="600.72 460.16 587.08 460.16 587.06 460.21 585 460.21 592.06 460.21 607.55 460.21 600.72 460.21 600.72 460.16"/><polyline class="cls-11" points="607.55 425.23 600.72 425.23 600.72 460.16 607.55 460.16 607.55 425.23"/><polyline class="cls-32" points="607.55 460.16 600.72 460.16 600.72 460.21 607.55 460.21 607.55 460.16"/><polyline class="cls-6" points="590.79 429.67 585 429.67 574.82 429.67 563.92 457.39 581.11 457.39 590.79 429.67"/><polyline class="cls-12" points="590.79 429.67 590.79 429.67 581.11 457.39 586.95 460.16 587.08 460.16 596.35 432.43 590.79 429.67"/><polyline class="cls-33" points="587.08 460.16 586.95 460.16 587.06 460.21 587.08 460.16"/><polyline class="cls-4" points="581.11 457.39 563.92 457.39 568.99 460.16 586.95 460.16 581.11 457.39"/><polyline class="cls-34" points="586.95 460.16 568.99 460.16 569.09 460.21 587.06 460.21 586.95 460.16"/><polyline class="cls-35" points="0 487.23 825.75 487.23 825.75 482.23 0 482.23"/><path class="cls-36" d="M434.29,370c0-3-2.15-5.4-4.8-5.4H426.7V354.19H352.19V364.6H349.9c-2.65,0-4.8,2.42-4.8,5.4s2.15,5.41,4.8,5.41h.9l-6.57,106.76h8.26l6.57-106.76h32.63l.73,106.76h8.26L400,375.41H420.9l.73,106.76h8.26l-.73-106.76h.33C432.14,375.41,434.29,373,434.29,370Z"/><path class="cls-37" d="M430.64,370c0-3-2.15-5.4-4.8-5.4h-2.79V354.19H348.54V364.6h-2.29c-2.65,0-4.8,2.42-4.8,5.4s2.15,5.41,4.8,5.41h.9l-6.58,106.76h8.26l6.58-106.76H388l.73,106.76H397l-.73-106.76h20.94L418,482.17h8.26l-.73-106.76h.34C428.49,375.41,430.64,373,430.64,370Z"/><rect class="cls-37" x="349.77" y="450.74" width="40.63" height="10.47"/><rect class="cls-37" x="396.26" y="450.74" width="21.68" height="10.47"/><rect class="cls-36" x="348.54" y="362.82" width="76.73" height="1.88"/><path class="cls-38" d="M394.21,439l0,15.81-14.58-.21s.1-13.76-.56-16.24Z"/><path class="cls-39" d="M437.78,313.84S442,332,432.45,342.31C428.1,347,413.26,358,401,364.28c-46.21,23.69-47.71-2.23-49.28-3.36,0,0,12.65-13.26,34.85-25.43S437.78,313.84,437.78,313.84Z"/><path class="cls-38" d="M353.82,344.69l-19.39,10.5,6.4,13.1s12.41-5.94,14.94-6.41Z"/><path class="cls-40" d="M343.06,367.23,337,353.68a1.46,1.46,0,0,0-2-.74c-4.38,2.32-15.55,7.54-36.18,1.82-1.45-.4-5.93-.6-6.33,2.92-1.78,15.71,28.51,20.66,38.46,16.81C338.3,371.62,343.61,368.77,343.06,367.23Z"/><path class="cls-41" d="M353,310.19s-2.58,15.34-2.87,18-2,16.63,0,22.58,63.34-28.48,63.49-32,7.37-11-3.69-13.6S353,310.19,353,310.19Z"/><path class="cls-42" d="M358,367.54,345.48,344l73.13-39a13.32,13.32,0,0,1,18,5.48c3.52,8.11,1,14.57-5.49,18Z"/><path class="cls-43" d="M413.25,224.32s7.24,1.46,10.79,10.39,10.34,51.32,10.2,57.84-6.8,13-11.62,10.2a77.65,77.65,0,0,1-10.21-7.65L417,279l-7.53-5.74s-11-18.29-6.85-32.61S413.25,224.32,413.25,224.32Z"/><path class="cls-44" d="M409.83,223l6.43,2.51s-9.8,15.87-10.51,29.91c0,0-5.23-25.52-2.27-29.63S409.83,223,409.83,223Z"/><path class="cls-43" d="M340.22,234.08s-3.36,1.2-5.4,7.34c-3,9-4.93,25-4.83,35.46.18,18.6,2.33,29.84,7.86,29.84,7.63,0,17.72-10.2,17.93-12.75L350,278.51l3.12-2.41s.38-21.21-.74-24.65-5.08-15.59-6.78-17.37S340.22,234.08,340.22,234.08Z"/><path class="cls-44" d="M343.1,232l-4.26,3s13.68,15.45,16,27.14-.21-25.37-2.63-27.43S343.1,232,343.1,232Z"/><path class="cls-45" d="M351.76,225.9l-9.32,6.6s9.55,13,9.91,25.65S351,320.63,351,320.63s39.87-.84,64.89-13.85c0,0-3.83-30.62-5.53-39.7s-5.77-27.27,1.88-43.14l-20.64-8Z"/><path class="cls-44" d="M364.1,213.4s-6.57,8.67-13.07,13c0,0,17.15,19.36,28.21,23.33l6.46-1.56s13.09-20.48,14.37-29c0,0-17.76-7.58-20.59-10.14S364.1,213.4,364.1,213.4Z"/><path class="cls-46" d="M361.07,209l.6,13.5s11.17,16.18,15.27,16.34,10.28-19.18,10.28-19.18l-3-14.87Z"/><path class="cls-47" d="M353.51,206.5s4,8.26,8.66,10.74c0,0-.91-6.23.3-6.65s-2.37-6.29-5.42-5.58S353.51,206.5,353.51,206.5Z"/><path class="cls-47" d="M390.05,198.26s1.05,12.8-4.34,15.25L383,206.12S388,197.38,390.05,198.26Z"/><polygon class="cls-48" points="358.96 219.41 362.3 212.24 362.03 222.99 358.96 219.41"/><path class="cls-38" d="M390.54,193.72s3.3,2.22.12,6.66c-1.6,2.24-4,.38-4,.38s-1.78-8.13-.36-9.66S390.54,193.72,390.54,193.72Z"/><polygon class="cls-48" points="384.56 211.51 387.22 219.87 391.63 214.52 384.56 211.51"/><path class="cls-38" d="M355.52,200.26s.88,9.38,7.59,14.67,9.28,5,12.12,4.94,10.21-6.68,11.39-12.39c1.26-6,1.16-21.42,1.15-21.32s-8.15-15.95-20.72-9.9-15.69,12.38-13.42,17.29S355.52,200.26,355.52,200.26Z"/><path class="cls-38" d="M351.08,202s-2.4,2.77,2.08,5.92a3.85,3.85,0,0,0,4.39,0s-1.24-6.08-3.08-7.07S351.08,202,351.08,202Z"/><path class="cls-46" d="M356,206.7a1.41,1.41,0,0,1-1.56.49,4.06,4.06,0,0,1-1.53-.79,3.15,3.15,0,0,1-1.14-1.37,1.79,1.79,0,0,1,.29-1.86,2,2,0,0,1,1.76-.65,1.78,1.78,0,0,1,.89.38,2.73,2.73,0,0,1,.62.65,2.4,2.4,0,0,1,.46,1.72,1,1,0,0,1-.2.44.59.59,0,0,1-.44.22,1.16,1.16,0,0,1-.76-.4,1.14,1.14,0,0,0,.74.22.47.47,0,0,0,.34-.52,2.17,2.17,0,0,0-.54-1.37,1.85,1.85,0,0,0-1.19-.75,1.38,1.38,0,0,0-1.21.47,1.22,1.22,0,0,0-.22,1.25,3.12,3.12,0,0,0,.89,1.21,4.21,4.21,0,0,0,1.32.87A1.33,1.33,0,0,0,356,206.7Z"/><path class="cls-46" d="M355.67,205a.85.85,0,0,0-.89-.42c-.31.08-.53.36-.46.59a1.59,1.59,0,0,0,.6.77,2.44,2.44,0,0,0,1,.5,1.55,1.55,0,0,1-1.2-.18,1.53,1.53,0,0,1-.84-1,.79.79,0,0,1,.22-.72,1,1,0,0,1,.64-.3.81.81,0,0,1,.64.22A1.21,1.21,0,0,1,355.67,205Z"/><path class="cls-46" d="M388.69,199.84a.7.7,0,0,0,.63.24.92.92,0,0,0,.5-.42,5.64,5.64,0,0,0,.6-1.29,3.82,3.82,0,0,0,.19-1.37,2.14,2.14,0,0,0-.39-1.23c-.25-.34-.59-.48-.84-.26a2.28,2.28,0,0,0-.54,1.16,3.94,3.94,0,0,0-.07,1.41c0,.22.09.49.24.58l.26-.1a1.34,1.34,0,0,0,.23-.29,1.23,1.23,0,0,1-.16.35.36.36,0,0,1-.38.19.54.54,0,0,1-.32-.29,1.76,1.76,0,0,1-.17-.37,3.92,3.92,0,0,1-.11-1.56,4.2,4.2,0,0,1,.18-.78,1.89,1.89,0,0,1,.46-.75,1,1,0,0,1,1-.22,1.47,1.47,0,0,1,.74.56,3.26,3.26,0,0,1,.17,3.14,4.5,4.5,0,0,1-.83,1.33,1.16,1.16,0,0,1-.72.38A.73.73,0,0,1,388.69,199.84Z"/><path class="cls-46" d="M388.56,198.11a1.31,1.31,0,0,1,0-.52l.15-.26a.52.52,0,0,1,.31-.14.86.86,0,0,1,.82.83,1.6,1.6,0,0,1-.31,1,1.07,1.07,0,0,1-.87.54,1.47,1.47,0,0,0,.54-.72,2,2,0,0,0,.17-.82.53.53,0,0,0-.35-.52C388.87,197.46,388.66,197.81,388.56,198.11Z"/><path class="cls-47" d="M357.55,207.92s-2.13-10.35,0-15.74a34.73,34.73,0,0,1,5.16,4.36,75.9,75.9,0,0,0,5.4-11.92s2.53,4.59,2.25,8.82a51.72,51.72,0,0,0,4.91-9.2,12.78,12.78,0,0,1,3.91,7.91s3.36-.41,3.6-5.5c0,0,4.36,6.31,4.85,13,0,0-.49-6.55,2.91-6,0,0,1.74-15-8.18-21.1s-15.45,0-15.45,0-6.92-4-13.75,6.52c-4.28,6.55-5.46,15.8-2,23a2.77,2.77,0,0,1,2.47-.67C354.68,201.93,355.74,207,357.55,207.92Z"/><path class="cls-43" d="M354,224.15l23.62,23.46L383,247s12.44-24,13.92-29.21l-5.7-2.59-4,3.12s-3.73,5-6.75,5.91c0,0-1.61,10.2-2.74,13.23l-5.39-12L359,219.41S354.8,223.54,354,224.15Z"/><polygon class="cls-44" points="358.96 219.41 358.11 226.56 372.08 233.51 372.34 225.5 361.44 220.54 358.96 219.41"/><polygon class="cls-44" points="391.63 214.52 394.24 221.23 382.45 231.45 380.19 223.76 389.51 216.23 391.63 214.52"/><rect class="cls-47" x="371.3" y="244.4" width="17.39" height="19.37" rx="3.24"/><path class="cls-38" d="M405.32,269.44c-2.69-3.54-8.78-11.48-14.88-13.18a24.06,24.06,0,0,0-12,.34c-7.4-.09-10.56,4.34-14.25,8.87s-16,14-16,14L355.78,291c5.88-9.41,13.45-15.78,17.83-16.48,3-.48,8.32-.88,11.53-1.56,0,0,2.7-.12,2.52-1.29-.08-.59,6.08,2.65,7.32,3.55,2.41,1.75,17.15,18.9,17.15,18.9l6.8-14.32S408,273,405.32,269.44Z"/><polygon class="cls-49" points="334.82 288.44 346.21 279.01 346.21 280.12 334.82 288.44"/><polygon class="cls-49" points="432.45 290.11 421.05 280.69 421.05 281.8 432.45 290.11"/><path class="cls-41" d="M398.51,439.4H374.83l-3.92-81c0-9.44,8.53-14.35,15.89-14.35s14.83,5.71,14.83,13.07Z"/><path class="cls-47" d="M361.78,201.09a3.23,3.23,0,0,1,.3-1.76,3,3,0,0,1,1.33-1.4,2.33,2.33,0,0,1,2-.05,3.06,3.06,0,0,1,.79.51,3.75,3.75,0,0,1,.55.71,6.22,6.22,0,0,1-.84-.17l-.39-.06-.18,0h-.18a2.12,2.12,0,0,0-1.2.21,4.14,4.14,0,0,0-1.07.83C362.54,200.23,362.19,200.64,361.78,201.09Z"/><path class="cls-47" d="M382.54,197.17c-.51-.29-1-.57-1.38-.79a3.72,3.72,0,0,0-1.2-.45,1.9,1.9,0,0,0-1.15.15l-.16,0-.16.08-.34.17a7,7,0,0,1-.73.4,3.56,3.56,0,0,1,.29-.83,2.51,2.51,0,0,1,.57-.7,2.19,2.19,0,0,1,1.87-.56,2.77,2.77,0,0,1,1.63.93A3.06,3.06,0,0,1,382.54,197.17Z"/><path class="cls-47" d="M366.37,203.57c.23.88,0,1.7-.48,1.83s-1.07-.48-1.3-1.37,0-1.7.47-1.83S366.14,202.69,366.37,203.57Z"/><path class="cls-47" d="M380.9,201.46c0,.91-.35,1.66-.86,1.68s-1-.7-1-1.61.34-1.67.85-1.69S380.86,200.54,380.9,201.46Z"/><path class="cls-50" d="M375.5,214.73c1.12-1.28,1.23-3-1.86-2.94s-.67,2.94-.67,2.94A1.81,1.81,0,0,0,375.5,214.73Z"/><path class="cls-46" d="M372.48,201.85a8.19,8.19,0,0,1,1.16,1.42,9.71,9.71,0,0,1,.86,1.59,5.2,5.2,0,0,1,.3.94,2,2,0,0,1-.11,1.14,2,2,0,0,1-.63.86,1.14,1.14,0,0,1-1,.28,1.66,1.66,0,0,0,.4-.73,5.12,5.12,0,0,0,.13-.71,1.74,1.74,0,0,0,0-.61c0-.21-.13-.48-.21-.75A18.71,18.71,0,0,1,372.48,201.85Z"/><path class="cls-44" d="M342.88,280.06l5.67-3.68L357.4,293l-5.16,6.5S345.34,286.3,342.88,280.06Z"/><path class="cls-44" d="M422.62,280.57,417,276.88l-8.67,16.48,5.35,4.67S420.16,286.81,422.62,280.57Z"/><path class="cls-40" d="M379.58,448.3s-2.16-1.33-2.61,9c-.51,11.57-3.47,29.07,11.22,29.91,12.18.69,12.05-10,9.62-24.72-1.16-7-.91-15.22-3.61-14.82,0,0,.61,3.12-6.3,4.12S379.58,448.3,379.58,448.3Z"/><path class="cls-46" d="M379.61,273.58H379s7.29-1.24,8.1-1.7c-.44-.24-2.07-.64-6.27-.53-3,.07-4.66-.37-5-1.31a1.12,1.12,0,0,1,.54-1.27c.48-.34,2-.49,5.7-.77,1.86-.14,4.48-.34,5.76-.59a54.49,54.49,0,0,0-5.68-.27c-1.59,0-3.23-.06-4.48-.15-2.21-.15-3.32-.6-3.49-1.39-.11-.55.28-1.11,1.07-1.52.51-.27,2-.33,4.79-.42,2.56-.08,7.25-.22,7.94-.84-.71-.6-5.66-.53-8.07-.5a34.82,34.82,0,0,1-4.27-.07c-1.48-.24-1.61-1-1.6-1.29,0-1,1.62-1.78,3.94-2,.59-.05,1.54-.06,2.64-.09,2.21,0,7.33-.15,8-.78-.47-.53-4.51-1.39-8.66-1.32,0,0,9.36-.4,9.62,1.21a.82.82,0,0,1-.19.67c-.77.93-4.28,1.07-8.78,1.16-1.08,0-2,0-2.59.09-2.28.17-3.06.89-3.07,1.06s.19.22.81.32a37.18,37.18,0,0,0,4.11.06c4.61-.07,7.95,0,8.8.83a.9.9,0,0,1,.25.65c-.06,1.32-2.89,1.56-8.88,1.74a27.51,27.51,0,0,0-4.39.31c-.46.25-.57.46-.57.5h0s.23.48,2.62.65c1.23.08,2.86.11,4.43.14,4.63.08,6.57.17,7.08.77a.68.68,0,0,1,.16.52c-.11.76-1.27,1-7.26,1.45a32.88,32.88,0,0,0-5.23.6.53.53,0,0,0-.19.2s.41.76,4.06.67c4.3-.11,6.72.25,7.21,1.06a.8.8,0,0,1,0,.82C387.33,273.48,381.52,273.58,379.61,273.58Z"/><path class="cls-51" d="M185.07,322.38h70.31a12.75,12.75,0,0,1,12.75,12.75v57.26H185.07Z"/><path class="cls-52" d="M138.36,272.87h27.22a24.26,24.26,0,0,0-24.26,24.26v42H114.1v-42A24.26,24.26,0,0,1,138.36,272.87Z"/><path class="cls-53" d="M151.82,272.87h52c12,0,21.74,8.32,21.74,18.58v66.62H130.08V291.45C130.08,281.19,139.81,272.87,151.82,272.87Z"/><path class="cls-53" d="M252.49,322.38h2.89a12.75,12.75,0,0,1,12.75,12.75v64.95h-28.4V335.13A12.75,12.75,0,0,1,252.49,322.38Z"/><path class="cls-54" d="M131.36,407.85l-25.77,70.66a3.63,3.63,0,0,1-6.68-2.82L120.12,402l.39,5.77Z"/><path class="cls-54" d="M222.48,407.85l-27.77,72.66a3.63,3.63,0,0,1-6.69-2.82L211.24,402l.39,5.77Z"/><path class="cls-54" d="M248.31,407.77l7.38,70.75a3.63,3.63,0,0,1-3.62,3.92h-.68a3.62,3.62,0,0,1-3.58-3l-15.18-71.63Z"/><path class="cls-54" d="M176.28,407.85l-8.14,71.28a3.63,3.63,0,0,1-3.61,3.31H162a3.62,3.62,0,0,1-3.63-3.63v-71Z"/><line class="cls-54" x1="204.16" y1="407.77" x2="222.06" y2="407.85"/><rect class="cls-55" x="120.12" y="401" width="133.82" height="6.94"/><rect class="cls-51" x="120.12" y="400.02" width="133.82" height="1.98"/><rect class="cls-53" x="172.28" y="360.24" width="81.65" height="39.84"/><path class="cls-56" d="M250.1,336.65a24.9,24.9,0,0,0,6.46,1.89c9,1.5,19.41,9,25,22.76l14.22,31.36s9.57,21.27,21.79,33.49l9.17,8s5.78,13.26-17,2.19l-8.37-8.67s1-1.29-4.79-7.87c-4.39-5-13.55-19.89-17.66-27.4a66,66,0,0,0-5.44-8.31L264.89,373,255,361.43l-17.54-10.86,6.58-9.87Z"/><path class="cls-40" d="M301.37,427.71a26.69,26.69,0,0,0,21,11c9.23.25.72-8,.72-8s16.81,8.17,19.8,14.35c1.13,2.35-3.91,7.75-14.05,6C304.6,446.72,300.52,435.15,301.37,427.71Z"/><path class="cls-38" d="M242.51,382.77c.19.77-8.06-31,4-33.56,8.78-1.86,23.67,12.83,17.29,46.47-.95,4.11-6.16,23.87-4.59,43,.72,8.77,6.51,16,11.76,22.27a10,10,0,0,1,2,4.65c.27,2.52-6,5.84-11.42,1.59s-15.29-21.13-15.29-21.13C249.81,431.42,242.63,398.46,242.51,382.77Z"/><path class="cls-40" d="M246.45,443.92s0,6.74,11.95,14.76c6.44,4.33,12.79,5.93,13.28,3.36,0,0,9.11,8.94,6.61,19.3-2.07,8.61-32.36-12.4-32.35-27.63C245.94,443.53,246.45,443.92,246.45,443.92Z"/><path class="cls-46" d="M225.47,268.94s5.38,12.56,4.68,24.92-.69,12.43,2.89,12,5.49-28.17,5.49-28.17l.13-13-.07-4.38L232,253.26l-4.84-4.5S219.09,263.06,225.47,268.94Z"/><path class="cls-57" d="M252.94,306.75a9.8,9.8,0,0,1,5.75,2.59c.87.87-.1,1.58-1.59,1.63a7.69,7.69,0,0,1-2.93-.57,11.36,11.36,0,0,1-2.55-1.23,2.66,2.66,0,0,1-1.17-1.85C250.39,306,252.94,306.75,252.94,306.75Z"/><path class="cls-38" d="M204.24,228.68s-6.38,7.4-9.22,8.85,5.43,15.57,5.43,15.57l14,10.76,7.27-10.76,1.1-5.58-2.2-6.28a11.93,11.93,0,0,1,1.7-6.68c2.09-3.89-11.06-8.17-11.06-8.17Z"/><path class="cls-58" d="M184,238.71s6.93.78,11.17-1.66c4.29.37,7,13.54,10.68,18.39a67.93,67.93,0,0,1,8.58,7.62,17.47,17.47,0,0,1,3.47-6.57c6.27-7.25,2.52-13.83,2.65-15.25l6.53,7.52a78.56,78.56,0,0,0,3.79,12c4.89,12.29,0,24.35-3.6,30.61,0,0-4.09,7-4.06,26.92a3.77,3.77,0,0,0,.79,2.09c6.19,9,30.42,15.52,35.16,18.63,0,0-19.14,12.82-16.48,44,0,0-2.35-3.76-43.89-19.87q-3.1-1.2-6.29-2.2c-7-2.22-27.68-10.62-24.77-31.56,0,0,8.7-30.16,11-40.53S183,249.14,183,249.14Z"/><path class="cls-38" d="M245.92,301.56s-9.85,6-14.24,4.79c-1.68-.45.87-5.86,1.93-14.35,1.71-13.62,4.32-30.76.59-35.38-3.37-4.17-5.24-7-5.24-7a18.63,18.63,0,0,0-3.23-5.3c-2-2.16-1.62-3-1.13-3.59s3,.07,4.46,1.3l1.72-2.51L227,241.34s-2.78.6-2.16-1.46a3,3,0,0,1,.94-1.38c1.18-1,4.15-3.27,7.24-3.58,0,0,1.92-.2,1.72,1.27,0,0,2.13.1,1.6,1.76,0,0,3.12-.67,2.42,2.26,0,0,6.42-.47,7.15,5.31.25,2-1.66,9.39-.56,17.63C247.55,280.06,245.92,301.56,245.92,301.56Z"/><path class="cls-38" d="M175,249.75c-1.78,11.1-2.21,56.47,5.34,61.59,17.1,11.6,66.58-.53,66.58-.53l-.6-11.43s-8.28,4.91-16.85,5-36.69,0-37.72-6.81c0,0-3.72-16.73.5-31.41,1.18-4.11,3.9-15.46.7-21.87C188.86,236.12,177.16,236.12,175,249.75Z"/><path class="cls-38" d="M246.3,299.38a9,9,0,0,1,8.22-.93c4.21,1.52,9.6,4.13,11.56,5.1a1.8,1.8,0,0,1,1,1.63c0,.69-.52,1.18-2.68,0,0,0,3.29,2,1.59,2.59a2.64,2.64,0,0,1-3-1s2.83,2.49,1.53,2.93c-1.66.56-5.21-2-5.21-2s-3.21-2.25-4.34-1.65-1.64,2.26-3.49,3.17c-.51.24-.93.63-1.45.87-1,.45-2.73,1.1-4,.63C244.19,310,246.3,299.38,246.3,299.38Z"/><path class="cls-57" d="M264.61,305.22c-1.45-.65-2.81-1.38-4.2-2.07-.69-.35-1.39-.67-2.09-1a6.74,6.74,0,0,0-2.22-.58,4.23,4.23,0,0,1,2.39.08,13.25,13.25,0,0,1,2.22.86A16.9,16.9,0,0,1,264.61,305.22Z"/><path class="cls-57" d="M263.71,307.35c-1.48-.86-2.85-1.85-4.23-2.83l-2-1.47c-.35-.24-.69-.48-1.05-.7a3.54,3.54,0,0,0-1.12-.55,5.19,5.19,0,0,1,2.44.8,20.32,20.32,0,0,1,2.17,1.37A24.59,24.59,0,0,1,263.71,307.35Z"/><path class="cls-38" d="M244.36,212.13s-4.93,6-4.19,10.46c.67,4,.72,4.07,1,6.41a.74.74,0,0,1-.57.8l-3.07.08a11.11,11.11,0,0,1-1.71,2.25c-.75.59-1,.31-1,.31s0,1.44-1.88,2.85c0,0-3.81,3.54-10.67.13s-7.63-12.19-7.63-12.19l14.57-18.34Z"/><path class="cls-41" d="M235.92,218c-.29.9,0,1.8.61,2s1.37-.37,1.66-1.27,0-1.8-.61-2S236.21,217.12,235.92,218Z"/><path class="cls-41" d="M234.19,214.56a3.5,3.5,0,0,1,1-1.44,3.85,3.85,0,0,1,1.59-.87,3,3,0,0,1,1.92.13,2.22,2.22,0,0,1,1.21,1.38,5.5,5.5,0,0,0-1.5-.35,4.39,4.39,0,0,0-1.29.16C236.24,213.79,235.34,214.23,234.19,214.56Z"/><path class="cls-59" d="M235,232.32a13.73,13.73,0,0,1-3.76-3.35"/><path class="cls-60" d="M235,232.32a2.94,2.94,0,0,1-1.52-.07,3.4,3.4,0,0,1-1.18-.65,3.18,3.18,0,0,1-.85-1.09,2.38,2.38,0,0,1-.21-1.54,6.14,6.14,0,0,1,1.37.44,4.4,4.4,0,0,1,1.81,1.55A4,4,0,0,1,235,232.32Z"/><path class="cls-46" d="M197,236.12s7.58,5.91,15.34,2.18,8.87-1.25,8.87-1.25l.75-1.83a17.33,17.33,0,0,1-7.67-5.09c-3.06-3.74-10-2.2-10-2.2S199.78,234.7,197,236.12Z"/><path class="cls-61" d="M183.26,217.76s7.52-1.61,13.1-15.38c6.42-15.83,18.32-19.75,26.42-19.81,6.76,0,30.49,3.44,24,31.23l-17.66-6.91a1,1,0,0,0-1.14.33c-2.46,3.37-14.31,20.2-12,28.9C215.93,236.12,191.27,237,183.26,217.76Z"/><path class="cls-46" d="M238.72,240.21s-3.19.45-3.13,2.12a.67.67,0,0,0,.25.52c.52.44,1.84.54,3.63.29a2.44,2.44,0,0,1,2.72,1.78,3.81,3.81,0,0,1,.08,1.14,2.69,2.69,0,0,1-.52,1.37s-1.78,3.1-1.47,4.18a7.43,7.43,0,0,1,1.12-4.43,2.25,2.25,0,0,0,.43-1.15,3.29,3.29,0,0,0-.06-1,2,2,0,0,0-2.24-1.45c-1.37.19-3.17.28-4-.39a1.1,1.1,0,0,1-.41-.84S235,240.26,238.72,240.21Z"/><path class="cls-46" d="M236.3,238c-.05,0-5,4.05-5,7.14,0,.74.16,1.19.43,1.32s.87-.1,1.53-.65a3.75,3.75,0,0,0,.54-.58l1.83-2.35.35.27-1.83,2.35a4.65,4.65,0,0,1-.61.64,2.85,2.85,0,0,1-1.61.79.84.84,0,0,1-.38-.08c-.45-.2-.67-.76-.68-1.71A8.88,8.88,0,0,1,236.3,238Z"/><path class="cls-46" d="M234.65,236.22a39.37,39.37,0,0,0-4.82,5s-1.27,1.92-.21,3.19c.24.28.43.25.49.24.61-.1,1.37-1.52,1.7-2.39l.41.16c-.1.25-1,2.48-2,2.66H230a1,1,0,0,1-.75-.4c-1.27-1.52.11-3.61.17-3.7A24.84,24.84,0,0,1,234.65,236.22Z"/><path class="cls-46" d="M238.56,252.43c-.57-3.19-4.3-5.35-4.95-5.36A18.84,18.84,0,0,1,238.56,252.43Z"/><path class="cls-46" d="M233.36,234.91a11,11,0,0,0-6.58,3.09c-1.62,1.34-1.91,2.09-1.87,2.49a.81.81,0,0,0,.5.6,1.85,1.85,0,0,0,1.41.06,35,35,0,0,0,5.13-2.72l-.78.88a22.49,22.49,0,0,1-4.21,2.25,2.42,2.42,0,0,1-.79.13,2.17,2.17,0,0,1-.95-.21,1.23,1.23,0,0,1-.74-.94c-.08-.75.58-1.68,2-2.86A11.45,11.45,0,0,1,233.36,234.91Z"/><path class="cls-46" d="M246.93,299A26,26,0,0,1,236.29,304a15.07,15.07,0,0,1-6,.4h0S240.57,307.15,246.93,299Z"/><path class="cls-46" d="M222,235.22a11.14,11.14,0,0,1-6.09-3.8A26.39,26.39,0,0,0,222,235.22Z"/><path class="cls-40" d="M288.39,314.1H336l20.14-44.25a.87.87,0,0,0-.8-1.24H310.82a2.66,2.66,0,0,0-2.43,1.56Z"/><rect class="cls-40" x="249" y="310.43" width="60.21" height="3.67"/><path class="cls-62" d="M326.71,289.18a8.15,8.15,0,0,1,.83-1.64,4.7,4.7,0,0,0-2.06-.44,9.21,9.21,0,0,0-7.94,5.82c-1.17,3.22.48,5.82,3.7,5.82a9.13,9.13,0,0,0,7.11-4.18C326.56,293.68,325.83,291.6,326.71,289.18Z"/><path class="cls-51" d="M126.86,322.38h45.46a12.75,12.75,0,0,1,12.75,12.75V402h-71V335.13A12.75,12.75,0,0,1,126.86,322.38Z"/><path class="cls-53" d="M170.84,323.76h2.89a12.75,12.75,0,0,1,12.75,12.75v64.95h-28.4V336.51A12.75,12.75,0,0,1,170.84,323.76Z"/><path class="cls-51" d="M157.08,402.46h30.4V336.51a13.77,13.77,0,0,0-13.75-13.76h-2.89a13.77,13.77,0,0,0-13.76,13.76Zm28.4-2h-26.4V336.51a11.78,11.78,0,0,1,11.76-11.76h2.89a11.77,11.77,0,0,1,11.75,11.76Z"/><path class="cls-63" d="M126.35,486.58H95a14,14,0,0,1-14-14V322.37h9.6V472.56A4.43,4.43,0,0,0,95,477h31.39a4.43,4.43,0,0,0,4.42-4.42V321.82h9.6V472.56A14,14,0,0,1,126.35,486.58Z"/><path class="cls-63" d="M609.82,486.58H578.43a14,14,0,0,1-14-14V322.37H574V472.56a4.42,4.42,0,0,0,4.41,4.42h31.39a4.43,4.43,0,0,0,4.42-4.42V321.82h9.6V472.56A14,14,0,0,1,609.82,486.58Z"/><rect class="cls-64" x="50.23" y="313.71" width="604.31" height="17.31"/><path class="cls-65" d="M572.1,306.05v-9.57h-4.87v9.57a7.41,7.41,0,0,0,7.41,7.41h4.87A7.41,7.41,0,0,1,572.1,306.05Z"/><path class="cls-66" d="M588.11,306.05v-9.57h-16v9.57a7.41,7.41,0,0,0,7.41,7.41h1.2A7.4,7.4,0,0,0,588.11,306.05Z"/><rect class="cls-66" x="561.58" y="311.67" width="32.73" height="1.79"/><path class="cls-66" d="M588.87,298.77a4,4,0,1,0,4,4A4,4,0,0,0,588.87,298.77Zm0,6.43a2.44,2.44,0,1,1,2.44-2.44A2.45,2.45,0,0,1,588.87,305.2Z"/><path class="cls-67" d="M573.62,284.44a4,4,0,0,0-.8,2.39,5,5,0,0,0,.69,2.19l.68,1.18a6.61,6.61,0,0,1,.58,1.42,3.54,3.54,0,0,1,.07,1.66,1.19,1.19,0,0,1-1.22,1,1,1,0,0,0,.36-1.08,4.41,4.41,0,0,0-.49-1.07c-.23-.36-.46-.72-.72-1.07l-.39-.55-.42-.67a4.45,4.45,0,0,1-.5-3.22A3,3,0,0,1,573.62,284.44Z"/><path class="cls-67" d="M577.89,281.92a5,5,0,0,0-1.31,3,5.44,5.44,0,0,0,.88,2.87l.93,1.48a9.94,9.94,0,0,1,.81,1.75,4.13,4.13,0,0,1,.18,2.05,1.75,1.75,0,0,1-.56.94,1.33,1.33,0,0,1-.93.31,1.23,1.23,0,0,0,.62-1.33,4.45,4.45,0,0,0-.57-1.42c-.3-.46-.59-.94-.94-1.39-.18-.22-.34-.44-.52-.69l-.54-.81c-.16-.29-.29-.6-.44-.9a8.51,8.51,0,0,1-.3-1,4.52,4.52,0,0,1,0-2.1A3.87,3.87,0,0,1,577.89,281.92Z"/><path class="cls-67" d="M582.74,284.44a4,4,0,0,0-.8,2.39,4.94,4.94,0,0,0,.68,2.19l.69,1.18a7.14,7.14,0,0,1,.57,1.42,3.54,3.54,0,0,1,.08,1.66,1.21,1.21,0,0,1-1.22,1,1,1,0,0,0,.35-1.08,4.06,4.06,0,0,0-.49-1.07c-.23-.36-.46-.72-.72-1.07l-.39-.55-.41-.67a4.45,4.45,0,0,1-.51-3.22A3,3,0,0,1,582.74,284.44Z"/><path class="cls-68" d="M110.2,293s8.4-1,9-6c0,0-2.51-.94-.86-3.06,0,0-6.21,5.26-9.59,6,0,0-.47-2.83,2-3.62,0,0,6.2-8.32,5-10.29s-3.45,1.34-3.45,1.34-4,.31-3.46,4.16c0,0-3.14,3.54-4.71,4.17,0,0,.86-.48.47-3.54,0,0,3.69-5.89,1.73-7.86,0,0,1.57-2.83,0-3.06s-.32,2.91-4.09,3.77c0,0,.63,3.77-1.89,4.64,0,0-.23,6.28-1.88,7.62,0,0,1-3.3-1.1-4.72,0,0,3-3.77,1.18-5.34,0,0,2.67-5,0-6.36s-1.18,3.77-1.18,3.77-2.83-2.52-4.09-2.75c0,0,1.65,5.34-.7,7.23,0,0-.48,6.44,1.41,9.35,0,0-2-7.55-3.93-8.18,0,0-3.3-6.6-4.56-6.28s2.2,6.68,2.2,6.68-2.9-1.34-2.47.31,3.26,2.83,3.26,2.83-4.24.47-2.91,1.57S91,289.89,91,289.89s-3.69-2.59-6.83-2.59A6.18,6.18,0,0,1,79.4,285s-1.18,2.9,4.55,5.18,7.78,3.46,8.17,5.42S110.2,293,110.2,293Z"/><path class="cls-69" d="M95.58,294.13l-5.66-3.3s3.3-1.41,4.72,0-3.3-5.18-3.3-5.18-1.16-3.24.13-4l4.58,8.69,1.89-7.07s1.88,1.88,0,6.6c0,0,6.13-2.83,6.6-7.54,0,0,1.88,4.71-1.42,7.54,0,0,4.72,1.41,4.72-.47a2.24,2.24,0,0,1,1.45-2.3s-2.39,7,8,2.77c0,0-3.77,4.24-11.32,4.71S95.58,294.13,95.58,294.13Z"/><path class="cls-36" d="M108.94,297.59h-16a2.83,2.83,0,0,1,0-5.66h16a2.83,2.83,0,1,1,0,5.66Z"/><path class="cls-54" d="M100.92,315.5h0a8.8,8.8,0,0,1-8.8-8.8v-9.11h17.6v9.11A8.8,8.8,0,0,1,100.92,315.5Z"/><path class="cls-36" d="M100.92,316.6h0a8.8,8.8,0,0,1-8.8-8.8v-9.11h17.6v9.11A8.8,8.8,0,0,1,100.92,316.6Z"/><path class="cls-54" d="M109.8,297.59a2,2,0,0,0,2-2V293.9a2,2,0,0,0-2-2h-7.38s3.85.87,3.77,2.83-5.27,2.83-5.27,2.83Z"/><path class="cls-54" d="M105.56,316.6a4.16,4.16,0,0,0,4.16-4.16V298.69H99.51s5.66,3.69,5.58,10-3.69,7.93-3.69,7.93Z"/><rect class="cls-70" x="691.73" y="292.13" width="16.69" height="62.81"/><rect class="cls-71" x="675.07" y="292.13" width="16.69" height="62.81"/><polygon class="cls-72" points="728.48 314.22 716.46 292.13 707.77 292.13 707.77 354.94 728.48 354.94 728.48 314.22"/><path class="cls-73" d="M704,344.38a4.19,4.19,0,1,1-4.19-4.18A4.18,4.18,0,0,1,704,344.38Z"/><path class="cls-74" d="M687.6,344.38a4.19,4.19,0,1,1-4.18-4.18A4.18,4.18,0,0,1,687.6,344.38Z"/></g></g></svg>