<svg xmlns="http://www.w3.org/2000/svg" viewBox="0 0 825.75 577.31"><defs><style>.cls-1{fill:#efefef;}.cls-2{fill:#ededed;}.cls-3{fill:#333;}.cls-4{fill:#35332e;}.cls-5{fill:#737771;}.cls-6{fill:#637ddb;}.cls-7{fill:#4164c9;}.cls-8{fill:#8398ff;}.cls-9{fill:#414042;}.cls-10{fill:#ffcdc2;}.cls-11{fill:#121e21;}.cls-12{fill:#22393d;}.cls-13{fill:#e0a4ab;}.cls-14{fill:#ff8c50;}.cls-15{fill:#ea5f2f;}.cls-16{fill:#ea7185;}.cls-17{fill:#ab98ed;}.cls-18{fill:#dcf;}.cls-19{fill:#1b2d37;}.cls-20{fill:#a7c3ea;}.cls-21{fill:#96b4e0;}.cls-22{fill:#688eba;}.cls-23{fill:#12b89f;}.cls-24{fill:#cce0ff;}.cls-25{fill:#dd6680;}.cls-26{fill:#9c7ff4;}.cls-27{fill:#121e20;}.cls-28{fill:#822abc;}.cls-29{fill:#a130dc;}.cls-30{fill:#ee4f89;}.cls-31{fill:#de2f7e;}.cls-32{fill:none;stroke:#333;stroke-miterlimit:10;stroke-width:3px;}.cls-33{fill:#d9d9d9;}.cls-34{fill:#e4e4e4;}.cls-35{fill:#dadada;}.cls-36{fill:#eee;}.cls-37{fill:#cacaca;}.cls-38{fill:#fff;}.cls-39{fill:#e3e3e3;}.cls-40{fill:#d0d0d7;}.cls-41{fill:#f6f6f6;}.cls-42{fill:#fbb040;}.cls-43{fill:#dedede;}.cls-44{fill:#bc5b35;}.cls-45{fill:#842f14;}</style></defs><g id="Layer_2" data-name="Layer 2"><g id="Layer_1-2" data-name="Layer 1"><rect class="cls-1" x="607.55" y="74.95" width="88.34" height="152.57"/><rect class="cls-1" x="707.25" y="74.95" width="88.34" height="152.57"/><rect class="cls-1" x="607.55" y="241.24" width="88.34" height="152.57"/><rect class="cls-1" x="707.25" y="241.24" width="88.34" height="152.57"/><path class="cls-2" d="M65.7,201.16v29H58.09v6.25h83.09v11.42h6.33V236.36h29.23v11.42h6.33V161.85h83V155.6h-9V122.49h10.09v-6.25H183.07v-11.8h-6.33v11.8H147.51v-11.8h-6.33v90.47H58.09v6.25ZM202.46,155.6V122.49H250.8V155.6Zm-19.39,0V122.49h13.06V155.6Zm-35.56,74.51V122.49h29.23V155.6h-.08v6.25h.08v68.26Zm-17.1,0v-29h10.77v29ZM72,201.16h52.05v29H72Z"/><polygon class="cls-3" points="593.11 404.07 606.87 404.07 625.76 571.81 618.55 571.81 593.11 404.07"/><path class="cls-4" d="M383.27,473.58H430a0,0,0,0,1,0,0v3.13a6.77,6.77,0,0,1-6.77,6.77H390a6.77,6.77,0,0,1-6.77-6.77v-3.13A0,0,0,0,1,383.27,473.58Z" transform="translate(11.7 -9.7) rotate(1.39)"/><ellipse cx="351.43" cy="566.19" rx="6.83" ry="6.75"/><ellipse class="cls-5" cx="349.38" cy="566.19" rx="6.83" ry="6.75"/><path d="M407.36,561.74c0,3.73-1.3,6.76-2.89,6.76-.79,0-3.26-.06-3.26-.06-.57-3,.27-11.55.27-13.45h3C406.06,555,407.36,558,407.36,561.74Z"/><ellipse class="cls-5" cx="401.48" cy="561.74" rx="2.16" ry="6.75"/><rect class="cls-4" x="401.21" y="481.4" width="6.97" height="73.59"/><path d="M398,481.4h.82v53.92l-53,14.95a1.8,1.8,0,0,0-1.22,1.5l-.54,3.47c-.34,2.13.53,4,1.5,4.09l8.22.62a2.06,2.06,0,0,0,.66-.05,2.89,2.89,0,0,0,2-2.35l.49-2.46a2.69,2.69,0,0,1,1.85-1.55l40.06-8.33V555h7v-9.82l40.25,8.37a2.67,2.67,0,0,1,1.84,1.55l.49,2.46a2.9,2.9,0,0,0,2,2.35,2.08,2.08,0,0,0,.66.05l8.22-.62c1-.06,1.84-2,1.5-4.09l-.54-3.47a1.79,1.79,0,0,0-1.22-1.5l-53.16-15V481.4h.82"/><ellipse cx="456.95" cy="566.19" rx="6.83" ry="6.75"/><ellipse class="cls-5" cx="454.9" cy="566.19" rx="6.83" ry="6.75"/><path d="M379.46,473.58h46.73a0,0,0,0,1,0,0v3.13a6.77,6.77,0,0,1-6.77,6.77H386.24a6.77,6.77,0,0,1-6.77-6.77v-3.13A0,0,0,0,1,379.46,473.58Z" transform="translate(11.69 -9.61) rotate(1.39)"/><rect x="409.24" y="428.99" width="12.95" height="24.38"/><path class="cls-6" d="M371.14,419.41l7.11,10.6s58.36,3.29,87.11-2.06a2.73,2.73,0,0,0,1.67-1c3.35-4.31,17.53-25.25,10.84-62.59-4.09-22.86,1.53-24.29,4.31-30.68a1.13,1.13,0,0,0-.31-1.29l-8.06-7.57-17.75,19.54,4.29,38.38-4.1,32.48Z"/><path class="cls-7" d="M344.48,462.26s-10.47,1-7.72,9.41a5.69,5.69,0,0,0,5.27,3.88l99.21,2.21s23.75-2.54,31.87-10.16c0,0,5.72-14.48-23.24-9.4Z"/><path class="cls-8" d="M427.4,470.26l-77.51-2a4.68,4.68,0,0,1-4-2.5h0a3.74,3.74,0,0,1,.41-4.13c11.13-13.36,29.11-14.2,35.69-14,2.62.07,5.24.07,7.86.05,10.6-.11,34.29.1,46.34,3.88l3.14,11.9Z"/><path class="cls-6" d="M427.4,470.26s-13.08-10.6,8.76-18.69c0,0,13.33.28,23.75,8.54,9.09,7.21-13.07,9.86-18.81,10.42-.76.07-1.52.16-2.27.24A39.38,39.38,0,0,1,427.4,470.26Z"/><path class="cls-8" d="M457.83,420a1.73,1.73,0,0,0,1.12-.71c2.35-3.32,13-20.61,6.16-53.5-4.86-23.48,2.68-34.68,8.77-39.71a.8.8,0,0,0-.47-1.42L392,322.33s-22.86,6.6-15.24,43.43c6.28,30.34-2.27,47.4-5.48,52.47a1.27,1.27,0,0,0,.9,1.93C381.4,421.49,420.94,426.47,457.83,420Z"/><path class="cls-9" d="M414.45,323.19a23,23,0,0,0,10.44-1.92c5.4-2.4,9.48-9.28,9.8-11.28s-2.08-4.64-6.68-2.88S414.45,323.19,414.45,323.19Z"/><path class="cls-10" d="M372.93,525.76s-1.2,16-4.62,24-5.9,15.08-5.9,15.08,5,5.23,12.67-.23,13-23.66,13-23.66c-.51,1.91-2.36-7.15.73-17.54C389.18,522.34,372.93,525.76,372.93,525.76Z"/><path class="cls-11" d="M388.15,539.05s3.87,18,1.53,25.7c0,0-6.52,4.54-6-2.6,0,0-17.29,20.18-24.35,14s4.24-13.74,4.24-13.74S376.38,567.4,388.15,539.05Z"/><path class="cls-11" d="M376.29,465.33s-.64,25-2.08,38.72-3,27.1-3,27.1,9.34,3.78,18.14-.54c0,0,4.51-12.16,5.79-17.76s8.48-42.08,8.48-45.76c0,0,18.88,1.49,24.64-9.09s-9-36.34-31.2-31.38-20.8,16.16-22.88,25S376.29,465.33,376.29,465.33Z"/><path class="cls-10" d="M340.61,493.17s-8,13.92-14.55,19.68-11.84,11-11.84,11,2.24,6.88,11.52,5.28,19-10.95,19-10.95S355,498.61,356,498,340.61,493.17,340.61,493.17Z"/><path class="cls-12" d="M448.53,425.9s18.68,12.24,6.58,29S425.73,466.4,415.83,458s-22.89-24.18-30.13-16.5-9.17,31.67-9.17,31.67-12.72,24.44-22.8,29.86c0,0-12.48-3.52-16.55-11,0,0,19.43-32.49,23.27-40.4s14.84-32.64,33.94-37.68S448.53,425.9,448.53,425.9Z"/><polygon class="cls-13" points="403.81 316.79 401.69 353.66 416.13 361.02 429.09 334.46 423.79 310.53 403.81 316.79"/><path class="cls-14" d="M385.73,362.3c3.54,23,6.82,45.55,1.12,54.24,0,0,13.72-1.65,26.56.8,24,4.57,43.64,16.88,43.64,16.88-10.26-14.94-9-58.8-9.56-98.11l-28-1.05-5.76,17.64s-2.13-17-5-20.29-18.27,5.73-20.9,10.69S385.73,362.3,385.73,362.3Z"/><polygon class="cls-15" points="413.54 356.62 412.97 415.18 415.39 415.18 414.62 357.7 413.54 356.62"/><path class="cls-15" d="M399.81,337.47l8.88,7.79s-.4-10.44,1.12-12l-7.6-6.3Z"/><path class="cls-14" d="M398.93,326.3s-8.24,1-10.64,3.36-24.48,36.16-28.48,46.56-4,13.6,3.52,17.28a72.8,72.8,0,0,0,11.24,4.69l29.24-63.89Z"/><path class="cls-10" d="M402.81,321.27a21.41,21.41,0,0,0,15,1.52c8.71-2.17,12.24-6.2,14.22-14.6s.47-20-1.41-22.44-17.85-11.4-24.09-4.44-8.28,8.52-9.36,14.4S398,317.31,402.81,321.27Z"/><path class="cls-14" d="M433.79,325.67s21.06,7.83,23.62,13.59,6.55,60.16,1.12,65.6-13.12,5.6-21.28-9.92-13.06-28-13.06-28,4.06-24.47,5-27.52S433.79,325.67,433.79,325.67Z"/><path class="cls-13" d="M421.77,323.32s-2-4.83-.27-5.42,3.08,1.38,3.08,1.38-1.65-1.22-2.71-.84S421.77,323.32,421.77,323.32Z"/><polygon class="cls-15" points="420.21 345.74 419.49 335.06 426.04 330.31 424.58 344.36 420.21 345.74"/><path class="cls-9" d="M415.39,284.6s3.1,12.53,18.16,16.58c0,0-1.52,17.11-10.78,20.9l27.4,11.11s-4.8-35.73-8.64-45.81-12.36-16.19-25.92-14.15c0,0-14.56,2.75-18.06,16.57-5.45,21.58,6.26,42.43-4.26,62.86,0,0,15.29-7.48,16.13-29.44,0,0-7.34-2.67-7.87-12.22-.37-6.72.14-15.34.14-15.34S415,290.48,415.39,284.6Z"/><path class="cls-15" d="M396,372.26l13.13,15.6-6.57-4.8-8.11-9.36S394.08,372.26,396,372.26Z"/><path class="cls-15" d="M409.41,403.26l-1.18-13.94S408.29,399.26,409.41,403.26Z"/><polygon class="cls-15" points="411.41 391.58 414.22 397.02 408.82 393.5 411.41 391.58"/><path class="cls-10" d="M383.89,384.7s5.92,2.8,8.4,1.92,8.24-5.52,10.72-3.84,7,3.6,9.12,7.52a1.55,1.55,0,0,1-.72,1.84s1.36,3.2-2,3.52a5.84,5.84,0,0,1-5.6.64s-.24,1.84-4.56,1.28-19.54.11-19.54.11Z"/><path class="cls-10" d="M435.21,356.78s-2.64-8.88,0-13.68,7.2-10.84,1-16.39c0,0,1-3.52-3.6-4.12a3.41,3.41,0,0,0-4.56-1.32,2.47,2.47,0,0,0-3.12-1.44s-4.08-2.88-3.48.36-.6,7.08.72,8.4,1.8,2.63,1.32,6.71,1.32,21.36.72,27C424.17,362.3,431.13,362.3,435.21,356.78Z"/><path class="cls-13" d="M436.17,326.71a11.78,11.78,0,0,0-4.47.7,8.83,8.83,0,0,0-2,1,8.57,8.57,0,0,0-1.66,1.46h0a.33.33,0,0,1-.46,0l0-.06a4.64,4.64,0,0,1-.87-2.58,2.79,2.79,0,0,1,.37-1.37,3.34,3.34,0,0,1,.95-1,13.93,13.93,0,0,1,2.2-1.37,16.91,16.91,0,0,1,2.38-1,25.22,25.22,0,0,0-2.21,1.26,14.26,14.26,0,0,0-2,1.48,3.69,3.69,0,0,0-.77.88,2.3,2.3,0,0,0-.24,1.07,4.22,4.22,0,0,0,.76,2.19l-.52,0a8.4,8.4,0,0,1,1.82-1.54,8.22,8.22,0,0,1,2.16-1,10.15,10.15,0,0,1,2.31-.39A9,9,0,0,1,436.17,326.71Z"/><path class="cls-13" d="M427.05,326.71a4.26,4.26,0,0,1-1.17.4,2.23,2.23,0,0,1-1.32-.09,1.25,1.25,0,0,1-.79-1.25,3.12,3.12,0,0,1,.53-1.26,9.83,9.83,0,0,1,1.7-1.82,11.77,11.77,0,0,1,2-1.42c-.54.62-1.1,1.2-1.64,1.8a16.93,16.93,0,0,0-1.51,1.82,2.56,2.56,0,0,0-.45.95c0,.07,0,.12,0,.19a1.67,1.67,0,0,0,.08.2.86.86,0,0,0,.31.32,2.21,2.21,0,0,0,1.06.23A8.13,8.13,0,0,0,427.05,326.71Z"/><path class="cls-13" d="M429.46,328.21c0,.54,0,1.05,0,1.55a4.71,4.71,0,0,0,.24,1.4,1.47,1.47,0,0,0,.84.9,4.71,4.71,0,0,0,1.47.24,2.54,2.54,0,0,1-1.62.27l-.22-.05-.21-.1a1.12,1.12,0,0,1-.38-.26,1.89,1.89,0,0,1-.51-.75,3.44,3.44,0,0,1-.14-1.67A4.32,4.32,0,0,1,429.46,328.21Z"/><path class="cls-13" d="M430.89,331.52a7.52,7.52,0,0,1,1-.66,3.42,3.42,0,0,1,1.17-.44.87.87,0,0,1,.7.2,1,1,0,0,1,.24.69,2.76,2.76,0,0,1-.07.65,6.32,6.32,0,0,1-.22.61,8.54,8.54,0,0,1-1.43,2c-.53.61-1.08,1.18-1.62,1.77a25.83,25.83,0,0,0-3,3.65,10,10,0,0,0-1.64,4.37c0-.39,0-.8,0-1.2a11.87,11.87,0,0,1,.22-1.19,8.7,8.7,0,0,1,.41-1.15,10.14,10.14,0,0,1,.53-1.1,19.75,19.75,0,0,1,2.94-3.84l1.64-1.73a10.59,10.59,0,0,0,1.44-1.81,4.46,4.46,0,0,0,.22-.5,2.5,2.5,0,0,0,.11-.53c0-.37-.12-.57-.51-.56A5.77,5.77,0,0,0,430.89,331.52Z"/><path class="cls-13" d="M424.89,319.83l-.4,1.3a8.1,8.1,0,0,0-.3,1.25,5.2,5.2,0,0,0-.07,1.24,5.34,5.34,0,0,0,.34,1.27,2.23,2.23,0,0,1-.85-1.16,3.28,3.28,0,0,1-.09-1.46,4.18,4.18,0,0,1,.48-1.35A3.74,3.74,0,0,1,424.89,319.83Z"/><path class="cls-15" d="M426.67,280.93s7.32,4.8,6.48,20.16l4,.48S436.87,283.93,426.67,280.93Z"/><rect class="cls-15" x="429.09" y="298.59" width="10.08" height="14.16" rx="5.04"/><path class="cls-15" d="M415.65,323.92a.34.34,0,0,1-.34-.3.35.35,0,0,1,.31-.37c15.57-1.4,18.15-13.21,18.18-13.33a.33.33,0,0,1,.39-.26.32.32,0,0,1,.27.39c0,.13-2.72,12.43-18.78,13.87Z"/><rect class="cls-15" x="409.81" y="321.27" width="6.32" height="5.44" rx="2.72"/><path class="cls-15" d="M421.89,362.3s9.12-1.92,15.6-7.32l4.92,8.64s-11.73,7.56-16.37,8.16C426,371.78,423.09,363.5,421.89,362.3Z"/><path class="cls-15" d="M377.61,379.58l9.24,3.6s-4.56,12.48-5.16,18.6c0,0-3-2.52-9.12-4.2C372.57,397.58,376.53,381,377.61,379.58Z"/><path class="cls-15" d="M393.87,356l-12,26.27A66.85,66.85,0,0,1,393.87,356Z"/><path class="cls-15" d="M369.41,375.58s3.16,4.36,10.3,4.82Z"/><path class="cls-15" d="M441.57,349.18l-2.27,14.88S438.37,352.7,441.57,349.18Z"/><path class="cls-15" d="M437.41,356.62s16.8,21.37,20.16,30.16Z"/><path class="cls-15" d="M426,371.78l10.47,21.76s6.73,14,13.41,14.49a22.21,22.21,0,0,1-7.3-6.25C437.77,395.44,432.28,384.48,426,371.78Z"/><path class="cls-13" d="M411.41,392.14s-5.6-6.56-12.48-5.52C398.93,386.62,408.53,389.1,411.41,392.14Z"/><path class="cls-13" d="M409.41,395.66s-4.58-5.88-10.48-5C398.93,390.68,407.19,392.84,409.41,395.66Z"/><path class="cls-13" d="M403.81,396.3a5.91,5.91,0,0,0-4.24-1.54Z"/><path class="cls-13" d="M411.41,389.17s-5.92-5.63-9.72-6.11C401.69,383.06,408.67,386.23,411.41,389.17Z"/><path class="cls-11" d="M348.59,511.73s-4.3,17.92-9.74,23.84c0,0-7.83,1.28-4.31-5,0,0-24.32,10.72-28,2.08s9.76-10.56,9.76-10.56S325.71,532.21,348.59,511.73Z"/><path class="cls-9" d="M417.54,299.59a2,2,0,0,1,.55-1.54,2.13,2.13,0,0,1,1.76-.62,2.53,2.53,0,0,1,1.55.83,4,4,0,0,1,.41.69,3,3,0,0,1,.17.8,5,5,0,0,1-.75-.2c-.23-.08-.44-.13-.63-.21a8.32,8.32,0,0,0-.94-.23,2.46,2.46,0,0,0-.83.05A9.61,9.61,0,0,0,417.54,299.59Z"/><path class="cls-9" d="M404.76,298.58a1.93,1.93,0,0,1,.55-1.55,2.15,2.15,0,0,1,1.76-.62,2.49,2.49,0,0,1,1.54.84,4,4,0,0,1,.41.68,2.66,2.66,0,0,1,.18.8,3.64,3.64,0,0,1-.76-.2,6.48,6.48,0,0,1-.62-.2,6.59,6.59,0,0,0-.94-.23,2.42,2.42,0,0,0-.83,0A11,11,0,0,0,404.76,298.58Z"/><ellipse class="cls-9" cx="419.4" cy="303.91" rx="1.5" ry="1.19" transform="translate(31.65 647.28) rotate(-77.45)"/><ellipse class="cls-9" cx="406.32" cy="302.39" rx="1.5" ry="1.19" transform="translate(22.89 633.33) rotate(-77.45)"/><path class="cls-16" d="M417.4,314.24c-1.3-1.31-9.7-.57-9.46.43a6.3,6.3,0,0,0,4.91,3.11C415.44,317.74,418.16,315,417.4,314.24Z"/><path class="cls-13" d="M411.35,303.44a19.19,19.19,0,0,1-.1,3.6,5.36,5.36,0,0,0,0,.68s0,.17.06.29l.07.33a3.29,3.29,0,0,0,.18.66l.39.89a1.76,1.76,0,0,1-1.09-.11,2,2,0,0,1-.9-.77,3,3,0,0,1-.25-.51,2.52,2.52,0,0,1-.15-.58,3.81,3.81,0,0,1,.08-1.11,7.11,7.11,0,0,1,.63-1.8A6.81,6.81,0,0,1,411.35,303.44Z"/><path class="cls-9" d="M419,302.63a2.21,2.21,0,0,1,1.38-.08,2.13,2.13,0,0,1,1.17.75,2.13,2.13,0,0,1-1.38.07A2.09,2.09,0,0,1,419,302.63Z"/><path class="cls-9" d="M404.46,301.27a2.26,2.26,0,0,1,2.64,0,2.26,2.26,0,0,1-2.64,0Z"/><path class="cls-17" d="M647.17,464.53H790.05l6-50.49s.45-6.45-16.19-9c-10.69-1.63-33.45-.24-48.35,1a40.72,40.72,0,0,0-22.65,9.13c-7.77,6.41-20.1,14.75-33.65,16.89-22.79,3.6-32.69,10.05-32.69,10.05l.3,22.45Z"/><rect class="cls-3" x="636.27" y="485.25" width="154.12" height="8.4"/><path class="cls-3" d="M648.44,571.91h-5.65a3,3,0,0,1-3-3.16l3.78-75.1h11.69L651.45,569A3,3,0,0,1,648.44,571.91Z"/><path class="cls-3" d="M711,571.91h-5.67a3,3,0,0,1-3-2.94l-1.89-75.32h11.69L714,568.82A3,3,0,0,1,711,571.91Z"/><path class="cls-3" d="M736.49,571.91h-5.66a3,3,0,0,1-3-2.94l-1.89-75.32h11.69l1.89,75.17A3,3,0,0,1,736.49,571.91Z"/><path class="cls-17" d="M174.26,464.36H31.38l-6-50.49s-.45-6.44,16.2-9c10.69-1.64,33.44-.24,48.35,1A40.63,40.63,0,0,1,112.53,415c7.77,6.41,20.1,14.75,33.65,16.89,22.79,3.59,32.69,10,32.69,10l-.3,22.45Z"/><rect class="cls-3" x="31.04" y="485.09" width="154.12" height="8.4" transform="translate(216.2 978.57) rotate(-180)"/><path class="cls-3" d="M173,571.74h5.65a3,3,0,0,0,3-3.16l-3.77-75.1h-11.7L170,568.87A3,3,0,0,0,173,571.74Z"/><path class="cls-3" d="M110.44,571.74h5.66a3,3,0,0,0,3-2.94L121,493.48H109.31l-1.89,75.18A3,3,0,0,0,110.44,571.74Z"/><path class="cls-3" d="M84.94,571.74H90.6a3,3,0,0,0,3-2.94l1.89-75.32H83.81l-1.89,75.18A3,3,0,0,0,84.94,571.74Z"/><path class="cls-3" d="M781.61,571.91H776a3,3,0,0,1-3-2.94L771,493.65h11.7l1.88,75.17A3,3,0,0,1,781.61,571.91Z"/><path class="cls-18" d="M644.55,464.37l39.59.16,0,20.72H631.7V455.53a22.31,22.31,0,0,1,21.07-22.28L674.65,432l-19,4.8c-8.92,1.72-12,6.48-11.91,12.24Z"/><path class="cls-3" d="M39.82,571.74h5.66a3,3,0,0,0,3-2.94l1.89-75.32H38.69l-1.88,75.18A3,3,0,0,0,39.82,571.74Z"/><path class="cls-18" d="M176.88,464.21l-39.59.15.05,20.73h52.4V455.37a22.32,22.32,0,0,0-21.07-22.28l-21.89-1.22,19,4.79c8.92,1.73,12.06,6.48,11.91,12.25Z"/><polygon class="cls-3" points="290.4 404.07 276.65 404.07 257.75 571.81 264.96 571.81 290.4 404.07"/><path class="cls-10" d="M600.43,524l2.23,25.24,15.2-.39s1.29-30,.91-30.6S600.43,524,600.43,524Z"/><path class="cls-19" d="M622.18,570.7c-14.79.43-33,1.09-51.6,1.45,0,0-8.18-13.73,10.37-15.09s17.76-11.83,17.76-11.83c5.75-.49,13-.45,21.89-1.2Z"/><path class="cls-10" d="M565.77,523l-15.68,19.9L561.41,553s21.54-21,21.66-21.64S565.77,523,565.77,523Z"/><path class="cls-19" d="M552.29,570.27c-11.24-9.62-25.18-21.35-39.21-33.57,0,0,3.15-15.67,17.82-4.23s21.1,3.16,21.1,3.16c4.59,3.5,10,8.41,17,13.81Z"/><path class="cls-12" d="M681.26,425.71s-47.89,3.09-60.65,5.76c-11.22,2.35-14.92,4.27-17.11,27.22-2,21.25-5.62,54.17-7.24,69.46a218.4,218.4,0,0,0,26.93.14l6-66Z"/><path class="cls-11" d="M677.22,417s-1.35,9.69-6,10.4-41.28,8.76-53.11,18.15-44,57.71-61.65,78.67c0,0,10.84,15.44,22.1,17.13,0,0,49.87-68.38,55.22-69s82.86,6.34,93.51-21.17C735.83,429.15,677.22,417,677.22,417Z"/><polygon class="cls-11" points="587.27 393.7 589.72 394.12 568.47 349.15 556.37 345.61 556.7 346.36 576.91 391.89 587.27 393.7"/><rect class="cls-12" x="576.91" y="391.9" width="54.33" height="4.46"/><path class="cls-13" d="M658.13,380s-3.47,3.75-11.92,3.85-24,.65-27.77-.76,12.38,7.32,22,7.89,19.89,2.39,18.57-3S658.13,380,658.13,380Z"/><path class="cls-10" d="M656.91,386.49s-19.75.87-28.13-2-12.54-5.46-15-4.86a15.82,15.82,0,0,0-8.29,4.51c-1.83,2-2.64,5.44-.92,5.94,0,.74.92.94,1.49.6.24.77,1.65.76,2.08,0,1.08.45,1.56-1.68,3.24-2.78,4.29-2.77,5.43,1.55,8.38,3.45s9.51,2.18,14.5,3.8,17.1,6.55,21.19,6.34Z"/><path class="cls-20" d="M704.46,335.34s14.13,6,15.88,7.47c2.73,2.25,11.11,57.6,10.26,73.08s1.66,36.27-7.91,41.62c0,0-7.57-31.06-48.25-32.61,0,0,5.65-9.39,2.69-23.6s20.81-39.11,20.18-45.91S704.46,335.34,704.46,335.34Z"/><path class="cls-21" d="M678.4,370.26s-3.66,7.22-13.94,9.29l-.1,8.41s17.87-7.82,16.85-12.07S678.4,370.26,678.4,370.26Z"/><polygon class="cls-22" points="656.72 383.4 657.29 377.67 664.89 377.67 664.89 387.15 656.72 387.15 656.72 383.4"/><path class="cls-21" d="M689.14,339.55l-8.45,7,2.91,5.12s7.57-5.85,8.54-5.63Z"/><path class="cls-13" d="M683.61,336.48s5.77,6.36,5.49,13c0,0,12.73-6,13.94-14.84l-14.37-22.07s-18.72,4.36-13.79,13.79S683.61,336.48,683.61,336.48Z"/><path class="cls-10" d="M652.88,312.74s10,14.88,8.53,19.95-.75,5.57,2.54,5.1c0,0,3.85,8.35,9.19,7.79s12-5.91,13.61-11.07a80.7,80.7,0,0,0,2.25-8.82s4.46-1.73,2.77-7.83-8-20.42-19.38-18S653.06,301,652,305.7,652.88,312.74,652.88,312.74Z"/><path class="cls-23" d="M707.9,333.33s13.52.58,20.32,18.33c9.41,24.53,6.13,99.18-3.68,104.58,0,0-8.29-32.18-49-33.73,0,0,4.24-9.6,1.28-23.82s22.21-39.46,21.58-46.26S707.9,333.33,707.9,333.33Z"/><path class="cls-23" d="M681.26,412.62l-3.46-6.91s-3.74-45.69,6.14-54.42,12.94-17,22.72-17.92c10-.93,17.28,15.73,17.28,15.73Z"/><path class="cls-9" d="M691.72,323s4.32,3.56,3.57,6.66c0,0,8.85-6.38,7.63-20.12-1-11.49-6.6-18.54-16.08-18.73,0,0-15-9.2-27.87.75s-13.32,28.34,0,30.87c0,0-5.16-9-4.69-13.23,0,0,.47,14,16.52,11.64,0,0-8.17-6.76-8.73-10.23,0,0,3.54,5.34,12.11,5.16,4.22-.09,11.82,4,10,8.35,0,0,2.16-4.5,1.31-7.6S694.35,314.14,691.72,323Z"/><path class="cls-20" d="M694.59,347.6s17.64-13.05,25.47,2.95c6.4,13.07-6,32.09-9.52,37.06a.84.84,0,0,1-1.46-.17l-6.47-16.06Z"/><path class="cls-24" d="M660.8,384.19s13.38-4.22,20.84-14.35,15.76-29.7,29.7-25.48c12.81,3.88,4.8,30.49,0,38.25a.84.84,0,0,1-1.54-.26l-1.73-8.43s-18.72,24.21-26.18,28.15S659,403.2,659,403.2Z"/><path class="cls-20" d="M655.69,382.65s-1,19.87-2.44,21.52c0,0,6.85,1.56,9.29.43,0,0,2.72-18.76,1.69-22.42Z"/><polygon class="cls-12" points="579.17 391.89 558.95 346.36 556.37 345.61 576.91 391.89 589.72 394.12 589.52 393.7 579.17 391.89"/><polygon class="cls-11" points="240.87 393.7 238.42 394.12 259.67 349.15 271.78 345.61 271.44 346.36 251.23 391.89 240.87 393.7"/><rect class="cls-12" x="196.89" y="391.9" width="54.33" height="4.46"/><polygon class="cls-12" points="248.97 391.89 269.19 346.36 271.78 345.61 251.23 391.89 238.42 394.12 238.62 393.7 248.97 391.89"/><path class="cls-9" d="M661.09,323.25a2.24,2.24,0,0,1,.91-1.65,2.88,2.88,0,0,1,1.91-.59,3.16,3.16,0,0,1,1.8.7,3.69,3.69,0,0,1,.63.68,3.51,3.51,0,0,1,.38.86,5.75,5.75,0,0,1-.9-.1c-.27,0-.52-.09-.75-.12-.47-.08-.88-.13-1.26-.16A8.06,8.06,0,0,0,661.09,323.25Z"/><ellipse class="cls-9" cx="664.28" cy="328.03" rx="0.84" ry="1.66" transform="translate(-69.63 226.81) rotate(-18.43)"/><path class="cls-25" d="M666.19,339.41a8.11,8.11,0,0,1,1.23-1.08,2.35,2.35,0,0,1,.83-.41,2,2,0,0,1,.88,0c.37.07.82.16,1.56.34a2.13,2.13,0,0,1-.36,1.8A2.37,2.37,0,0,1,669,341a2.32,2.32,0,0,1-1.58-.18A2.38,2.38,0,0,1,666.19,339.41Z"/><path class="cls-24" d="M701.9,330.18l-15.41,12.64,3.31,5.81s14.54-13.47,15.54-14.07Z"/><path class="cls-13" d="M604.51,389.62a7.59,7.59,0,0,1,.71-3,6.71,6.71,0,0,1,1.94-2.49,14.2,14.2,0,0,1,2.67-1.6,12.78,12.78,0,0,1,2.94-.95c-.93.42-1.83.89-2.71,1.39a21.43,21.43,0,0,0-2.52,1.65,7.8,7.8,0,0,0-1.89,2.22A11.84,11.84,0,0,0,604.51,389.62Z"/><path class="cls-13" d="M606.07,390.21a6.77,6.77,0,0,1,.56-2.65,6.24,6.24,0,0,1,1.62-2.25,11.65,11.65,0,0,1,2.3-1.47,9.31,9.31,0,0,1,2.56-.86,24.62,24.62,0,0,0-2.32,1.28,19.46,19.46,0,0,0-2.13,1.52,7.2,7.2,0,0,0-1.59,2A11.68,11.68,0,0,0,606.07,390.21Z"/><path class="cls-13" d="M608.26,390.26a4.88,4.88,0,0,1,.33-2,4.94,4.94,0,0,1,1.1-1.75,7,7,0,0,1,1.67-1.18,4.16,4.16,0,0,1,1.94-.57,7.78,7.78,0,0,0-1.68,1,11.9,11.9,0,0,0-1.48,1.2A8.65,8.65,0,0,0,608.26,390.26Z"/><path class="cls-13" d="M687.28,323.08a1.3,1.3,0,0,0,1,.23,1.44,1.44,0,0,0,.8-.52A5.27,5.27,0,0,0,690,321a4.16,4.16,0,0,0,.19-1.94,2.49,2.49,0,0,0-.88-1.6,1.33,1.33,0,0,0-1.58-.21,2.51,2.51,0,0,0-.79,1.64,3.88,3.88,0,0,0,.17,2c.11.29.29.62.58.67s.54-.33.71-.62a2.35,2.35,0,0,1-.23.48.62.62,0,0,1-.48.3.72.72,0,0,1-.53-.25,1.68,1.68,0,0,1-.33-.46,4.18,4.18,0,0,1-.37-2.15,4,4,0,0,1,.24-1.08,2,2,0,0,1,.7-1,1.68,1.68,0,0,1,1.21-.28,2.25,2.25,0,0,1,1.09.48,3.14,3.14,0,0,1,1.08,2,4.4,4.4,0,0,1-.33,2.19,5.3,5.3,0,0,1-1.14,1.84,1.64,1.64,0,0,1-1,.47A1.25,1.25,0,0,1,687.28,323.08Z"/><path class="cls-13" d="M686.73,320.6a1.74,1.74,0,0,1,0-.75.77.77,0,0,1,.22-.36.68.68,0,0,1,.4-.19,1.21,1.21,0,0,1,1.29.94,2.14,2.14,0,0,1-.28,1.54,1.68,1.68,0,0,1-1.18.9,2,2,0,0,0,.84-1.07,2.16,2.16,0,0,0,.17-1.26.88.88,0,0,0-.81-.71C687,319.6,686.81,320.14,686.73,320.6Z"/><polygon class="cls-3" points="530.79 404.07 544.54 404.07 563.44 571.81 556.23 571.81 530.79 404.07"/><path class="cls-18" d="M684.09,485.25s-7-38.38,12.3-43.92,61.85-7.62,61.85-7.62l-55,21-4.78,30.58Z"/><path class="cls-26" d="M696.09,485.25s-6.45-35.53,14.84-40,55.92-13.79,55.92-13.79,13.14-2,27.57-14.36a3.71,3.71,0,0,0,1.24-3.45c-.39-2.19-2.36-5.33-9.71-7.3,0,0,16.66-1.35,16.36,14.54,0,0-5.82,40.54-8.74,50.48a4.09,4.09,0,0,0,.41,3.24c1.27,2.16,1.53,6.27-.22,9.66a1.88,1.88,0,0,1-1.67,1Z"/><path class="cls-27" d="M148.81,527.34s-1.47-3.88-14.94,17.88a2.73,2.73,0,0,0,1.95,3.74l3.9-3.69s13.6,33.44,22.48,29-.31-20.52-.31-20.52Z"/><path class="cls-27" d="M206.55,550.27s-6.09,2.65,7.2,25.05a2.74,2.74,0,0,0,4.19.49l-.87-5.3s35.15,7.47,36.61-2.35c.95-6.39-4.35-7.21-9-8.74-4.24-1.4-8.14-2.52-8.14-2.52Z"/><path class="cls-13" d="M176.84,470.63c-22.51,31.68-20.81,42.64-31,63.2,0,0,9.79,29.62,18.74,25.66,0,0-8.74-17.06-6.25-22.27s32.05-41.41,33.3-60.14S176.84,470.63,176.84,470.63Z"/><path class="cls-10" d="M184.34,451.43s13.14,5.23,16.47,14.26c2.22,6,6.09,33,7.67,44.57,1.2,8.81,5.45,40.44,14.33,42.66,13.23,3.77,26,7.36,26,7.36s1,10.59-39.81-3.62c0,0-23.31-30.86-23.51-69.64,0,0-10.62-5.2-14.57-14.77S184.34,451.43,184.34,451.43Z"/><path class="cls-27" d="M97.87,429.07s-9.75,33.45,9.61,42,66.8,9.78,68.26,10.61l12.55-30.24s-19.15-11.05-25.66-15c-3.58-2.19-4.39-3.35-4-13Z"/><path class="cls-13" d="M198.51,375.87s9.62-.61,13.92-1.45,9.78-2.7,12.14-1,7.52,5.9,7.3,6.63-35,3.47-35,3.47Z"/><path class="cls-10" d="M202.22,381.08s7.33-.71,11.13-2.22,12.59-3.53,14.57-2.08,4.21,3.54,4.21,3.54.94,1.67-.62,1.46c0,0,1.09.93,0,1.56a1.21,1.21,0,0,1,.26,2s2.13,2.73,1.46,3.51-1.93-1.19-3.07-1.35-9.13.8-13.48-.83c-3.27-1.22-12.35,5.32-19.79,2S202.22,381.08,202.22,381.08Z"/><path class="cls-28" d="M187.11,373.31l12.25-1,.73,6.59h2.28a57.71,57.71,0,0,1,3.13,15l-13.07,4.55S183.61,379.84,187.11,373.31Z"/><path class="cls-29" d="M109.7,374.84l1.11,24.56s-10.83,21.09-14,33.3c0,0,40,7.68,61.89-.65l.69-27.66L194.61,398l-3.33-16.93h-1.95l-2.22-7.77s-19.43,3.69-26.22-9.81-10.84-48.87-23.25-46-24.34,17.28-27.94,30S109.7,374.84,109.7,374.84Z"/><path class="cls-28" d="M132.45,322.88s10.61,9.78,16.13,30l4.68,3.24L152,362.42l13.74,16.44s-9.37-41.2-11.24-47.44-4.47-21-8.32-17.69S132.45,322.88,132.45,322.88Z"/><path class="cls-30" d="M159.15,343.35s7.64,15.95,8,18.87-1.45,16.64-1.45,16.64l-11.24-35.51Z"/><path class="cls-31" d="M148.58,327.15a50.49,50.49,0,0,1,5.93,16.2s3.88,2.08,5.55,0,3.84-15.57-1.62-18.12S148.58,327.15,148.58,327.15Z"/><path class="cls-11" d="M165.54,322s-4.27,11.44-1.77,15.6,6.66,4.17,2.5,13.12c0,0,7.49,9.05.31,18.41,0,0,1.2-4.45-3.59-13-2.25-4-5.05-10.42-4-15.93a64.42,64.42,0,0,0,1.15-8.74h-2.71s-4-8.43,0-10.72S165.54,322,165.54,322Z"/><path class="cls-10" d="M175.11,302.59s-1.59,3.28.86,7.51c1.37,2.37,2,3.73-1.28,4.14-1.39.17-1.16,2.88-1.41,4.26-.42,2.37-.32,4.71-3.89,5.22A18.45,18.45,0,0,1,159,322l-1.56,9.47a22,22,0,0,0-8.84-4.27S145.46,319,142.34,317c0,0,25.49-35.11,29.13-31.16S177,297.39,175.11,302.59Z"/><path class="cls-11" d="M170.46,288.41s4.55.6,4.58,12.15c0,1.74-.59,3.35-.39,5.61,0,0,12.74-17.63-8.49-28.45S132.87,289,128.29,299.09s-5.55,21.5-11.1,24.42-6,6.92-5.27,11.79c1,6.38-11.89,13.54-9.72,19.56,3.06,8.47-9.25,10.35-4.16,15.54,7.08,7.22-.14,10.68-.14,10.68s8.88-.13,11.8-6.24c0,0,.19-28.35,7.9-38.57,10.27-13.6,31.24-11.77,42.48-27.45C168,297.77,170.46,288.41,170.46,288.41Z"/><path class="cls-28" d="M159.37,404.39a29.77,29.77,0,0,1-11,1.92,22.47,22.47,0,0,1-5.63-.82,17.6,17.6,0,0,1-5.22-2.42,19.77,19.77,0,0,1-7-9.06c-.2-.43-.34-.89-.5-1.34s-.32-.91-.44-1.37c-.23-.92-.51-1.85-.68-2.76-.38-1.83-.79-3.65-1.12-5.48l-.5-2.75-.45-2.76c-.31-1.84-.56-3.68-.82-5.53-.47-3.69-.92-7.39-1.22-11.1a221.18,221.18,0,0,1-.94-22.29c.69,7.4,1.46,14.78,2.38,22.14l.72,5.51c.26,1.83.52,3.66.8,5.49s.55,3.66.88,5.48l.46,2.74.52,2.73c.31,1.82.7,3.62,1.07,5.44.17.92.42,1.76.63,2.65.11.44.27.85.4,1.28s.27.87.45,1.27a18.71,18.71,0,0,0,6.18,8.53,19.53,19.53,0,0,0,10.07,3.51A32.84,32.84,0,0,0,159.37,404.39Z"/><path class="cls-28" d="M145.7,356.09q1.13,3.48,2.14,7t2,7c.64,2.34,1.3,4.69,1.91,7s1.24,4.7,1.83,7.05l-.8-.67c1.6.14,3.23.22,4.85.28s3.24.14,4.86.15c3.24,0,6.49,0,9.72-.16.82,0,1.62-.08,2.43-.15s1.62-.09,2.42-.2l2.42-.26c.8-.1,1.59-.24,2.4-.36a45.27,45.27,0,0,0,9.39-2.46,35.39,35.39,0,0,1-9.19,3.41,68.44,68.44,0,0,1-9.75,1.54c-3.28.29-6.57.43-9.86.4s-6.56-.12-9.86-.43l-.65-.06-.15-.61c-.58-2.36-1.13-4.73-1.67-7.1s-1.07-4.74-1.6-7.11-1-4.75-1.49-7.13S146.12,358.49,145.7,356.09Z"/><path class="cls-28" d="M165.75,378.86a18.48,18.48,0,0,1-.53,3.5,17.56,17.56,0,0,1-1.14,3.34,20,20,0,0,1,1.67-6.84Z"/><path class="cls-13" d="M231.51,381.78a21.34,21.34,0,0,0-2.11-1.36,8,8,0,0,0-2.16-.83,5.72,5.72,0,0,0-2.26-.06,8.5,8.5,0,0,0-1.17.26c-.4.11-.78.29-1.23.39a7,7,0,0,1,.95-.93,5.36,5.36,0,0,1,2.56-1,5.14,5.14,0,0,1,1.41.11,5.44,5.44,0,0,1,2.46,1.25A5.33,5.33,0,0,1,231.51,381.78Z"/><path class="cls-13" d="M231.77,385.34c-1.53,0-2.92,0-4.34-.1l-2.13-.08a19.53,19.53,0,0,1-2.22-.21,8.54,8.54,0,0,1,4.39-.95,9.42,9.42,0,0,1,2.24.35A6,6,0,0,1,231.77,385.34Z"/><path class="cls-13" d="M231.51,383.34c-1.46-.26-2.76-.53-4.08-.64a16.31,16.31,0,0,0-2-.05c-.68,0-1.34.12-2.1.17a4.59,4.59,0,0,1,1.93-1.13,5.92,5.92,0,0,1,2.25-.23,6.75,6.75,0,0,1,2.18.57A5.28,5.28,0,0,1,231.51,383.34Z"/><path class="cls-9" d="M169.81,301.76c.48-.05.85-.09,1.16-.1a3.19,3.19,0,0,1,.75.06,5.47,5.47,0,0,1,.76.23c.15.06.31.14.5.2a3.38,3.38,0,0,0,.62.23,2.32,2.32,0,0,0,0-.7,2.22,2.22,0,0,0-.3-.62,2,2,0,0,0-1.24-.81,1.9,1.9,0,0,0-1.49.32A1.72,1.72,0,0,0,169.81,301.76Z"/><ellipse class="cls-9" cx="171.56" cy="305.19" rx="1.41" ry="0.96" transform="translate(-134.23 475.69) rotate(-89.8)"/><path class="cls-9" d="M172.07,304.11a1.55,1.55,0,0,0-.8-.45,1.61,1.61,0,0,0-.92,0,1.48,1.48,0,0,0,.8.45A1.61,1.61,0,0,0,172.07,304.11Z"/><path class="cls-16" d="M167.69,315c.58.05,1,.11,1.4.18a10.46,10.46,0,0,1,1.1.26,8.72,8.72,0,0,1,1.06.4,7,7,0,0,1,1.26.68,2.72,2.72,0,0,1-2.86.71,3.17,3.17,0,0,1-1.3-.79A2.28,2.28,0,0,1,167.69,315Z"/><path class="cls-13" d="M158.84,321.8s-3.77-3.65-4.58-6.77a75,75,0,0,1-9,5.4l3.51,7s5.27,1.05,8.66,4Z"/><line class="cls-32" x1="389.8" y1="394.73" x2="434" y2="394.73"/><path class="cls-33" d="M348.73,200.47l4,28.66h2.21a119.41,119.41,0,0,1,.27-12.79c-.74-7.38-2.56-13.9-6.48-15.86"/><path class="cls-34" d="M361.08,200.42c-3.61,2-5.24,8.52-5.87,15.91a119.41,119.41,0,0,0-.27,12.79h2.67l3.47-28.69"/><polyline class="cls-35" points="360.29 229.09 357.62 229.11 357.45 229.11 354.94 229.12 352.73 229.13 352.01 229.13 352.76 229.13 349.77 251.09 363.47 251.13 360.29 229.09"/><polyline class="cls-36" points="352.76 229.13 352.01 229.13 349.93 229.14 346.94 251.08 349.77 251.09 352.76 229.13"/><polyline class="cls-36" points="305.96 213.07 305.94 218.72 313.96 218.74 313.96 218.74 320.28 218.75 320.2 251.01 323.66 251.02 323.75 213.12 329.27 213.13 329.89 213.13 327.46 213.13 305.96 213.07"/><polyline class="cls-35" points="323.75 213.12 323.66 251.02 329.8 251.04 329.89 213.13 329.27 213.13 323.75 213.12"/><polyline class="cls-35" points="299.4 218.7 299.39 223 304.76 223.02 309.89 225.7 301.75 250.97 313.88 251 313.96 218.74 305.94 218.72 299.4 218.7"/><polyline class="cls-37" points="313.96 218.74 313.96 218.74 313.88 251 320.2 251.01 320.28 218.75 313.96 218.74"/><polyline class="cls-36" points="289.98 222.98 279.82 249.8 295.73 249.84 304.76 223.02 299.39 223 289.98 222.98"/><polyline class="cls-34" points="304.76 223.02 304.76 223.02 295.73 249.84 297.97 250.96 301.75 250.97 309.89 225.7 304.76 223.02"/><polyline class="cls-38" points="279.82 249.8 281.76 250.91 297.97 250.96 295.73 249.84 279.82 249.8"/><polyline class="cls-39" points="284.65 257.23 284.6 278.49 290.63 278.51 290.68 257.25 284.65 257.23"/><polyline class="cls-37" points="281.65 250.91 281.64 257.22 284.65 257.23 290.68 257.25 364.72 257.44 370.75 257.46 397.52 257.53 397.54 251.22 370.77 251.15 364.74 251.13 363.47 251.13 349.77 251.09 346.94 251.08 329.8 251.04 323.66 251.02 320.2 251.01 313.88 251 301.75 250.97 297.97 250.96 281.76 250.91 281.65 250.91"/><polyline class="cls-39" points="255.3 250.84 255.28 257.15 281.64 257.22 281.65 250.91 255.3 250.84"/><path class="cls-39" d="M364.72,257.44l-.05,21.26,6,0,.05-21.26-6,0m0-6.31h0l6,0h0l-6,0"/><rect class="cls-35" x="472.75" y="129.75" width="69.4" height="69.4"/><rect class="cls-1" x="478.99" y="135.99" width="56.92" height="56.92"/><rect class="cls-35" x="489.84" y="146.83" width="11.89" height="11.89"/><rect class="cls-35" x="501.5" y="158.5" width="11.89" height="11.89"/><rect class="cls-35" x="513.17" y="170.16" width="11.89" height="11.89"/><polyline class="cls-40" points="135.24 153.08 133.16 153.08 133.16 194.98 139.1 194.98 135.24 194.98 135.24 153.08"/><polyline class="cls-39" points="141.18 153.08 135.24 153.08 135.24 194.98 139.1 194.98 141.18 194.98 141.18 153.08"/><polyline class="cls-39" points="113.71 152.88 111.79 160.68 112.14 160.78 110.05 167.76 103.7 193.56 109.47 194.98 119.19 155.46 119.19 154.22 113.71 152.88"/><polyline class="cls-39" points="106.46 159.07 96.18 193.27 101.87 194.98 110.05 167.76 112.14 160.78 111.79 160.68 106.46 159.07"/><polyline class="cls-41" points="96.71 171.2 84.23 191.91 89.32 194.98 101.8 174.27 96.71 171.2"/><polyline class="cls-40" points="127.22 153.08 125.13 153.08 125.13 194.98 131.07 194.98 127.22 194.98 127.22 153.08"/><polyline class="cls-39" points="133.16 153.08 127.22 153.08 127.22 194.98 131.07 194.98 133.16 194.98 133.16 153.08"/><polyline class="cls-41" points="125.13 153.08 119.19 153.08 119.19 154.22 119.19 155.46 119.19 194.98 125.13 194.98 125.13 153.08"/><circle class="cls-42" cx="369.71" cy="127.79" r="13.96"/><path class="cls-12" d="M375.78,113.94a6.39,6.39,0,0,0-3-7.66V99.51h-6.06v6.77a6.39,6.39,0,0,0-3,7.66L326.41,129v4.5H413V129Z"/><rect class="cls-12" x="367.69" width="4.04" height="99.51"/><polyline class="cls-43" points="0 576.91 825.75 576.91 825.75 571.91 0 571.91"/><path class="cls-18" d="M137.34,485.09s7-38.38-12.3-43.93-61.85-7.62-61.85-7.62l55,21,4.78,30.59Z"/><path class="cls-26" d="M125.34,485.09s6.45-35.53-14.84-40-55.92-13.79-55.92-13.79-13.14-2-27.57-14.37a3.68,3.68,0,0,1-1.24-3.44c.4-2.2,2.36-5.33,9.72-7.31,0,0-16.67-1.35-16.37,14.55,0,0,5.82,40.54,8.74,50.48a4.09,4.09,0,0,1-.41,3.24c-1.27,2.16-1.52,6.26.22,9.66a1.88,1.88,0,0,0,1.67,1Z"/><polygon class="cls-3" points="233.1 404.07 219.35 404.07 200.46 571.81 207.67 571.81 233.1 404.07"/><rect class="cls-44" x="182.28" y="396.19" width="461.66" height="18.54"/><rect class="cls-45" x="568.04" y="396.19" width="75.9" height="18.54"/></g></g></svg>