<svg xmlns="http://www.w3.org/2000/svg" viewBox="0 0 1366 769"><defs><style>.cls-1{fill:#fff;opacity:0.29;}.cls-2{opacity:0.35;}.cls-3{fill:#a22523;}.cls-4{fill:#d8261c;}</style></defs><g id="Layer_2" data-name="Layer 2"><g id="Layer_3" data-name="Layer 3"><rect class="cls-1" y="1" width="1366" height="768"/></g><g id="Layer_2-2" data-name="Layer 2"><g class="cls-2"><circle class="cls-3" cx="128.5" cy="210.5" r="5.5"/><circle class="cls-3" cx="166.5" cy="210.5" r="5.5"/><circle class="cls-3" cx="204.5" cy="210.5" r="5.5"/><circle class="cls-3" cx="242.5" cy="210.5" r="5.5"/><circle class="cls-3" cx="280.5" cy="210.5" r="5.5"/><circle class="cls-3" cx="318.5" cy="210.5" r="5.5"/><circle class="cls-3" cx="356.5" cy="210.5" r="5.5"/><circle class="cls-3" cx="394.5" cy="210.5" r="5.5"/><circle class="cls-3" cx="432.5" cy="210.5" r="5.5"/><circle class="cls-3" cx="470.5" cy="210.5" r="5.5"/><circle class="cls-3" cx="508.5" cy="210.5" r="5.5"/><circle class="cls-3" cx="546.5" cy="210.5" r="5.5"/><circle class="cls-3" cx="584.5" cy="210.5" r="5.5"/><circle class="cls-3" cx="622.5" cy="210.5" r="5.5"/><circle class="cls-3" cx="128.5" cy="245.5" r="5.5"/><circle class="cls-3" cx="166.5" cy="245.5" r="5.5"/><circle class="cls-3" cx="204.5" cy="245.5" r="5.5"/><circle class="cls-3" cx="242.5" cy="245.5" r="5.5"/><circle class="cls-3" cx="280.5" cy="245.5" r="5.5"/><circle class="cls-3" cx="318.5" cy="245.5" r="5.5"/><circle class="cls-3" cx="356.5" cy="245.5" r="5.5"/><circle class="cls-3" cx="394.5" cy="245.5" r="5.5"/><circle class="cls-3" cx="432.5" cy="245.5" r="5.5"/><circle class="cls-3" cx="470.5" cy="245.5" r="5.5"/><circle class="cls-3" cx="508.5" cy="245.5" r="5.5"/><circle class="cls-3" cx="546.5" cy="245.5" r="5.5"/><circle class="cls-3" cx="584.5" cy="245.5" r="5.5"/><circle class="cls-3" cx="622.5" cy="245.5" r="5.5"/><circle class="cls-3" cx="128.5" cy="280.5" r="5.5"/><circle class="cls-3" cx="166.5" cy="280.5" r="5.5"/><circle class="cls-3" cx="204.5" cy="280.5" r="5.5"/><circle class="cls-3" cx="242.5" cy="280.5" r="5.5"/><circle class="cls-3" cx="280.5" cy="280.5" r="5.5"/><circle class="cls-3" cx="318.5" cy="280.5" r="5.5"/><circle class="cls-3" cx="356.5" cy="280.5" r="5.5"/><circle class="cls-3" cx="394.5" cy="280.5" r="5.5"/><circle class="cls-3" cx="432.5" cy="280.5" r="5.5"/><circle class="cls-3" cx="470.5" cy="280.5" r="5.5"/><circle class="cls-3" cx="508.5" cy="280.5" r="5.5"/><circle class="cls-3" cx="546.5" cy="280.5" r="5.5"/><circle class="cls-3" cx="584.5" cy="280.5" r="5.5"/><circle class="cls-3" cx="622.5" cy="280.5" r="5.5"/><circle class="cls-3" cx="128.5" cy="315.5" r="5.5"/><circle class="cls-3" cx="166.5" cy="315.5" r="5.5"/><circle class="cls-3" cx="204.5" cy="315.5" r="5.5"/><circle class="cls-3" cx="242.5" cy="315.5" r="5.5"/><circle class="cls-3" cx="280.5" cy="315.5" r="5.5"/><circle class="cls-3" cx="318.5" cy="315.5" r="5.5"/><circle class="cls-3" cx="356.5" cy="315.5" r="5.5"/><circle class="cls-3" cx="394.5" cy="315.5" r="5.5"/><circle class="cls-3" cx="432.5" cy="315.5" r="5.5"/><circle class="cls-3" cx="470.5" cy="315.5" r="5.5"/><circle class="cls-3" cx="508.5" cy="315.5" r="5.5"/><circle class="cls-3" cx="546.5" cy="315.5" r="5.5"/><circle class="cls-3" cx="584.5" cy="315.5" r="5.5"/><circle class="cls-3" cx="622.5" cy="315.5" r="5.5"/><circle class="cls-3" cx="128.5" cy="350.5" r="5.5"/><circle class="cls-3" cx="166.5" cy="350.5" r="5.5"/><circle class="cls-3" cx="204.5" cy="350.5" r="5.5"/><circle class="cls-3" cx="242.5" cy="350.5" r="5.5"/><circle class="cls-3" cx="280.5" cy="350.5" r="5.5"/><circle class="cls-3" cx="318.5" cy="350.5" r="5.5"/><circle class="cls-3" cx="356.5" cy="350.5" r="5.5"/><circle class="cls-3" cx="394.5" cy="350.5" r="5.5"/><circle class="cls-3" cx="432.5" cy="350.5" r="5.5"/><circle class="cls-3" cx="470.5" cy="350.5" r="5.5"/><circle class="cls-3" cx="508.5" cy="350.5" r="5.5"/><circle class="cls-3" cx="546.5" cy="350.5" r="5.5"/><circle class="cls-3" cx="584.5" cy="350.5" r="5.5"/><circle class="cls-3" cx="622.5" cy="350.5" r="5.5"/><circle class="cls-3" cx="128.5" cy="385.5" r="5.5"/><circle class="cls-3" cx="166.5" cy="385.5" r="5.5"/><circle class="cls-3" cx="204.5" cy="385.5" r="5.5"/><circle class="cls-3" cx="242.5" cy="385.5" r="5.5"/><circle class="cls-3" cx="280.5" cy="385.5" r="5.5"/><circle class="cls-3" cx="318.5" cy="385.5" r="5.5"/><circle class="cls-3" cx="356.5" cy="385.5" r="5.5"/><circle class="cls-3" cx="394.5" cy="385.5" r="5.5"/><circle class="cls-3" cx="432.5" cy="385.5" r="5.5"/><circle class="cls-3" cx="470.5" cy="385.5" r="5.5"/><circle class="cls-3" cx="508.5" cy="385.5" r="5.5"/><circle class="cls-3" cx="546.5" cy="385.5" r="5.5"/><circle class="cls-3" cx="584.5" cy="385.5" r="5.5"/><circle class="cls-3" cx="622.5" cy="385.5" r="5.5"/><circle class="cls-3" cx="128.5" cy="420.5" r="5.5"/><circle class="cls-3" cx="166.5" cy="420.5" r="5.5"/><circle class="cls-3" cx="204.5" cy="420.5" r="5.5"/><circle class="cls-3" cx="242.5" cy="420.5" r="5.5"/><circle class="cls-3" cx="280.5" cy="420.5" r="5.5"/><circle class="cls-3" cx="318.5" cy="420.5" r="5.5"/><circle class="cls-3" cx="356.5" cy="420.5" r="5.5"/><circle class="cls-3" cx="394.5" cy="420.5" r="5.5"/><circle class="cls-3" cx="432.5" cy="420.5" r="5.5"/><circle class="cls-3" cx="470.5" cy="420.5" r="5.5"/><circle class="cls-3" cx="508.5" cy="420.5" r="5.5"/><circle class="cls-3" cx="546.5" cy="420.5" r="5.5"/><circle class="cls-3" cx="584.5" cy="420.5" r="5.5"/><circle class="cls-3" cx="622.5" cy="420.5" r="5.5"/><circle class="cls-3" cx="128.5" cy="455.5" r="5.5"/><circle class="cls-3" cx="166.5" cy="455.5" r="5.5"/><circle class="cls-3" cx="204.5" cy="455.5" r="5.5"/><circle class="cls-3" cx="242.5" cy="455.5" r="5.5"/><circle class="cls-3" cx="280.5" cy="455.5" r="5.5"/><circle class="cls-3" cx="318.5" cy="455.5" r="5.5"/><circle class="cls-3" cx="356.5" cy="455.5" r="5.5"/><circle class="cls-3" cx="394.5" cy="455.5" r="5.5"/><circle class="cls-3" cx="432.5" cy="455.5" r="5.5"/><circle class="cls-3" cx="470.5" cy="455.5" r="5.5"/><circle class="cls-3" cx="508.5" cy="455.5" r="5.5"/><circle class="cls-3" cx="546.5" cy="455.5" r="5.5"/><circle class="cls-3" cx="584.5" cy="455.5" r="5.5"/><circle class="cls-3" cx="622.5" cy="455.5" r="5.5"/><circle class="cls-3" cx="128.5" cy="490.5" r="5.5"/><circle class="cls-3" cx="166.5" cy="490.5" r="5.5"/><circle class="cls-3" cx="204.5" cy="490.5" r="5.5"/><circle class="cls-3" cx="242.5" cy="490.5" r="5.5"/><circle class="cls-3" cx="280.5" cy="490.5" r="5.5"/><circle class="cls-3" cx="318.5" cy="490.5" r="5.5"/><circle class="cls-3" cx="356.5" cy="490.5" r="5.5"/><circle class="cls-3" cx="394.5" cy="490.5" r="5.5"/><circle class="cls-3" cx="432.5" cy="490.5" r="5.5"/><circle class="cls-3" cx="470.5" cy="490.5" r="5.5"/><circle class="cls-3" cx="508.5" cy="490.5" r="5.5"/><circle class="cls-3" cx="546.5" cy="490.5" r="5.5"/><circle class="cls-3" cx="584.5" cy="490.5" r="5.5"/><circle class="cls-3" cx="622.5" cy="490.5" r="5.5"/><circle class="cls-3" cx="128.5" cy="525.5" r="5.5"/><circle class="cls-3" cx="166.5" cy="525.5" r="5.5"/><circle class="cls-3" cx="204.5" cy="525.5" r="5.5"/><circle class="cls-3" cx="242.5" cy="525.5" r="5.5"/><circle class="cls-3" cx="280.5" cy="525.5" r="5.5"/><circle class="cls-3" cx="318.5" cy="525.5" r="5.5"/><circle class="cls-3" cx="356.5" cy="525.5" r="5.5"/><circle class="cls-3" cx="394.5" cy="525.5" r="5.5"/><circle class="cls-3" cx="432.5" cy="525.5" r="5.5"/><circle class="cls-3" cx="470.5" cy="525.5" r="5.5"/><circle class="cls-3" cx="508.5" cy="525.5" r="5.5"/><circle class="cls-3" cx="546.5" cy="525.5" r="5.5"/><circle class="cls-3" cx="584.5" cy="525.5" r="5.5"/><circle class="cls-3" cx="622.5" cy="525.5" r="5.5"/><circle class="cls-3" cx="128.5" cy="560.5" r="5.5"/><circle class="cls-3" cx="166.5" cy="560.5" r="5.5"/><circle class="cls-3" cx="204.5" cy="560.5" r="5.5"/><circle class="cls-3" cx="242.5" cy="560.5" r="5.5"/><circle class="cls-3" cx="280.5" cy="560.5" r="5.5"/><circle class="cls-3" cx="318.5" cy="560.5" r="5.5"/><circle class="cls-3" cx="356.5" cy="560.5" r="5.5"/><circle class="cls-3" cx="394.5" cy="560.5" r="5.5"/><circle class="cls-3" cx="432.5" cy="560.5" r="5.5"/><circle class="cls-3" cx="470.5" cy="560.5" r="5.5"/><circle class="cls-3" cx="508.5" cy="560.5" r="5.5"/><circle class="cls-3" cx="546.5" cy="560.5" r="5.5"/><circle class="cls-3" cx="584.5" cy="560.5" r="5.5"/><circle class="cls-3" cx="622.5" cy="560.5" r="5.5"/><circle class="cls-3" cx="128.5" cy="595.5" r="5.5"/><circle class="cls-3" cx="166.5" cy="595.5" r="5.5"/><circle class="cls-3" cx="204.5" cy="595.5" r="5.5"/><circle class="cls-3" cx="242.5" cy="595.5" r="5.5"/><circle class="cls-3" cx="280.5" cy="595.5" r="5.5"/><circle class="cls-3" cx="318.5" cy="595.5" r="5.5"/><circle class="cls-3" cx="356.5" cy="595.5" r="5.5"/><circle class="cls-3" cx="394.5" cy="595.5" r="5.5"/><circle class="cls-3" cx="432.5" cy="595.5" r="5.5"/><circle class="cls-3" cx="470.5" cy="595.5" r="5.5"/><circle class="cls-3" cx="508.5" cy="595.5" r="5.5"/><circle class="cls-3" cx="546.5" cy="595.5" r="5.5"/><circle class="cls-3" cx="584.5" cy="595.5" r="5.5"/><circle class="cls-3" cx="622.5" cy="595.5" r="5.5"/></g></g><g id="Layer_1-2" data-name="Layer 1"><path class="cls-4" d="M780,768H0V0S88.77,235.7,182,309C327,423,701,454,780,768Z"/></g></g></svg>