<svg xmlns="http://www.w3.org/2000/svg" viewBox="0 0 370.95 342.5"><defs><style>.cls-1{fill:#ffc0c0;}.cls-1,.cls-11,.cls-12,.cls-13,.cls-14,.cls-2,.cls-7,.cls-8,.cls-9{stroke:#922;stroke-linejoin:round;}.cls-2,.cls-6{fill:#fff;}.cls-3{fill:#ffe9e9;}.cls-13,.cls-4{fill:#fb8395;}.cls-12,.cls-5{fill:#922;}.cls-7{fill:#bfd6ff;}.cls-8{fill:#9dd692;}.cls-9{fill:none;}.cls-10{fill:#fb2143;}.cls-11{fill:#e6c0a3;}.cls-14{fill:#eacaca;}</style></defs><g id="Layer_2" data-name="Layer 2"><g id="OBJECTS"><path class="cls-1" d="M340.45,258.89,35.15,221a2.1,2.1,0,0,1-1.23-1.72q0,7.33,0,14.68a2.1,2.1,0,0,0,1.23,1.71L218,341.29a6.44,6.44,0,0,0,5.86,0l116.55-67.73a2,2,0,0,0,1.2-1.68q0-7.33,0-14.68A2.06,2.06,0,0,1,340.45,258.89Z"/><path class="cls-2" d="M340.43,255.5c1.62.93,1.63,2.45,0,3.39L223.9,326.62a6.44,6.44,0,0,1-5.86,0L35.15,221c-1.63-.94-1.64-2.46,0-3.4L151.67,149.9a6.46,6.46,0,0,1,5.87,0Z"/><polygon class="cls-3" points="117.13 239.92 100.73 249.45 121.55 261.46 137.94 251.94 117.13 239.92"/><polygon class="cls-3" points="168.76 288.72 189.58 300.74 205.97 291.21 185.16 279.2 168.76 288.72"/><polygon class="cls-3" points="139.79 253 123.39 262.53 144.25 274.57 160.65 265.05 139.79 253"/><polygon class="cls-3" points="162.49 266.11 146.1 275.64 166.92 287.66 183.31 278.13 162.49 266.11"/><polygon class="cls-3" points="215.5 233.17 194.64 221.13 178.25 230.65 199.1 242.69 215.5 233.17"/><polygon class="cls-3" points="238.16 246.26 217.34 234.23 200.95 243.76 221.77 255.78 238.16 246.26"/><polygon class="cls-3" points="94.46 226.83 78.07 236.36 98.88 248.38 115.28 238.85 94.46 226.83"/><polygon class="cls-3" points="132.92 204.48 153.74 216.5 170.13 206.97 149.31 194.96 132.92 204.48"/><polygon class="cls-3" points="155.59 217.57 176.4 229.59 192.8 220.06 171.98 208.04 155.59 217.57"/><polygon class="cls-3" points="172.01 205.88 188.4 196.35 167.59 184.34 151.19 193.86 172.01 205.88"/><polygon class="cls-3" points="217.38 232.07 233.77 222.55 212.91 210.51 196.52 220.03 217.38 232.07"/><polygon class="cls-3" points="194.68 218.97 211.07 209.44 190.25 197.42 173.86 206.95 194.68 218.97"/><polygon class="cls-3" points="165.74 183.27 144.93 171.25 128.53 180.78 149.35 192.8 165.74 183.27"/><polygon class="cls-3" points="240.05 245.16 256.44 235.64 235.62 223.61 219.22 233.14 240.05 245.16"/><polygon class="cls-3" points="258.28 236.7 241.89 246.23 262.71 258.24 279.1 248.72 258.28 236.7"/><polygon class="cls-3" points="223.62 256.85 244.43 268.87 260.82 259.34 240.01 247.32 223.62 256.85"/><polygon class="cls-3" points="147.47 193.89 126.65 181.87 110.26 191.4 131.08 203.42 147.47 193.89"/><polygon class="cls-3" points="96.34 225.74 117.16 237.76 133.55 228.23 112.73 216.21 96.34 225.74"/><polygon class="cls-3" points="129.19 204.51 108.38 192.49 91.96 202.03 112.78 214.05 129.19 204.51"/><polygon class="cls-3" points="71.8 213.75 55.41 223.28 76.22 235.29 92.62 225.77 71.8 213.75"/><polygon class="cls-3" points="110.89 215.15 90.08 203.13 73.68 212.66 94.5 224.68 110.89 215.15"/><polygon class="cls-3" points="114.62 215.12 135.43 227.14 151.85 217.6 131.04 205.58 114.62 215.12"/><polygon class="cls-3" points="156.22 241.32 135.4 229.3 119.01 238.83 139.83 250.84 156.22 241.32"/><polygon class="cls-3" points="178.92 254.43 158.06 242.38 141.67 251.91 162.53 263.95 178.92 254.43"/><polygon class="cls-3" points="201.59 267.51 180.76 255.49 164.37 265.01 185.2 277.04 201.59 267.51"/><polygon class="cls-3" points="187.04 278.1 207.85 290.12 224.25 280.6 203.43 268.58 187.04 278.1"/><polygon class="cls-3" points="205.31 267.48 226.13 279.5 242.55 269.96 221.73 257.94 205.31 267.48"/><polygon class="cls-3" points="137.29 228.21 158.1 240.22 174.52 230.68 153.7 218.66 137.29 228.21"/><polygon class="cls-3" points="219.89 256.88 199.06 244.85 182.65 254.4 203.47 266.42 219.89 256.88"/><polygon class="cls-3" points="197.22 243.79 176.36 231.75 159.94 241.29 180.8 253.33 197.22 243.79"/><polygon class="cls-4" points="191.42 301.81 212.25 313.83 228.64 304.3 207.82 292.28 191.42 301.81"/><polygon class="cls-4" points="280.94 249.78 264.55 259.31 285.38 271.33 301.77 261.81 280.94 249.78"/><polygon class="cls-4" points="227.97 280.56 248.8 292.59 265.22 283.05 244.39 271.02 227.97 280.56"/><polygon class="cls-4" points="246.28 269.93 267.1 281.95 283.49 272.43 262.67 260.4 246.28 269.93"/><polygon class="cls-4" points="209.7 291.19 230.52 303.21 246.92 293.68 226.09 281.66 209.7 291.19"/><path class="cls-5" d="M160,182.8q.35-.2.33-.42c0-.16-.11-.3-.34-.44a1.56,1.56,0,0,0-.75-.2,1.4,1.4,0,0,0-.73.2l-.85.49q-.35.19-.33.42c0,.16.11.3.34.44a1.49,1.49,0,0,0,1.49,0Zm-1.62.34a.66.66,0,0,1-.32-.08.21.21,0,0,1-.13-.18c0-.07.05-.13.15-.18l.88-.52a.7.7,0,0,1,.32-.09.69.69,0,0,1,.32.08.22.22,0,0,1,.13.18c0,.07-.06.13-.16.19l-.88.51A.56.56,0,0,1,158.33,183.14Z"/><polygon class="cls-5" points="161.68 183 161.66 182.98 161.28 182.76 161.23 182.74 160.75 182.64 160.68 182.65 160.41 182.81 160.4 182.85 160.41 182.86 160.81 182.99 160.82 183 160.81 183 159.05 184.03 159.04 184.05 159.06 184.07 159.42 184.28 159.46 184.29 159.5 184.28 161.67 183.02 161.68 183"/><path class="cls-5" d="M182.27,195.68c.22-.12.34-.27.33-.42s-.11-.3-.34-.43a1.47,1.47,0,0,0-.76-.2,1.39,1.39,0,0,0-.72.19l-.85.49c-.23.14-.34.28-.33.43s.11.3.34.43a1.41,1.41,0,0,0,.75.2,1.48,1.48,0,0,0,.74-.19Zm-1.62.34a.66.66,0,0,1-.32-.07.23.23,0,0,1-.13-.19s.05-.12.15-.18l.88-.51a.73.73,0,0,1,.32-.09.61.61,0,0,1,.32.08.21.21,0,0,1,.13.18c0,.07-.06.13-.16.18l-.88.52A.55.55,0,0,1,180.65,196Z"/><path class="cls-5" d="M184.3,196.12a.68.68,0,0,0-.28-.28,1.52,1.52,0,0,0-.45-.16,1.19,1.19,0,0,0-.46,0,1.13,1.13,0,0,0-.41.11l-.15.09,0,0,0,0,.37.22H183l.08-.05.26-.06a.59.59,0,0,1,.29.07c.08.05.12.1.12.16l-.1.16a2.34,2.34,0,0,1-.77.11h-.38l-.44,0h-.63l-.08,0-.3.17v0l1.41.82h.08l.31-.18v0l-.85-.49v0h.81l.45,0a3,3,0,0,0,.5-.06,1.3,1.3,0,0,0,.35-.12.5.5,0,0,0,.22-.24A.25.25,0,0,0,184.3,196.12Z"/><path class="cls-5" d="M205,208.79c.22-.13.33-.27.32-.42s-.11-.31-.34-.44a1.53,1.53,0,0,0-.75-.2,1.42,1.42,0,0,0-.73.19l-.85.5q-.35.2-.33.42c0,.16.11.3.34.44a1.44,1.44,0,0,0,.75.19,1.39,1.39,0,0,0,.74-.19Zm-1.63.33a.68.68,0,0,1-.32-.07.22.22,0,0,1-.13-.18c0-.07.06-.13.15-.19l.88-.51a.59.59,0,0,1,.32-.09.57.57,0,0,1,.32.08.21.21,0,0,1,.13.18c0,.07-.05.13-.15.19l-.89.51A.55.55,0,0,1,203.34,209.12Z"/><path class="cls-5" d="M206,208.57h-.06l-.32.19v0h0l.74.43v0h0l-.93,0h-.06v0l-.07.26v0h.19l.09,0c.11.06.14.14.09.23a.66.66,0,0,1-.21.16.85.85,0,0,1-.26.11.5.5,0,0,1-.4-.05l-.1-.11,0-.13.12-.12v0l-.38-.21h-.06a.74.74,0,0,0-.23.18.33.33,0,0,0-.07.35.56.56,0,0,0,.29.31,1.48,1.48,0,0,0,.54.17,1.37,1.37,0,0,0,.57,0,1.16,1.16,0,0,0,.38-.15,1,1,0,0,0,.28-.23.28.28,0,0,0-.06-.42v0H207l.35-.21h0l0,0Z"/><path class="cls-5" d="M227.85,221.39c0-.16-.12-.3-.34-.43a1.41,1.41,0,0,0-.75-.2,1.33,1.33,0,0,0-.73.19l-.85.49c-.23.13-.34.28-.33.43s.11.3.34.43a1.51,1.51,0,0,0,.76.2,1.39,1.39,0,0,0,.73-.2l.85-.49C227.75,221.68,227.86,221.54,227.85,221.39Zm-.76.16-.88.51a.59.59,0,0,1-.31.09.57.57,0,0,1-.32-.08.21.21,0,0,1-.13-.18c0-.06.05-.13.15-.18l.88-.51a.59.59,0,0,1,.32-.09.66.66,0,0,1,.32.07.23.23,0,0,1,.13.19C227.24,221.43,227.2,221.49,227.09,221.55Z"/><polygon class="cls-5" points="229.09 221.91 229.03 221.9 227.16 222.33 227.1 222.35 226.84 222.5 226.83 222.52 226.85 222.54 227.81 223.1 227.81 223.12 227.29 223.42 227.27 223.44 227.29 223.47 227.66 223.68 227.69 223.69 227.73 223.68 228.25 223.37 228.29 223.37 228.43 223.45 228.46 223.46 228.5 223.45 228.82 223.26 228.84 223.24 228.83 223.22 228.69 223.14 228.69 223.12 229.08 222.89 229.1 222.87 229.09 222.85 228.72 222.64 228.68 222.62 228.64 222.63 228.25 222.86 228.21 222.87 227.74 222.59 227.74 222.58 227.75 222.58 229.47 222.18 229.51 222.16 229.48 222.14 229.09 221.91"/><path class="cls-5" d="M250.29,235c.22-.13.34-.27.32-.43s-.11-.3-.34-.43a1.5,1.5,0,0,0-.75-.2,1.33,1.33,0,0,0-.73.19l-.85.49c-.23.13-.34.28-.33.43s.12.3.34.43a1.43,1.43,0,0,0,.75.2,1.4,1.4,0,0,0,.75-.19Zm-1.63.33a.61.61,0,0,1-.32-.08c-.09-.05-.13-.11-.12-.17s.05-.13.15-.19l.88-.51a.59.59,0,0,1,.32-.09.64.64,0,0,1,.31.07c.1.06.14.12.13.19s-.06.12-.16.18l-.88.51A.56.56,0,0,1,248.66,235.29Z"/><path class="cls-5" d="M252.62,235.51v0l-1.3-.75h-.07l-1.3.76v0l0,0,.38.22h.29l.2.08.11.11,0,.12-.14.12-.19.08-.24,0-.2-.06-.11-.11,0-.13,0,0,0,0v0l-.39-.22h-.07l-.13.13a.28.28,0,0,0-.06.32.57.57,0,0,0,.3.32,1.48,1.48,0,0,0,.54.17,1.39,1.39,0,0,0,.58,0,1.35,1.35,0,0,0,.35-.14,1,1,0,0,0,.25-.21.3.3,0,0,0,.09-.31.53.53,0,0,0-.27-.29,1,1,0,0,0-.41-.13l0,0,.48-.27h0l.87.5h.07l.32-.18Z"/><path class="cls-5" d="M273,248c.22-.13.34-.27.33-.42s-.11-.3-.34-.44a1.57,1.57,0,0,0-.76-.2,1.39,1.39,0,0,0-.72.2l-.85.49q-.35.2-.33.42c0,.16.11.3.34.44a1.49,1.49,0,0,0,1.49,0Zm-1.62.34a.66.66,0,0,1-.32-.08.21.21,0,0,1-.13-.18c0-.07.05-.13.15-.18l.88-.52a.69.69,0,0,1,.32-.08.58.58,0,0,1,.32.07.22.22,0,0,1,.13.18.28.28,0,0,1-.16.19l-.88.51A.56.56,0,0,1,271.33,248.38Z"/><path class="cls-5" d="M275,248.44a.94.94,0,0,0-.29-.26,1.54,1.54,0,0,0-.44-.16,1.76,1.76,0,0,0-.45,0,.94.94,0,0,0-.4.13l-1,.56a.69.69,0,0,0-.25.22.3.3,0,0,0-.07.33.65.65,0,0,0,.31.31,1.46,1.46,0,0,0,.51.17,1.76,1.76,0,0,0,.56,0,1.34,1.34,0,0,0,.39-.16.89.89,0,0,0,.3-.26.31.31,0,0,0,0-.28.56.56,0,0,0-.26-.24.91.91,0,0,0-.45-.14h0l.3-.17.26-.06.27.06.11.15-.11.14,0,0,0,0,0,0,.36.21h.07l.09-.05a.51.51,0,0,0,.22-.22A.35.35,0,0,0,275,248.44Zm-1.49.47c.1.06.14.12.1.2a.32.32,0,0,1-.15.16l-.26.09a.55.55,0,0,1-.38-.06c-.11-.06-.14-.14-.09-.21l.15-.14a.77.77,0,0,1,.26-.1A.53.53,0,0,1,273.47,248.91Z"/><path class="cls-5" d="M141.42,193.21c.22-.13.33-.27.32-.42s-.12-.3-.35-.43a1.47,1.47,0,0,0-.74-.2,1.39,1.39,0,0,0-.73.18l-.85.5c-.23.13-.34.27-.33.43s.12.3.34.43a1.49,1.49,0,0,0,.74.2,1.44,1.44,0,0,0,.75-.19Zm-1.64.34a.5.5,0,0,1-.31-.08c-.09-.05-.14-.11-.13-.17s0-.13.16-.19l.88-.51a.59.59,0,0,1,.32-.09.51.51,0,0,1,.3.07c.1.06.15.12.14.18s-.06.13-.16.19l-.88.51A.59.59,0,0,1,139.78,193.55Z"/><path class="cls-5" d="M143.16,193.36a1.49,1.49,0,0,0-.4-.15,1.38,1.38,0,0,0-.45,0,1.23,1.23,0,0,0-.5.16.5.5,0,0,0-.22.21l0,.16h0l-.34,0a1.28,1.28,0,0,0-.4.15.68.68,0,0,0-.26.24.29.29,0,0,0,0,.3.74.74,0,0,0,.3.28,1.62,1.62,0,0,0,.49.18,1.29,1.29,0,0,0,.52,0,1.17,1.17,0,0,0,.41-.14.76.76,0,0,0,.26-.24l0-.2h.29a1,1,0,0,0,.39-.13.51.51,0,0,0,.26-.29.35.35,0,0,0,0-.26A.79.79,0,0,0,143.16,193.36Zm-1.15.95-.16.13a.59.59,0,0,1-.28.1.55.55,0,0,1-.34-.06c-.1-.06-.14-.13-.1-.2l.15-.16a.67.67,0,0,1,.26-.09.5.5,0,0,1,.36.06C142,194.15,142.05,194.22,142,194.31Zm.86-.51-.11.1-.21.07a.49.49,0,0,1-.34-.06c-.1-.06-.13-.12-.11-.2l.13-.12.17-.06h.19l.17.06.11.11Z"/><path class="cls-5" d="M164.1,206.3c.22-.12.33-.27.33-.42s-.13-.3-.37-.43a1.4,1.4,0,0,0-.73-.2,1.31,1.31,0,0,0-.73.19l-.85.49c-.23.13-.34.27-.34.43a.58.58,0,0,0,.35.43,1.62,1.62,0,0,0,.75.21,1.47,1.47,0,0,0,.74-.2Zm-1.64.35a.59.59,0,0,1-.31-.09c-.09-.05-.14-.11-.13-.17s0-.13.15-.19l.88-.51a.62.62,0,0,1,.32-.09.46.46,0,0,1,.3.08q.15.07.15.18a.25.25,0,0,1-.15.18l-.88.52A.82.82,0,0,1,162.46,206.65Z"/><path class="cls-5" d="M165.77,206.44a1.1,1.1,0,0,0-.51-.17,1.32,1.32,0,0,0-.56,0,1.34,1.34,0,0,0-.39.16.75.75,0,0,0-.29.26.29.29,0,0,0,0,.28.6.6,0,0,0,.25.25,1,1,0,0,0,.46.13h0v0l-.3.17-.26.07-.25-.07-.11-.14.1-.15,0,0,0,0,0,0-.36-.21,0,0h0l-.09.06a.44.44,0,0,0-.21.22.3.3,0,0,0,0,.26.83.83,0,0,0,.29.26,1.54,1.54,0,0,0,.44.16,1.18,1.18,0,0,0,.46,0,1,1,0,0,0,.38-.13l1-.56a1,1,0,0,0,.26-.21.32.32,0,0,0,.06-.33A.59.59,0,0,0,165.77,206.44Zm-.29.45-.15.13a.77.77,0,0,1-.26.1.52.52,0,0,1-.37-.06c-.1-.06-.13-.12-.11-.21l.16-.15.26-.09a.56.56,0,0,1,.37,0C165.5,206.73,165.53,206.81,165.48,206.89Z"/><polygon class="cls-5" points="187 218.73 186.99 218.71 186.61 218.49 186.55 218.47 186.06 218.38 185.99 218.38 185.72 218.54 185.72 218.59 185.73 218.59 186.13 218.72 186.14 218.73 186.13 218.74 184.38 219.76 184.36 219.78 184.38 219.81 184.74 220.02 184.78 220.02 184.82 220.01 186.99 218.75 187 218.73"/><path class="cls-5" d="M188.12,219.34a1.42,1.42,0,0,0-.75-.21,1.52,1.52,0,0,0-.72.19l-.85.5c-.23.13-.34.27-.34.43s.12.29.35.43a1.5,1.5,0,0,0,.75.2,1.43,1.43,0,0,0,.75-.2l.84-.49c.22-.13.33-.27.32-.42S188.35,219.47,188.12,219.34Zm-.41.59-.88.51a.59.59,0,0,1-.32.09.62.62,0,0,1-.31-.08c-.09,0-.14-.11-.14-.18a.27.27,0,0,1,.16-.18l.88-.52a.73.73,0,0,1,.32-.09.62.62,0,0,1,.31.08c.09.06.14.11.14.18S187.82,219.87,187.71,219.93Z"/><polygon class="cls-5" points="210 232.01 209.98 231.99 209.6 231.77 209.54 231.74 209.05 231.65 208.98 231.66 208.72 231.82 208.7 231.86 208.72 231.86 209.12 231.99 209.13 232 209.13 232.01 207.37 233.03 207.35 233.06 207.36 233.08 207.73 233.29 207.78 233.3 207.81 233.29 209.98 232.03 210 232.01"/><polygon class="cls-5" points="210.73 232.42 210.68 232.4 210.18 232.3 210.12 232.31 209.85 232.48 209.84 232.51 209.86 232.52 210.25 232.65 210.27 232.66 210.25 232.67 208.5 233.69 208.49 233.71 208.5 233.74 208.86 233.95 208.9 233.95 208.95 233.94 211.12 232.68 211.13 232.66 211.11 232.64 210.73 232.42"/><polygon class="cls-5" points="232.34 244.91 232.32 244.89 231.94 244.67 231.89 244.65 231.4 244.55 231.32 244.56 231.06 244.72 231.05 244.76 231.07 244.76 231.47 244.9 231.48 244.9 231.47 244.91 229.71 245.94 229.69 245.95 229.71 245.98 230.08 246.19 230.12 246.2 230.16 246.19 232.33 244.93 232.34 244.91"/><path class="cls-5" d="M233.75,246.05a.34.34,0,0,0,0-.28.78.78,0,0,0-.31-.28,2,2,0,0,0-.43-.17,1.81,1.81,0,0,0-.46,0,1.29,1.29,0,0,0-.42.12l-.15.08v0l.37.21h.08l.08,0,.27-.07a.48.48,0,0,1,.27.08c.08.05.13.09.14.16l-.11.15a2.15,2.15,0,0,1-.77.12h-.8l-.66,0h-.06l-.29.18,0,0v0l1.42.82H232l.31-.17,0,0v0l-.86-.49h.8l.45,0a4.86,4.86,0,0,0,.51-.07,1,1,0,0,0,.34-.12A.51.51,0,0,0,233.75,246.05Z"/><polygon class="cls-5" points="255.03 258.01 255.02 257.99 254.64 257.77 254.58 257.75 254.09 257.65 254.02 257.66 253.75 257.82 253.75 257.86 253.76 257.86 254.16 258 254.17 258 254.16 258.02 252.41 259.04 252.39 259.06 252.4 259.08 252.77 259.3 252.81 259.3 252.85 259.29 255.02 258.03 255.03 258.01"/><path class="cls-5" d="M256.74,259v0l-1.31-.76h-.08l-.31.18v.05l.74.42h0l-.95,0h0l0,0-.08.25v0h.19l.08,0c.12.07.15.14.09.23a.46.46,0,0,1-.19.17,1,1,0,0,1-.27.1.49.49,0,0,1-.4,0l-.11-.12,0-.13.12-.11v-.05l-.36-.21h-.09a1.33,1.33,0,0,0-.21.19.34.34,0,0,0-.08.34.64.64,0,0,0,.3.32,1.53,1.53,0,0,0,1.11.13,1.34,1.34,0,0,0,.39-.16.9.9,0,0,0,.27-.23.29.29,0,0,0-.06-.42h.8l.07,0,.36-.2Z"/><polygon class="cls-5" points="123.51 203.19 123.49 203.16 123.11 202.95 123.06 202.92 122.56 202.83 122.49 202.84 122.22 203 122.21 203.04 122.24 203.04 122.63 203.17 122.64 203.19 122.64 203.19 120.88 204.22 120.86 204.24 120.87 204.26 121.24 204.47 121.28 204.48 121.31 204.47 123.49 203.21 123.51 203.19"/><path class="cls-5" d="M123.83,204.28a1.38,1.38,0,0,0-.42-.13h0l.48-.28h0l.88.51h0l.05,0,.3-.17,0,0,0,0-1.3-.75h-.08l-1.29.75v.05l.39.22h.29l.21.07.1.11,0,.13-.14.11-.2.08-.23,0-.2-.06-.1-.12,0-.13,0,0,0,0v0l-.38-.22h-.08l-.13.13a.32.32,0,0,0-.06.33.69.69,0,0,0,.3.32,1.37,1.37,0,0,0,.55.17,1.4,1.4,0,0,0,.58,0,1.51,1.51,0,0,0,.35-.14,1.71,1.71,0,0,0,.26-.21.38.38,0,0,0,.08-.32A.59.59,0,0,0,123.83,204.28Z"/><polygon class="cls-5" points="146.17 216.27 146.15 216.25 145.77 216.03 145.72 216.01 145.23 215.91 145.15 215.92 144.88 216.09 144.88 216.13 144.9 216.13 145.3 216.26 145.3 216.27 145.3 216.28 143.53 217.3 143.52 217.32 143.54 217.35 143.91 217.56 143.94 217.57 143.98 217.56 146.15 216.3 146.17 216.27"/><path class="cls-5" d="M147.22,217.64h0l.09,0a.53.53,0,0,0,.22-.23.26.26,0,0,0,0-.25.75.75,0,0,0-.29-.26,1.46,1.46,0,0,0-.44-.16,1.18,1.18,0,0,0-.46,0,.9.9,0,0,0-.39.13l-1,.56a1.05,1.05,0,0,0-.27.21.33.33,0,0,0-.05.33.6.6,0,0,0,.29.31,1.58,1.58,0,0,0,.53.18,1.61,1.61,0,0,0,.54,0,1.84,1.84,0,0,0,.41-.16c.14-.09.25-.17.28-.26a.28.28,0,0,0,0-.28.5.5,0,0,0-.23-.25,1,1,0,0,0-.47-.13h0l.3-.17.27-.07.25.07.11.14-.1.15h0l0,0v0l.38.21Zm-1.19-.08c.11.07.14.13.11.21a.37.37,0,0,1-.17.15l-.25.09a.49.49,0,0,1-.38,0c-.11-.06-.14-.14-.09-.22l.15-.14a1,1,0,0,1,.27-.1A.56.56,0,0,1,146,217.56Z"/><polygon class="cls-5" points="168.9 229.39 168.88 229.37 168.5 229.15 168.44 229.13 167.96 229.03 167.88 229.04 167.61 229.21 167.61 229.25 167.63 229.25 168.02 229.38 168.03 229.39 168.02 229.4 166.26 230.42 166.24 230.44 166.27 230.47 166.63 230.68 166.67 230.69 166.7 230.68 168.87 229.42 168.9 229.39"/><polygon class="cls-5" points="170.24 230.58 170.56 230.39 170.59 230.37 170.57 230.34 169.2 229.56 169.16 229.54 169.12 229.56 168.6 229.85 168.59 229.87 168.6 229.9 168.88 230.06 168.93 230.07 168.97 230.06 169.11 229.98 169.15 229.98 169.73 230.31 169.73 230.33 167.25 230.98 167.23 231.02 167.63 231.25 167.7 231.26 170.18 230.6 170.24 230.58"/><polygon class="cls-5" points="191.49 242.44 191.47 242.41 191.09 242.19 191.03 242.17 190.54 242.07 190.47 242.08 190.2 242.25 190.19 242.28 190.22 242.29 190.61 242.42 190.62 242.43 190.62 242.44 188.85 243.47 188.84 243.49 188.85 243.51 189.22 243.72 189.26 243.73 189.29 243.72 191.47 242.46 191.49 242.44"/><path class="cls-5" d="M192.89,243.49a.27.27,0,0,0,0-.24.78.78,0,0,0-.26-.25,1.56,1.56,0,0,0-.41-.15,1.59,1.59,0,0,0-.43,0,1.22,1.22,0,0,0-.52.16.48.48,0,0,0-.22.2l0,.17h0l-.33,0a1.65,1.65,0,0,0-.41.14.64.64,0,0,0-.25.24.29.29,0,0,0,0,.31.82.82,0,0,0,.3.28,1.5,1.5,0,0,0,.5.18,1.45,1.45,0,0,0,.51,0,1.19,1.19,0,0,0,.4-.14.61.61,0,0,0,.26-.24l0-.21h.29a1,1,0,0,0,.38-.13A.44.44,0,0,0,192.89,243.49Zm-1.62.6a1,1,0,0,1-.28.1.49.49,0,0,1-.34-.07c-.1-.06-.15-.12-.11-.2l.16-.15a1,1,0,0,1,.25-.1.57.57,0,0,1,.37.06c.11.07.14.14.11.22Zm1-.65-.11.1-.21.08a.61.61,0,0,1-.35-.07c-.1-.06-.13-.12-.1-.19l.12-.12.16-.06H192l.17.06.12.1Z"/><polygon class="cls-5" points="214.17 255.53 214.15 255.51 213.77 255.29 213.71 255.26 213.22 255.17 213.15 255.18 212.88 255.34 212.87 255.38 212.89 255.38 213.28 255.51 213.29 255.52 213.29 255.53 211.53 256.56 211.51 256.58 211.53 256.6 211.9 256.81 211.94 256.82 211.97 256.81 214.14 255.55 214.17 255.53"/><path class="cls-5" d="M215.49,256.39a.6.6,0,0,0-.29-.31,1.38,1.38,0,0,0-.53-.17,1.44,1.44,0,0,0-.55,0,1.49,1.49,0,0,0-.4.15.71.71,0,0,0-.28.26.28.28,0,0,0,0,.29.61.61,0,0,0,.24.24,1.12,1.12,0,0,0,.46.14h0l-.29.18-.27.06-.25-.07-.12-.14.11-.14,0,0v0l-.37-.21h-.07l-.09.05a.42.42,0,0,0-.22.22.28.28,0,0,0,0,.26.88.88,0,0,0,.28.25,1.73,1.73,0,0,0,.44.17,1.44,1.44,0,0,0,.46,0,1.33,1.33,0,0,0,.4-.12l1-.57a.87.87,0,0,0,.27-.21A.36.36,0,0,0,215.49,256.39Zm-.59.14-.15.14a1,1,0,0,1-.27.1.54.54,0,0,1-.36-.06c-.11-.06-.14-.13-.11-.21l.16-.16.25-.09a.6.6,0,0,1,.38.06C214.91,256.38,215,256.45,214.9,256.53Z"/><path class="cls-5" d="M234.4,269.35h.79l.47,0,.5-.06a1.21,1.21,0,0,0,.35-.13.59.59,0,0,0,.23-.24.35.35,0,0,0,0-.28.7.7,0,0,0-.31-.27,1.54,1.54,0,0,0-.42-.17,1.91,1.91,0,0,0-.47,0,1.23,1.23,0,0,0-.41.13l-.15.08,0,0v0l.38.21h.07l.08,0,.28-.06a.59.59,0,0,1,.26.07c.09.05.14.11.14.16l-.11.15a1.91,1.91,0,0,1-.76.12l-.39,0h-.43c-.23,0-.44,0-.65,0l-.06,0-.3.18,0,0,0,0,1.41.81h.07l.31-.18,0,0v0Z"/><path class="cls-5" d="M238.56,269.8a.6.6,0,0,0-.36-.43,1.51,1.51,0,0,0-.74-.21,1.57,1.57,0,0,0-.74.19l-.85.5a.55.55,0,0,0-.33.43c0,.15.13.29.36.43a1.44,1.44,0,0,0,.74.2,1.4,1.4,0,0,0,.73-.2l.85-.49C238.45,270.09,238.56,270,238.56,269.8Zm-.76.16-.88.51a.63.63,0,0,1-.63,0c-.1-.06-.14-.11-.14-.18s0-.12.15-.18l.89-.52a.66.66,0,0,1,.32-.09.71.71,0,0,1,.31.08c.09.06.14.11.13.18S237.89,269.9,237.8,270Z"/><path class="cls-5" d="M103.75,215.05h0l-.85-.49v0h.81l.45,0a3.41,3.41,0,0,0,.51-.06,1.35,1.35,0,0,0,.34-.12.45.45,0,0,0,.22-.24.28.28,0,0,0,0-.29.85.85,0,0,0-.29-.27,1.34,1.34,0,0,0-.45-.16,1.14,1.14,0,0,0-.45,0,.93.93,0,0,0-.42.11l-.15.09,0,0,0,0,.37.22h.07l.08-.05.27-.06a.59.59,0,0,1,.29.07c.08,0,.12.1.12.16l-.09.15a2.13,2.13,0,0,1-.78.12h-.38l-.43,0h-.64l-.08,0-.29.17v0l1.42.82h.07l.31-.18Z"/><path class="cls-5" d="M107,215.09a.28.28,0,0,0,0-.29.77.77,0,0,0-.29-.27,1.82,1.82,0,0,0-.44-.17,1.47,1.47,0,0,0-.47,0,.93.93,0,0,0-.41.12l-.15.09,0,0,0,0,.37.21h.07l.08,0,.27-.06a.6.6,0,0,1,.29.08c.08.05.12.1.12.16l-.09.15a2.15,2.15,0,0,1-.78.11l-.38,0h-.43c-.23,0-.44,0-.65,0l-.07,0-.29.18v0l1.42.81h.07l.31-.18v0l-.85-.49h.8l.45,0c.2,0,.36,0,.51-.06a1,1,0,0,0,.34-.13A.48.48,0,0,0,107,215.09Z"/><path class="cls-5" d="M125.6,227.66h.8l.46,0a5,5,0,0,0,.5-.07,1,1,0,0,0,.34-.12.5.5,0,0,0,.23-.23.33.33,0,0,0,0-.29.73.73,0,0,0-.3-.27,1.44,1.44,0,0,0-.45-.17,1.18,1.18,0,0,0-.46,0,1.13,1.13,0,0,0-.41.11l-.15.09v0l0,0,.37.21h.07l.08,0,.26-.06a.57.57,0,0,1,.29.07.24.24,0,0,1,.13.17l-.11.14a1.77,1.77,0,0,1-.76.12h-.39a3.16,3.16,0,0,1-.43,0H125l-.07,0-.3.17v0l1.42.82h.07l.31-.18,0,0,0,0Z"/><path class="cls-5" d="M130,228v0l-1.31-.76h-.09l-.31.18v0l0,0,.74.43h0l-1,0,0,0,0,0-.08.25v0h0l.15,0,.1,0c.11.07.14.14.09.22a.51.51,0,0,1-.2.18,1.06,1.06,0,0,1-.26.1.56.56,0,0,1-.41,0l-.1-.11,0-.13.13-.11v-.05l-.36-.21H127a1,1,0,0,0-.22.19.38.38,0,0,0-.07.34.59.59,0,0,0,.3.31,1.51,1.51,0,0,0,.53.18,1.61,1.61,0,0,0,.58,0,1.8,1.8,0,0,0,.38-.16.79.79,0,0,0,.27-.23.28.28,0,0,0-.06-.42v0h0l.81,0,0,0,.36-.2Z"/><path class="cls-5" d="M148.15,240.65h.78l.46,0,.51-.06a1.51,1.51,0,0,0,.34-.13.51.51,0,0,0,.23-.23.37.37,0,0,0,0-.29.85.85,0,0,0-.31-.27,1.5,1.5,0,0,0-.9-.2,1.08,1.08,0,0,0-.41.11l-.16.09v0l0,0,.37.21h.07l.09-.05.27-.06a.6.6,0,0,1,.27.07c.08,0,.13.11.13.17l-.1.14a1.8,1.8,0,0,1-.77.12h-.38a3.16,3.16,0,0,1-.43,0c-.23,0-.44,0-.65,0l-.06,0-.3.18h0l0,0,1.41.81h.06l.32-.18,0,0,0,0-.86-.49h0Z"/><polygon class="cls-5" points="151.74 240.59 151.67 240.59 149.81 241.01 149.75 241.03 149.48 241.18 149.48 241.21 149.49 241.23 150.46 241.78 150.46 241.8 149.93 242.11 149.91 242.13 149.94 242.15 150.3 242.36 150.34 242.37 150.37 242.36 150.89 242.06 150.93 242.06 151.07 242.14 151.1 242.15 151.14 242.14 151.46 241.95 151.48 241.93 151.47 241.91 151.33 241.82 151.33 241.81 151.73 241.57 151.74 241.55 151.73 241.53 151.36 241.32 151.32 241.31 151.28 241.32 150.89 241.55 150.85 241.55 150.38 241.28 150.37 241.26 150.38 241.26 152.12 240.87 152.15 240.85 152.13 240.82 151.74 240.59"/><path class="cls-5" d="M170.9,253.81h.8l.45,0a3.11,3.11,0,0,0,.51-.06,1,1,0,0,0,.34-.13.51.51,0,0,0,.23-.23.31.31,0,0,0,0-.28.82.82,0,0,0-.3-.28,1.54,1.54,0,0,0-.44-.16,1.41,1.41,0,0,0-.46,0,1.2,1.2,0,0,0-.42.12l-.15.09,0,0,0,0,.36.21h.08L172,253l.27-.07a.65.65,0,0,1,.28.08c.08.05.12.1.12.16l-.09.15a2.25,2.25,0,0,1-.77.12h-.38l-.43,0h-.65l-.07,0-.29.17,0,0,0,0,1.42.82h.06l.32-.18v0Z"/><path class="cls-5" d="M174,253.42h-.08l-1.3.75,0,0,0,0,.38.22h.29l.21.07.1.12,0,.12-.14.12-.19.07-.24,0-.2-.05-.11-.11,0-.14v0l0,0v0l-.38-.22h-.08l-.13.13a.34.34,0,0,0-.06.33.63.63,0,0,0,.3.31,1.33,1.33,0,0,0,.54.18,1.65,1.65,0,0,0,.59,0,1.28,1.28,0,0,0,.34-.14,1.09,1.09,0,0,0,.26-.21.33.33,0,0,0,.08-.32.66.66,0,0,0-.27-.29,1.09,1.09,0,0,0-.42-.13v0l.48-.27h0l.88.5h.07l.32-.18v-.05Z"/><path class="cls-5" d="M193.56,266.9h.8l.46,0,.51-.07a1.35,1.35,0,0,0,.34-.12.45.45,0,0,0,.22-.24.28.28,0,0,0,0-.28.82.82,0,0,0-.3-.28,1.59,1.59,0,0,0-.43-.16,1.23,1.23,0,0,0-.47,0,.93.93,0,0,0-.41.12l-.15.08,0,0h0l.37.22h.07l.08-.05.27-.06a.53.53,0,0,1,.28.07c.09.05.13.11.13.16l-.09.16a2.15,2.15,0,0,1-.78.11h-.39l-.42,0H193l-.07,0-.29.17,0,0,0,0,1.42.81h.07l.31-.19v0Z"/><path class="cls-5" d="M197.31,266.87a1.67,1.67,0,0,0-.44-.17,1.39,1.39,0,0,0-.45,0,1.17,1.17,0,0,0-.4.12l-1,.57a.67.67,0,0,0-.25.21.32.32,0,0,0-.07.33.61.61,0,0,0,.31.31,1.28,1.28,0,0,0,.52.17,1.46,1.46,0,0,0,.55,0,1.68,1.68,0,0,0,.39-.16.9.9,0,0,0,.3-.26.31.31,0,0,0,0-.28.53.53,0,0,0-.26-.25.9.9,0,0,0-.45-.13h0l.3-.18.26-.06.26.07.11.15-.1.13,0,0,0,0,0,0,.36.21h.07l.1-.06a.4.4,0,0,0,.21-.22.28.28,0,0,0,0-.25A.75.75,0,0,0,197.31,266.87Zm-1.19.72q.15.09.09.21a.37.37,0,0,1-.15.16l-.25.08a.52.52,0,0,1-.39-.05c-.11-.06-.14-.14-.09-.22l.16-.14a.87.87,0,0,1,.25-.1A.62.62,0,0,1,196.12,267.59Z"/><path class="cls-5" d="M216.29,280h.8l.46,0,.5-.06a1.42,1.42,0,0,0,.35-.13.48.48,0,0,0,.22-.23.33.33,0,0,0,0-.29,1,1,0,0,0-.31-.28,1.82,1.82,0,0,0-.43-.16,1.47,1.47,0,0,0-.47,0,.93.93,0,0,0-.4.12l-.16.09v0l.38.21h.07l.08-.05.27-.06a.5.5,0,0,1,.27.07c.09.05.14.11.14.17l-.11.14a1.77,1.77,0,0,1-.76.12h-.39l-.43,0h-.64l-.07,0-.3.17v0l0,0,1.41.81h.07l.31-.18,0,0,0,0Z"/><polygon class="cls-5" points="219.27 279.58 219.23 279.57 219.2 279.58 218.68 279.89 218.66 279.9 218.68 279.93 218.97 280.09 219 280.1 219.04 280.09 219.19 280 219.22 280 219.81 280.34 219.8 280.36 217.33 281.01 217.32 281.05 217.71 281.28 217.78 281.29 220.26 280.63 220.32 280.61 220.64 280.42 220.66 280.4 220.65 280.38 219.27 279.58"/><path class="cls-5" d="M84.71,225.16h.11l.68,0,.46,0a2.14,2.14,0,0,0,.5-.07,1,1,0,0,0,.34-.11.48.48,0,0,0,.23-.24.26.26,0,0,0,0-.28.75.75,0,0,0-.3-.28,2.11,2.11,0,0,0-.44-.17,1.81,1.81,0,0,0-.46,0,1.23,1.23,0,0,0-.41.12l-.15.09v0l.37.22h.08l.08-.05.27-.07a.51.51,0,0,1,.28.08.18.18,0,0,1,.13.16l-.11.15a2.07,2.07,0,0,1-.76.12H85.2l-.43,0h-.65l-.06,0-.3.17,0,0v0l1.42.82h.08l.31-.19,0,0h0Z"/><path class="cls-5" d="M88.42,225.12a1.33,1.33,0,0,0-.52-.17,1.67,1.67,0,0,0-.55,0,1.59,1.59,0,0,0-.41.16.79.79,0,0,0-.28.26.33.33,0,0,0,0,.29.63.63,0,0,0,.24.25.9.9,0,0,0,.46.12h0l-.31.18-.25.06-.26-.06-.11-.15.1-.15,0,0v0l-.38-.21h-.06l-.1,0a.39.39,0,0,0-.2.23.25.25,0,0,0,0,.26.82.82,0,0,0,.29.25,1.49,1.49,0,0,0,.44.17,1.2,1.2,0,0,0,.46,0,.86.86,0,0,0,.39-.13l1-.56a1.05,1.05,0,0,0,.27-.21.31.31,0,0,0,0-.33A.65.65,0,0,0,88.42,225.12Zm-.3.45-.15.14a.73.73,0,0,1-.26.09.52.52,0,0,1-.37-.05c-.1-.06-.13-.13-.11-.21l.17-.15.25-.09a.54.54,0,0,1,.38,0C88.14,225.42,88.17,225.49,88.12,225.57Z"/><path class="cls-5" d="M108.78,238.27a.29.29,0,0,0-.06-.42h0l.79,0,.08,0,.35-.21h0l0,0-1.31-.75,0,0h0l-.32.19v.05l.74.42h0l-.93,0-.05,0h0l-.07.26v0h0l.15,0,.09,0c.11.06.14.14.09.23a.6.6,0,0,1-.2.17.88.88,0,0,1-.27.1.5.5,0,0,1-.4-.05l-.1-.11,0-.13.12-.11v-.05l-.38-.21H107a.85.85,0,0,0-.22.18.36.36,0,0,0-.07.35.56.56,0,0,0,.3.31,1.23,1.23,0,0,0,.53.17,1.41,1.41,0,0,0,.58,0,1.73,1.73,0,0,0,.37-.16A1,1,0,0,0,108.78,238.27Z"/><path class="cls-5" d="M111.07,238.2a1.41,1.41,0,0,0-.75-.2,1.3,1.3,0,0,0-.72.19l-.85.49c-.23.13-.34.28-.34.43s.12.3.35.43a1.49,1.49,0,0,0,.74.2,1.35,1.35,0,0,0,.75-.19l.85-.5c.22-.12.33-.26.32-.42S111.3,238.33,111.07,238.2Zm-.41.59-.88.51a.57.57,0,0,1-.32.09.5.5,0,0,1-.31-.08c-.09-.05-.14-.11-.13-.17s.06-.13.15-.19l.89-.51a.59.59,0,0,1,.32-.09.67.67,0,0,1,.31.07c.1.06.14.12.13.19S110.76,238.73,110.66,238.79Z"/><path class="cls-5" d="M131.79,251.55a.29.29,0,0,0-.07-.42h0l.8,0h.08l.35-.21v0h0l-1.31-.76h-.06l-.32.18,0,0v0l.74.42h0l-.94,0h0v0l-.08.26v0h0l.15,0,.08,0c.12.06.15.14.09.23a.6.6,0,0,1-.2.17.93.93,0,0,1-.26.1.54.54,0,0,1-.4,0l-.11-.12,0-.13.12-.11v-.05l-.37-.21H130a2.38,2.38,0,0,0-.22.18.35.35,0,0,0-.06.35.54.54,0,0,0,.29.31,1.4,1.4,0,0,0,1.11.13,1.26,1.26,0,0,0,.38-.15A1,1,0,0,0,131.79,251.55Z"/><polygon class="cls-5" points="133.67 251.28 133.61 251.25 133.13 251.15 133.05 251.17 132.79 251.33 132.78 251.36 132.79 251.37 133.19 251.5 133.2 251.51 133.19 251.52 131.43 252.54 131.42 252.56 131.43 252.59 131.79 252.8 131.85 252.81 131.88 252.8 134.05 251.54 134.07 251.52 134.04 251.49 133.67 251.28"/><path class="cls-4" d="M158.58,169.05a1.19,1.19,0,0,0-.14-.85,9,9,0,0,0-.71-1c-.3-.37-.52-.65-.64-.84a.79.79,0,0,1-.16-.5c0-.14.12-.26.3-.37a1.56,1.56,0,0,1,.91-.19,2.38,2.38,0,0,1,1.05.33c.44.26.68.53.71.8a.69.69,0,0,1-.43.69l-.09.05-.06.09.06.07,1.28.74.13,0,.14,0,.17-.09a1.9,1.9,0,0,0,.9-1,1.26,1.26,0,0,0-.19-1.09,3.28,3.28,0,0,0-1.19-1,5.48,5.48,0,0,0-1.68-.65,4.83,4.83,0,0,0-1.73-.1,3.88,3.88,0,0,0-1.53.49,1.57,1.57,0,0,0-.81.87,1.31,1.31,0,0,0,.12.93,6.45,6.45,0,0,0,.73,1,9.43,9.43,0,0,1,.58.79.78.78,0,0,1,.15.47.47.47,0,0,1-.28.37,1.73,1.73,0,0,1-.91.2,2.52,2.52,0,0,1-1.14-.36,1.51,1.51,0,0,1-.79-.82c-.07-.28,0-.5.36-.68l.17-.1,0-.08,0-.07-1.26-.73-.14,0-.13,0-.25.15a1.75,1.75,0,0,0-.89.93,1.13,1.13,0,0,0,.2,1.07,3.74,3.74,0,0,0,1.26,1.06,6.17,6.17,0,0,0,2.68.84,4.26,4.26,0,0,0,2.44-.53C158.25,169.66,158.52,169.37,158.58,169.05Z"/><path class="cls-4" d="M164.85,173.53l-.06-.07-1.24-.78a.27.27,0,0,0-.26,0A2.56,2.56,0,0,1,162,173a2.5,2.5,0,0,1-1.31-.33c-.4-.23-.6-.48-.59-.76s.19-.53.59-.76l2.72-1.59a2.7,2.7,0,0,1,2.64,0c.39.23.58.48.58.76s-.2.54-.59.77l0,.14h0l1.38.7a.28.28,0,0,0,.25,0,2.26,2.26,0,0,0,1-1,1.16,1.16,0,0,0-.09-1.11,3,3,0,0,0-1.18-1.06,5.79,5.79,0,0,0-3.82-.7,4.91,4.91,0,0,0-1.78.63l-2.61,1.52a2.64,2.64,0,0,0-1.1,1,1.23,1.23,0,0,0,0,1.15,2.94,2.94,0,0,0,1.17,1.07,5.7,5.7,0,0,0,1.83.68,6,6,0,0,0,1.93,0,4.72,4.72,0,0,0,1.74-.59Z"/><polygon class="cls-4" points="176.91 174.41 176.87 174.34 175.57 173.59 175.44 173.56 175.3 173.59 172.26 175.36 172.14 175.36 169.7 173.95 169.7 173.88 172.74 172.12 172.79 172.04 172.75 171.96 171.45 171.21 171.32 171.18 171.18 171.21 163.53 175.66 163.48 175.74 163.53 175.81 164.83 176.56 164.96 176.59 165.09 176.56 168.22 174.75 168.33 174.75 170.77 176.15 170.77 176.22 167.65 178.04 167.6 178.11 167.65 178.19 168.94 178.94 169.08 178.97 169.21 178.94 176.86 174.49 176.91 174.41"/><polygon class="cls-4" points="177.03 182.06 176.97 181.98 173.34 179.89 173.33 179.82 175.16 178.76 175.28 178.76 177.67 180.13 177.8 180.16 177.93 180.13 179.03 179.5 179.09 179.41 179.03 179.34 176.65 177.97 176.65 177.9 178.4 176.88 178.51 176.88 182.14 178.98 182.28 179.01 182.41 178.97 183.51 178.33 183.57 178.26 183.52 178.18 178.4 175.22 178.27 175.19 178.13 175.23 170.48 179.67 170.43 179.75 170.48 179.83 175.6 182.78 175.74 182.81 175.86 182.78 176.97 182.14 177.03 182.06"/><path class="cls-4" d="M188.91,182.62a1.09,1.09,0,0,0-.12-1,3.15,3.15,0,0,0-1.16-1L184.87,179l-.13,0-.14,0L177,183.41l0,.07,0,.08,2.76,1.6a5.65,5.65,0,0,0,1.77.66,5.21,5.21,0,0,0,1.8.07,4.25,4.25,0,0,0,1.61-.53l3.12-1.81A1.94,1.94,0,0,0,188.91,182.62Zm-2.73.18-2.59,1.51a2.69,2.69,0,0,1-1.28.36,2.13,2.13,0,0,1-1.16-.28l-1.34-.77v-.06l5.07-2.95H185l1.33.76c.35.2.51.44.5.69S186.58,182.57,186.18,182.8Z"/><path class="cls-4" d="M197.12,186.19l0-.08,0-.08-1.29-.74-.13,0-.14,0-5.17,3a2.7,2.7,0,0,1-2.64,0c-.4-.23-.59-.49-.58-.76s.2-.54.6-.78l5.18-3,.06-.07-.06-.09-1.3-.75-.13,0-.14,0-5.15,3a2.46,2.46,0,0,0-1.06,1,1.17,1.17,0,0,0,.05,1.13,2.87,2.87,0,0,0,1.17,1.07,5.28,5.28,0,0,0,1.83.66,5.62,5.62,0,0,0,2,0,5.44,5.44,0,0,0,1.79-.62Z"/><polygon class="cls-4" points="197.28 193.76 197.23 193.68 193.61 191.59 193.61 191.53 199.97 187.83 200.02 187.76 199.97 187.68 198.68 186.93 198.53 186.9 198.41 186.93 190.76 191.38 190.7 191.45 190.76 191.53 195.85 194.48 196 194.51 196.12 194.47 197.23 193.83 197.28 193.76"/><polygon class="cls-4" points="210.12 193.54 205 190.58 204.87 190.56 204.74 190.59 197.09 195.03 197.03 195.11 197.08 195.19 202.2 198.14 202.34 198.17 202.47 198.14 203.57 197.5 203.63 197.42 203.57 197.34 199.94 195.25 199.94 195.18 201.77 194.12 201.89 194.12 204.26 195.49 204.4 195.52 204.54 195.49 205.63 194.85 205.69 194.77 205.63 194.69 203.25 193.32 203.25 193.26 205.01 192.24 205.12 192.24 208.75 194.34 208.89 194.37 209.01 194.33 210.12 193.69 210.18 193.62 210.12 193.54"/><path class="cls-6" d="M295.68,261.16q.33-.2.33-.42c0-.16-.12-.3-.35-.44a1.4,1.4,0,0,0-.75-.19,1.3,1.3,0,0,0-.72.19l-.85.49c-.23.13-.34.27-.34.42s.11.3.35.44a1.5,1.5,0,0,0,.75.2,1.36,1.36,0,0,0,.73-.2Zm-1.63.34a.55.55,0,0,1-.31-.08c-.09-.05-.14-.11-.13-.18s.05-.13.14-.18l.88-.52a.76.76,0,0,1,.32-.08.56.56,0,0,1,.32.07.22.22,0,0,1,.13.18c0,.07,0,.13-.15.19l-.88.51A.62.62,0,0,1,294.05,261.5Z"/><polygon class="cls-6" points="298 261.69 296.63 260.9 296.59 260.89 296.56 260.9 296.04 261.2 296.02 261.22 296.04 261.24 296.33 261.41 296.36 261.42 296.4 261.41 296.55 261.32 296.58 261.32 297.17 261.66 297.15 261.68 294.68 262.32 294.68 262.37 295.07 262.59 295.14 262.61 297.62 261.94 297.69 261.93 298.01 261.74 298.02 261.71 298 261.69"/><polygon class="cls-6" points="277.59 271.03 277.58 271.01 277.19 270.8 277.14 270.77 276.65 270.68 276.58 270.68 276.31 270.85 276.31 270.89 276.32 270.89 276.72 271.02 276.73 271.03 276.72 271.04 274.97 272.06 274.95 272.08 274.96 272.11 275.33 272.32 275.37 272.33 275.41 272.31 277.58 271.05 277.59 271.03"/><polygon class="cls-6" points="278.52 271.56 278.44 271.54 276.58 271.97 276.52 272 276.27 272.14 276.25 272.16 276.26 272.19 277.23 272.75 277.23 272.77 276.71 273.07 276.69 273.09 276.7 273.11 277.07 273.33 277.12 273.33 277.15 273.32 277.67 273.02 277.7 273.02 277.83 273.1 277.88 273.1 277.92 273.1 278.24 272.91 278.25 272.89 278.24 272.86 278.11 272.79 278.11 272.77 278.5 272.54 278.52 272.51 278.51 272.5 278.13 272.28 278.1 272.27 278.06 272.29 277.67 272.51 277.63 272.51 277.15 272.23 277.14 272.23 277.16 272.22 278.89 271.82 278.93 271.81 278.91 271.78 278.52 271.56"/><path class="cls-6" d="M257.42,282.64h.79l.45,0a3.11,3.11,0,0,0,.51-.06,1.35,1.35,0,0,0,.34-.12.61.61,0,0,0,.24-.24.38.38,0,0,0,0-.29.79.79,0,0,0-.3-.26,1.46,1.46,0,0,0-.43-.18,1.84,1.84,0,0,0-.46,0,1.14,1.14,0,0,0-.43.12l-.14.09,0,0,0,0,.37.22h0l0,0,.08,0,.27-.07a.69.69,0,0,1,.28.08.24.24,0,0,1,.13.16l-.1.15a2,2,0,0,1-.78.12h-.37l-.44,0h-.64l-.07,0-.3.17v0l0,0,1.41.82H258l.32-.18v-.05Z"/><polygon class="cls-6" points="260.79 282.44 260.74 282.42 260.25 282.32 260.18 282.33 259.91 282.5 259.9 282.53 259.92 282.54 260.31 282.66 260.32 282.68 260.31 282.68 258.55 283.71 258.54 283.73 258.56 283.75 258.92 283.96 258.96 283.97 259 283.97 261.17 282.7 261.19 282.68 261.17 282.66 260.79 282.44"/><path class="cls-6" d="M238.88,293.06h.8l.45,0a3.14,3.14,0,0,0,.51-.07,1,1,0,0,0,.34-.12c.12-.07.2-.14.22-.23a.3.3,0,0,0,0-.29.81.81,0,0,0-.3-.27,1.67,1.67,0,0,0-.44-.17,1.75,1.75,0,0,0-.46,0,1,1,0,0,0-.42.12l-.15.09v0l0,0,.36.21h.08l.08,0,.26-.07a.57.57,0,0,1,.29.08.22.22,0,0,1,.13.16l-.1.15a2.09,2.09,0,0,1-.77.11l-.39,0H239l-.65,0-.07,0-.29.17,0,0,0,0,1.42.82h.06l.32-.19v0Z"/><path class="cls-6" d="M242.66,293a1.44,1.44,0,0,0-.41-.15,1.68,1.68,0,0,0-.45,0,1.08,1.08,0,0,0-.5.15.56.56,0,0,0-.22.21l0,.16,0,0h-.33a1.68,1.68,0,0,0-.4.15.77.77,0,0,0-.26.24.29.29,0,0,0,0,.31.82.82,0,0,0,.3.28,1.3,1.3,0,0,0,.49.17,1.51,1.51,0,0,0,.52,0,1,1,0,0,0,.4-.15.67.67,0,0,0,.26-.23l0-.21h.29a.94.94,0,0,0,.38-.12.53.53,0,0,0,.26-.3.29.29,0,0,0-.05-.25A.68.68,0,0,0,242.66,293Zm-1.15,1-.16.14a.65.65,0,0,1-.28.09.52.52,0,0,1-.35-.06c-.1,0-.14-.13-.09-.2l.14-.15a.77.77,0,0,1,.26-.1.54.54,0,0,1,.36.06C241.51,293.83,241.54,293.9,241.51,294Zm.85-.5-.1.09-.22.08a.54.54,0,0,1-.33-.07c-.1-.06-.14-.12-.12-.19l.13-.12.17-.06h.19l.18.05.11.11Z"/><path class="cls-1" d="M133.67,160.33a14.09,14.09,0,0,1-2.41-7.34c0-2.12.76-3.61,2-4.31l-5.87,2.39c-1.21.71-2,2.2-2,4.31,0,2.49,1.6,5.29,3.66,7.63Z"/><path class="cls-2" d="M138,145.29c-2.8-1.61-5.33-1.76-7.16-.69L126.7,147c1.83-1.06,17.22,11.71,17.2,18.09l4.16-2.41C148.08,156.3,143.58,148.5,138,145.29Z"/><path class="cls-2" d="M133.86,147.71c-5.55-3.21-10.09-.62-10.11,5.76a20.81,20.81,0,0,0,3.4,10.65l2.36-1.37a14.19,14.19,0,0,1-2.41-7.35c0-4.26,3-6,6.75-3.84a14.8,14.8,0,0,1,6.71,11.61l3.34,1.93C143.92,158.72,139.42,150.92,133.86,147.71Z"/><path class="cls-1" d="M107.63,175.47a14,14,0,0,1-2.41-7.34c0-2.11.75-3.61,2-4.31l-5.87,2.4c-1.21.7-2,2.19-2,4.31,0,2.48,1.59,5.29,3.66,7.63Z"/><path class="cls-2" d="M112,160.44c-2.8-1.62-5.34-1.76-7.17-.7l-4.16,2.42c1.83-1.07,17.23,11.71,17.21,18.09l4.16-2.42C122,171.45,117.53,163.65,112,160.44Z"/><path class="cls-2" d="M107.82,162.85c-5.56-3.2-10.09-.62-10.11,5.77a20.78,20.78,0,0,0,3.4,10.64l2.36-1.37a14,14,0,0,1-2.41-7.34c0-4.26,3-6,6.75-3.85a14.8,14.8,0,0,1,6.7,11.62l3.35,1.93C117.88,173.87,113.37,166.06,107.82,162.85Z"/><path class="cls-1" d="M81.58,190.62a14.16,14.16,0,0,1-2.41-7.34c0-2.12.76-3.61,2-4.31l-5.87,2.4c-1.21.7-2,2.19-2,4.3,0,2.49,1.6,5.3,3.67,7.63Z"/><path class="cls-2" d="M85.93,175.59c-2.79-1.62-5.33-1.77-7.16-.7l-4.16,2.42c1.83-1.07,17.22,11.7,17.2,18.08L96,193C96,186.6,91.49,178.79,85.93,175.59Z"/><path class="cls-2" d="M81.77,178c-5.55-3.21-10.09-.62-10.11,5.76a20.87,20.87,0,0,0,3.4,10.65L77.43,193A14,14,0,0,1,75,185.69c0-4.26,3-6,6.74-3.84a14.8,14.8,0,0,1,6.71,11.61l3.34,1.93C91.83,189,87.33,181.21,81.77,178Z"/><path class="cls-1" d="M55.54,205.77a14,14,0,0,1-2.41-7.35c0-2.11.75-3.6,2-4.31l-5.87,2.4c-1.2.7-2,2.19-2,4.31,0,2.48,1.59,5.29,3.66,7.63Z"/><path class="cls-2" d="M59.89,190.73c-2.8-1.61-5.33-1.76-7.17-.69l-4.16,2.41c1.84-1.06,17.23,11.71,17.21,18.09l4.16-2.42C70,201.74,65.45,193.94,59.89,190.73Z"/><path class="cls-2" d="M55.73,193.15c-5.56-3.21-10.09-.62-10.11,5.76A20.84,20.84,0,0,0,49,209.56l2.36-1.38A14,14,0,0,1,49,200.84c0-4.26,3-6,6.75-3.84a14.76,14.76,0,0,1,6.7,11.61l3.35,1.93C65.79,204.16,61.29,196.36,55.73,193.15Z"/><path class="cls-7" d="M196.66,48.06c-10.18-6.13-27-6.3-37.66-.38-7.52,4.2-9.89,10.32-7,15.72l5.62,10.53,39.73-.11,5.57-10.57C205.64,58.08,203.59,52.23,196.66,48.06Z"/><path class="cls-7" d="M192.47,62c7.95,4.79,7.68,12.41-.61,17s-21.43,4.48-29.38-.3-7.67-12.4.61-17S184.53,57.18,192.47,62Z"/><path class="cls-2" d="M152.73,110l-9.57-48.87c.82,4.2,3.94,6.49,9.39,9.77,13.19,7.94,35,8.16,48.78.49,6.08-3.39,9.55-6,10.41-10.46l-9.29,48.92c-.62,3.26-3.14,6.42-7.55,8.88-10,5.56-25.8,5.4-35.37-.36C155.58,116,153.32,113,152.73,110Z"/><path class="cls-2" d="M202.34,44.9c13.19,7.94,12.74,20.59-1,28.26s-35.59,7.44-48.78-.5-12.74-20.59,1-28.26S189.15,37,202.34,44.9Zm-5.68,3.16c-10.18-6.13-27-6.3-37.66-.38s-11,15.69-.78,21.82,27.05,6.3,37.66.38,11-15.69.78-21.82"/><path class="cls-8" d="M176.37,67.37c-3-10-10.37-21.05,2.95-43.49A93.67,93.67,0,0,1,199.52.5S208,39,176.37,67.37Z"/><path class="cls-9" d="M176.37,67.37S174.67,37.51,199.52.5"/><path class="cls-9" d="M177,57.09s8.51-6.34,17.51-14.72"/><path class="cls-9" d="M180.15,41.71s11-9,19.38-16.61"/><path class="cls-9" d="M186.5,24.05s9.68-8.52,14-13.06"/><path class="cls-9" d="M188.55,19.59s-.62-3.94-.81-7.42"/><path class="cls-9" d="M181.05,38.64a77.89,77.89,0,0,1-3.23-12.12"/><path class="cls-9" d="M177.25,55.2A90.48,90.48,0,0,1,171.81,44"/><path class="cls-8" d="M178.25,71.35c3.53-9.85,4.24-23.08,28.33-33.14a93.82,93.82,0,0,1,30.15-6.7S220.6,67.43,178.25,71.35Z"/><path class="cls-9" d="M178.25,71.35s16.46-25,58.48-39.84"/><path class="cls-9" d="M184.89,63.47s10.61,0,22.83-1.36"/><path class="cls-9" d="M196.6,53s14.17-.68,25.46-1.76"/><path class="cls-9" d="M212.23,42.63s12.85-1.06,19.06-2.1"/><path class="cls-9" d="M216.54,40.28s1.85-3.53,3.77-6.43"/><path class="cls-9" d="M199.16,51.09a78.09,78.09,0,0,1,4.64-11.66"/><path class="cls-9" d="M186.22,62.11a89.58,89.58,0,0,1,2.3-12.2"/><path class="cls-8" d="M175,68c-2.5-10.15-1.84-23.39-24.76-35.88A93.83,93.83,0,0,0,121,22.36S133.29,59.75,175,68Z"/><path class="cls-9" d="M175,68S161.22,41.48,121,22.36"/><path class="cls-9" d="M169.23,59.49s-10.55-1.1-22.57-3.7"/><path class="cls-9" d="M158.65,47.89s-14-2.14-25.14-4.38"/><path class="cls-9" d="M144.18,36s-12.68-2.38-18.75-4.05"/><path class="cls-9" d="M140.13,33.16s-1.48-3.69-3.09-6.78"/><path class="cls-9" d="M156.31,45.71a77.41,77.41,0,0,0-3.42-12.07"/><path class="cls-9" d="M168,58a88.89,88.89,0,0,0-1-12.37"/><path class="cls-8" d="M175.51,69.24s7.67-8,18.85-6.59c9.1,3.82,15.24,12.78,14.69,30.62-10.33-3.24-26.49-12.08-33.58-16.1a3.92,3.92,0,0,1-1.7-5.57A19.79,19.79,0,0,1,175.51,69.24Z"/><path class="cls-9" d="M176.24,68.56c8.66-2.69,20.2,2.18,32.81,24.71"/><path class="cls-9" d="M180.92,67.9a34.21,34.21,0,0,1,13.44-5.25"/><path class="cls-9" d="M191,71.37a82.15,82.15,0,0,1,14.53,1.82"/><path class="cls-9" d="M200.25,80.05s5.21,1.62,8.28,3"/><path class="cls-9" d="M198.73,78.26s-.64,6-.94,10.5"/><path class="cls-9" d="M190,70.75s.05,8.54-.42,14"/><path class="cls-9" d="M178.64,68s-2.3,3.46-1.73,10"/><path class="cls-8" d="M177,68.14s-9.45-9.88-23.21-8.11c-11.21,4.7-18.77,15.73-18.09,37.69,12.71-4,32.62-14.87,41.35-19.82,2.71-1.53,3.56-4.52,2.09-6.86A23.68,23.68,0,0,0,177,68.14Z"/><path class="cls-9" d="M176.14,67.3C165.48,64,151.26,70,135.74,97.72"/><path class="cls-9" d="M170.38,66.48s-7.59-5.3-16.55-6.45"/><path class="cls-9" d="M157.92,70.76A100.36,100.36,0,0,0,140,73"/><path class="cls-9" d="M146.57,81.44s-6.41,2-10.19,3.73"/><path class="cls-9" d="M148.44,79.24s.79,7.39,1.16,12.93"/><path class="cls-9" d="M159.15,70s-.07,10.51.52,17.29"/><path class="cls-9" d="M173.19,66.6s2.82,4.26,2.12,12.31"/><path class="cls-1" d="M300.31,40.76c-16.29-9.08-31-9.79-41.63-3.59C253.54,40.16,224.14,57,219,60l.25-.14c-11.16,6.33-18,20.16-17.74,39.82v.64l58.73,101.09.55.32,1.54.88c16.42,9.15,31.21,9.79,41.88,3.43l-.26.16c5.15-3,34.54-19.82,39.69-22.8,11-6.4,17.73-20.17,17.49-39.68C360.66,105.3,333.43,59.21,300.31,40.76Z"/><path class="cls-1" d="M311.81,161.12,260.2,74.4c-28.11-15.67-50.58-2-50.18,30.63s23.51,71.69,51.62,87.36,50.58,2,50.18-30.64Z"/><path class="cls-2" d="M315.39,159c.39,32.21-21.82,45.78-49.62,30.29s-50.65-54.17-51-86.39,21.82-45.78,49.62-30.29S315,126.82,315.39,159Z"/><path class="cls-5" d="M263.65,134.24l.08,6.23a3.21,3.21,0,0,0,1.47,2.5c.8.44,1.44.05,1.43-.88l-.07-6.23a3.58,3.58,0,0,1-1.45-.48,6.49,6.49,0,0,1-1.46-1.14m.87-47c-.8-.45-1.44-.06-1.43.87l.46,38a3.56,3.56,0,0,1,1.45.47,6.26,6.26,0,0,1,1.46,1.15l-.47-38a3.17,3.17,0,0,0-1.47-2.49"/><path class="cls-5" d="M265,129.94c-.5-.29-.9,0-.89.54a2,2,0,0,0,.92,1.56c.5.28.91,0,.9-.54a2,2,0,0,0-.93-1.56m-2.9-3.41a2.84,2.84,0,0,0-.87,2.35,5.69,5.69,0,0,0,.08.91l-4.53.39c-.58,0-.78.79-.45,1.66a2.64,2.64,0,0,0,1.08,1.32,1,1,0,0,0,.59.15l4.57-.39a9,9,0,0,0,1,1.32,6.49,6.49,0,0,0,1.46,1.14,3.58,3.58,0,0,0,1.45.48,2.33,2.33,0,0,0,.6,0L266,133.57a1.76,1.76,0,0,1-.86-.24,4.44,4.44,0,0,1-2-3.46,1.7,1.7,0,0,1,.31-1.1l-1.21-2.24M285,128a1.07,1.07,0,0,0-.58-.15l-16.8,1.45a8.84,8.84,0,0,0-1.16-1.52,6.26,6.26,0,0,0-1.46-1.15,3.56,3.56,0,0,0-1.45-.47,2.29,2.29,0,0,0-.7,0l1.21,2.24a1.72,1.72,0,0,1,1,.24,4.42,4.42,0,0,1,2,3.46,1.61,1.61,0,0,1-.38,1.17l1.2,2.23a2.78,2.78,0,0,0,.95-2.41,5.65,5.65,0,0,0,0-.71l16.84-1.45c.58-.05.79-.79.45-1.66A2.68,2.68,0,0,0,285,128"/><path class="cls-5" d="M265.68,84l-.06-5.42a2.65,2.65,0,0,0-1.23-2.07c-.67-.38-1.2,0-1.19.72l.06,5.42a2.65,2.65,0,0,0,1.23,2.08C265.16,85.09,265.69,84.77,265.68,84Z"/><path class="cls-5" d="M286.17,102.45l2.28-3.39A2.05,2.05,0,0,0,288,96.9a2.41,2.41,0,0,0-.61-.53c-.42-.23-.82-.21-1,.12l-2.28,3.39a2.06,2.06,0,0,0,.46,2.16,2.11,2.11,0,0,0,.61.53C285.55,102.8,286,102.78,286.17,102.45Z"/><path class="cls-5" d="M300.4,128.41a1,1,0,0,0,.6.14l4-.45c.57-.07.76-.81.42-1.67a2.67,2.67,0,0,0-1.06-1.29,1,1,0,0,0-.6-.14l-4,.45c-.57.07-.76.82-.42,1.67A2.67,2.67,0,0,0,300.4,128.41Z"/><path class="cls-5" d="M310.84,155.11l-4.68-2.61c-.67-.37-1.2,0-1.19.73a2.67,2.67,0,0,0,1.23,2.08l4.68,2.61c.66.37,1.2,0,1.19-.73A2.65,2.65,0,0,0,310.84,155.11Z"/><path class="cls-5" d="M301.55,173.79a2.17,2.17,0,0,0-.6-.52c-.42-.24-.83-.21-1,.11a2.07,2.07,0,0,0,.46,2.17l4.09,5a2,2,0,0,0,.61.53c.42.23.82.21,1-.11a2.1,2.1,0,0,0-.47-2.17Z"/><path class="cls-5" d="M287.16,183.61a2.59,2.59,0,0,0-1.05-1.28,1.12,1.12,0,0,0-.61-.16c-.57.07-.76.82-.42,1.68l2.4,6a2.58,2.58,0,0,0,1.06,1.29,1,1,0,0,0,.6.15c.57-.07.76-.81.42-1.67Z"/><path class="cls-5" d="M265.62,177.25c-.67-.37-1.2,0-1.19.73l.07,5.43a2.61,2.61,0,0,0,1.22,2.07c.67.37,1.2.05,1.19-.73l-.06-5.42A2.65,2.65,0,0,0,265.62,177.25Z"/><path class="cls-5" d="M245,159.41c-.42-.24-.82-.21-1,.12l-2.28,3.39a2,2,0,0,0,.47,2.16,2.17,2.17,0,0,0,.6.52c.42.24.82.21,1-.11l2.28-3.39a2.37,2.37,0,0,0-1.07-2.69Z"/><path class="cls-5" d="M229.71,133.57a1,1,0,0,0-.6-.15l-4,.46c-.57.06-.76.81-.42,1.67a2.59,2.59,0,0,0,1.06,1.28,1.05,1.05,0,0,0,.6.15l4-.46c.57-.06.76-.8.42-1.66A2.58,2.58,0,0,0,229.71,133.57Z"/><path class="cls-5" d="M225.14,108.75a2.65,2.65,0,0,0-1.23-2.08l-4.67-2.61c-.67-.37-1.21,0-1.2.73a2.65,2.65,0,0,0,1.23,2.07l4.68,2.61C224.62,109.84,225.15,109.52,225.14,108.75Z"/><path class="cls-5" d="M228.56,88.18a2.06,2.06,0,0,0,.6.53c.42.23.82.21,1-.12a2.05,2.05,0,0,0-.46-2.16l-4.09-5a2.17,2.17,0,0,0-.6-.52c-.42-.24-.82-.21-1,.12a2,2,0,0,0,.46,2.15Z"/><path class="cls-5" d="M244,79.65a1,1,0,0,0,.6.15c.57-.07.76-.81.42-1.67l-2.4-6a2.58,2.58,0,0,0-1-1.28,1,1,0,0,0-.61-.15c-.57.06-.76.81-.42,1.67l2.4,6A2.58,2.58,0,0,0,244,79.65Z"/><path class="cls-10" d="M265.07,132a2,2,0,0,1-.92-1.56c0-.58.39-.83.89-.54a2,2,0,0,1,.93,1.56c0,.58-.4.82-.9.54m-5.91-12.4a.37.37,0,0,0-.32,0c-.19.09-.21.43,0,.77l3.33,6.16,1.21,2.24a1.7,1.7,0,0,0-.31,1.1,4.44,4.44,0,0,0,2,3.46,1.76,1.76,0,0,0,.86.24l1.21,2.25,21.9,40.51a1.06,1.06,0,0,0,.36.39.34.34,0,0,0,.33,0c.19-.09.21-.44,0-.76l-21.89-40.49-1.2-2.23a1.61,1.61,0,0,0,.38-1.17,4.42,4.42,0,0,0-2-3.46,1.72,1.72,0,0,0-1-.24l-1.21-2.24L259.53,120a.93.93,0,0,0-.37-.39"/><path class="cls-1" d="M320.32,166.5c.47,38-25.75,54-58.56,35.75s-59.78-63.93-60.25-102,25.76-54,58.57-35.75S319.86,128.47,320.32,166.5Zm-8.5-4.75c-.4-32.58-23.51-71.69-51.62-87.35S209.62,72.45,210,105s23.51,71.69,51.62,87.36,50.58,2,50.18-30.64"/><path class="cls-11" d="M247.45,252.59l12-20.7,17.91-13.72,16,20.91-21.26,16.29-19.57,4.21a14.31,14.31,0,0,0-2.19-4.13A14,14,0,0,0,247.45,252.59Z"/><path class="cls-12" d="M247.45,252.59a14,14,0,0,1,3,2.86,14.31,14.31,0,0,1,2.19,4.13l-10.53,2.27Z"/><path class="cls-13" d="M331.48,176.65A13.21,13.21,0,0,0,329,195.16h0a13.2,13.2,0,0,0,18.51,2.44L365.28,184a13.19,13.19,0,0,0,2.44-18.5h0a13.2,13.2,0,0,0-18.5-2.45Z"/><path class="cls-2" d="M259.49,231.89,338.93,171,335,178.42l-77.15,59.13C261.65,234,262.46,230.84,259.49,231.89Z"/><path class="cls-1" d="M257.85,237.55,335,178.42l6.38,11.7-77.11,59.11A8.73,8.73,0,0,0,257.85,237.55Z"/><path class="cls-2" d="M264.27,249.23l77.11-59.11,10.33,4.28-79.44,60.89C274,252.77,270,247.64,264.27,249.23Z"/><polygon class="cls-14" points="346.13 165.48 338.93 171 335 178.42 342.19 172.9 346.13 165.48"/><polygon class="cls-14" points="342.19 172.9 335 178.42 341.38 190.12 348.58 184.6 342.19 172.9"/><polygon class="cls-14" points="348.58 184.6 341.38 190.12 351.71 194.4 358.91 188.88 348.58 184.6"/><path class="cls-1" d="M102.27,130.76l-101.5.3,0,10.36c0,7.09,4.44,14.19,13.39,19.81,19,11.92,51.07,12.64,71.7,1.61,10.91-5.83,16.43-13.77,16.41-21.73Z"/><path class="cls-1" d="M85.87,152.48c-20.64,11-52.75,10.31-71.71-1.61s-17.62-30.51,3-41.54S69.91,99,88.88,110.94,106.5,141.46,85.87,152.48Z"/><path class="cls-2" d="M92.56,122.33a31,31,0,0,0-.72-3.28,46.61,46.61,0,0,0-1.9-5.35c-.35-.87-1-2-1.4-2.81a38.19,38.19,0,0,0-4.68-6.66,43.79,43.79,0,0,0-6.42-6A41.18,41.18,0,0,0,74,95.87C72.62,95,70.79,94,69.38,93.31a64.05,64.05,0,0,0-8.5-3.38,13.65,13.65,0,0,1-2.59-1,12.15,12.15,0,0,1-2.36-1.71c1.33,1.23,1,2.88-.92,3.91A8.31,8.31,0,0,1,47.47,91c-1.66-1-1.84-2.57-.61-3.72A11.54,11.54,0,0,1,44.42,89a14.36,14.36,0,0,1-2.53,1,58.17,58.17,0,0,0-9.73,4.07A58.34,58.34,0,0,0,27,97.24c-1.11.81-2.55,1.94-3.6,2.81-.67.56-1.5,1.38-2.14,2A35.81,35.81,0,0,0,18,105.63c-1,1.22-2.11,3-2.94,4.26A37.06,37.06,0,0,0,11.2,119,57.62,57.62,0,0,0,10,125.67c-.13,1-.1,2.47-.14,3.53,0,5.82,3.65,11.64,11,16.25,15.56,9.77,41.89,10.36,58.81,1.32C88.63,142,93.16,135.47,93.14,129,93.05,127,92.82,124.3,92.56,122.33Z"/><path class="cls-2" d="M79.46,66.34c-16.93,9-43.26,8.45-58.82-1.32C13.81,60.73,10.2,55.38,9.72,50a52.75,52.75,0,0,0,.52,5.42A32.31,32.31,0,0,0,11.69,61a43.52,43.52,0,0,0,2.57,5.8c.78,1.33,1.9,3,2.79,4.31A26.59,26.59,0,0,0,19,73.49c2.17,2.44,8.77,9.84,23,14.29a14.11,14.11,0,0,1,2.65,1,11.66,11.66,0,0,1,2.32,1.69,3.61,3.61,0,0,0,.6.45,8.31,8.31,0,0,0,7.54.17,14.38,14.38,0,0,1,3.37-2.42,14.56,14.56,0,0,1,2.53-1c2-.67,3.64-1.27,5.25-1.94,1.37-.57,3.14-1.46,4.47-2.13a48.87,48.87,0,0,0,5.16-3.17,43,43,0,0,0,7-6.13,58,58,0,0,0,3.72-4.69c.89-1.3,1.89-3.17,2.64-4.56a36.44,36.44,0,0,0,2.39-6.4c.45-2,.92-4.64,1.18-6.65.13-1,.1-2.47.14-3.53C92.93,55,88.4,61.56,79.46,66.34Z"/><path class="cls-2" d="M9.72,50q0-.63-.06-1.2Q9.66,49.37,9.72,50Z"/><path class="cls-1" d="M102,36.31.5,36.61.53,47c0,7.1,4.45,14.2,13.39,19.81,19,11.92,51.07,12.64,71.71,1.62,10.91-5.83,16.42-13.78,16.4-21.73Z"/><path class="cls-1" d="M85.6,58C65,69.06,32.86,68.34,13.89,56.42s-17.62-30.51,3-41.54,52.74-10.3,71.71,1.61S106.23,47,85.6,58Z"/><path class="cls-2" d="M85.24,131.44a3,3,0,0,1-3-2.86c-.07-1.61-.26-3.76-.47-5.34,0-.39-.3-1.38-.43-1.86l-.06-.26a41.52,41.52,0,0,0-1.43-4c-.09-.23-.42-.84-.61-1.21l-.38-.71h0a29.8,29.8,0,0,0-2.39-3.55A3,3,0,0,1,81.2,108a32.73,32.73,0,0,1,3,4.5l.34.64c.39.74.69,1.32.88,1.79a42.46,42.46,0,0,1,1.68,4.72l.07.25a26,26,0,0,1,.56,2.58c.23,1.76.43,4.06.51,5.85a3,3,0,0,1-2.86,3.13Z"/><path class="cls-2" d="M73.1,107.15a3,3,0,0,1-1.86-.65l-.51-.39a3,3,0,1,1,3.68-4.74l.55.43a3,3,0,0,1-1.86,5.35Z"/><path class="cls-2" d="M18.85,123.39a3,3,0,0,1-2.9-3.78,32.23,32.23,0,0,1,3.37-8c.95-1.51,1.93-2.91,2.62-3.79a29.2,29.2,0,0,1,2.81-3.14,3,3,0,0,1,4.08,4.41,22.28,22.28,0,0,0-2.18,2.44c-.56.72-1.42,2-2.24,3.26a26.54,26.54,0,0,0-2.67,6.33A3,3,0,0,1,18.85,123.39Z"/></g></g></svg>