<svg xmlns="http://www.w3.org/2000/svg" viewBox="0 0 2845.86 1399.5"><defs><style>.cls-1{fill:#f9eded;}.cls-2{fill:#a8d29f;}.cls-3{fill:#82b378;}.cls-4{fill:#f93535;}.cls-5{fill:#f9c7c7;}.cls-6{fill:#fce0e0;}.cls-7{fill:#e87979;}.cls-8{fill:#ed6b6b;}.cls-9{fill:#d65454;}.cls-10{fill:#ffd9d9;}.cls-11{fill:#78acea;}.cls-12{fill:#f9afaf;}.cls-13{fill:#f99746;}.cls-14{fill:#fff;}.cls-15{fill:#c65447;}.cls-16{fill:#e0e0e0;opacity:0;}.cls-17{fill:#ffcdc2;}.cls-18{fill:#22393d;}.cls-19{fill:#121e21;}.cls-20{fill:#e0a4ab;}.cls-21{fill:#1e1e1e;}.cls-22{fill:#414042;}.cls-23{fill:#e56c9a;}.cls-24{fill:#008cd9;}.cls-25{fill:#21b3f4;}.cls-26{fill:#27aae1;}.cls-27{fill:#f84d8a;}.cls-28{fill:#f9a0c8;}.cls-29{fill:#df307e;}.cls-30{fill:#6c273d;}.cls-31{fill:#ff5252;}.cls-32{fill:#00a99d;}.cls-33{fill:#c60000;}.cls-34{fill:#e5707f;}.cls-35{opacity:0.1;}.cls-36{fill:#ff7bac;}</style></defs><g id="Layer_2" data-name="Layer 2"><g id="Слой_1" data-name="Слой 1"><path class="cls-1" d="M319.31,1395.94S9.54,1063.35,266.92,703.28c228.36-319.48,494.61-297.65,690-168,83.2,55.22,323.07,6.81,527.23-318.28C1762.52-226.32,2727.62,42.56,2551.65,724.62c-85.15,330.08,259.17,342.07,83.72,672Z"/><path class="cls-2" d="M914.18,753S760.93,534.84,701.05,563.11,914.18,753,914.18,753Z"/><path class="cls-2" d="M904.43,694.35s-23.4-164-60.31-157.57S904.43,694.35,904.43,694.35Z"/><path class="cls-3" d="M774.87,1205.55s14.73-73-42.47-82.15c0,0-38.8-1.35-61.64,13.28,0,0,64.88,37.45,57.16,49.1s-69.28-47-69.28-47-69.55,30.46-85.08,52.52c0,0,82.19,14.64,71.85,24s-96.58-1.88-96.58-1.88-55.56,44.75-31.36,80.38,51.82,35.38,60.56,29.19,51.54-57.35,57-50.4-13.39,50.16-35.67,64.13c0,0,70,23.56,91-6.29s11.33-53.07,24.69-71.28S743.75,1232.48,741,1245s-30.66,38.75-30.78,62.62-2.48,41.25,24.78,20.14,63.49-69.92,51.68-96Z"/><path class="cls-3" d="M548.21,1278s163.18-99.61,226.66-72.49c0,0,21.78,19.85,59.26,28.06l9.85,8.46s-45.92-14.32-57.29-10.39C786.69,1231.68,769.84,1163.55,548.21,1278Z"/><path class="cls-3" d="M834.13,1233.61s50.58,6.47,79.5,52.39l-6.17,4.21s-38.76-42.53-70.11-50.11S834.13,1233.61,834.13,1233.61Z"/><path class="cls-2" d="M824.83,992.6s118.5-66.36,63.2-156.42c0,0-44.24-55.3-91.64-69.52,0,0,25.28,134.3,0,137.46S779,752.44,779,752.44s-124.82-60-173.81-55.3c0,0,77.43,131.14,52.15,128S545.16,689.24,545.16,689.24s-128-23.7-148.52,52.14,12.64,113.76,31.6,118.5,140.62,3.16,137.46,19-85.32,41.08-131.14,26.86c0,0,50.56,124.82,116.93,118.5s86.9-47.4,128-50.56,71.1,7.9,50.56,19-90.06,3.63-123.25,31.83-60,45.59,1.58,58.23,172.23,4.74,194.35-42.66Z"/><path class="cls-3" d="M455.1,765.08S786.91,872.52,824.83,992.6c0,0-1.58,53.72,31.6,115.34v23.7s-34.76-80.58-53.72-91.64C802.71,1040,877,935.72,455.1,765.08Z"/><path class="cls-3" d="M856.43,1107.94s51.17,77.71,22,172.29l-13.16-3.53s12.78-104.19-14-156.58S856.43,1107.94,856.43,1107.94Z"/><path class="cls-4" d="M945.26,437.39,768,1354a30.22,30.22,0,0,0,29.67,36h93.51Z"/><path class="cls-5" d="M2123.82,699.78s-79.75-50.87-37.7-111.29c0,0,33-36.69,66.5-44.69,0,0-22.94,92.38-5.49,95.59s18.14-104.78,18.14-104.78,89.19-36.77,123.06-31.52c0,0-59.07,88.1-41.36,86.92s83.43-90,83.43-90,89.94-11.37,101.19,42.18-13.33,78.6-26.7,81.14-97.91-3.41-96.34,7.7,57.69,32,90.12,23.91c0,0-40.14,84.78-86,77.74s-58.53-36.43-87-40.27-49.76,2.65-35.92,11.17,62.48,6.11,84.43,27,39.93,34.1-3.42,40.43-119.95-3.58-133.44-37.43Z"/><path class="cls-5" d="M2390,556.33s-235,61.46-266.18,143.45c0,0-1,37.42-26.58,78.94l-.94,16.48s27.39-54.64,41-61.58C2137.31,733.62,2089.84,658.15,2390,556.33Z"/><path class="cls-5" d="M2097.24,778.72s-38.68,52-22.17,118.93l9.29-1.94s-4.72-73,16-108.32S2097.24,778.72,2097.24,778.72Z"/><path class="cls-6" d="M1909.09,479s-122.53-26.91-97.78-121.34c0,0,24.29-60.74,62.38-86,0,0,13.64,125.49,36.84,121.51s-25.29-138.74-25.29-138.74,94.25-86.52,138.82-95.46c0,0-33.29,136.68-11.79,127.11S2075,135.85,2075,135.85s106.78-55.24,145.26,6.29,19.31,104,3.82,113.22-123.46,40.48-116.43,53.6,86.43,13.45,123.12-11.4c0,0-11.25,123.89-71.6,136.08s-89.52-18.61-126.68-10.4-60.73,26-39.61,30.31,80.58-20.93,117.47-4.88,65.29,24.21,14.2,51.89-151,50.34-183.22,14.37Z"/><path class="cls-6" d="M2175,178.76S1910.44,362.65,1909.09,479c0,0,15.8,47.06,3,110.42l6.35,21s9.13-80.54,22.93-95.4C1941.35,514.93,1847.76,442.65,2175,178.76Z"/><path class="cls-6" d="M1912.07,589.38s-24.41,82.4,26.72,158.2l10.69-6.66s-39.21-88.67-29.59-142.16S1912.07,589.38,1912.07,589.38Z"/><path class="cls-7" d="M947.39,433.68l-117.51,900a49.84,49.84,0,0,0,49.43,56.3h172.4l-97.2-959.53Z"/><path class="cls-8" d="M947.39,433.68l-52.6,894.24a58.6,58.6,0,0,0,58.5,62h257.12Z"/><path class="cls-9" d="M945.42,441,971,1327.92a58.6,58.6,0,0,0,58.5,62h257.12Z"/><path class="cls-10" d="M2176.45,1390H1162.65a52.42,52.42,0,0,1-51.56-43L956.82,503.35a62.37,62.37,0,0,1,61.36-73.58H2020a52.42,52.42,0,0,1,51.56,43L2228,1328.12A52.41,52.41,0,0,1,2176.45,1390Z"/><path class="cls-4" d="M976.89,612.92h1121l-28.74-159.28a29,29,0,0,0-28.56-23.87H954.77A9.51,9.51,0,0,0,945.42,441Z"/><path class="cls-11" d="M1003.1,381.84a48.64,48.64,0,0,0-48.6,48.59h9.34a39.26,39.26,0,1,1,41.5,39.21V479a48.06,48.06,0,0,0,12.42-2.21,48.59,48.59,0,0,0-14.66-94.93Z"/><path class="cls-11" d="M1018.14,474a10.83,10.83,0,0,1-.38,2.81,10.53,10.53,0,1,1-1.81-9.23A10.42,10.42,0,0,1,1018.14,474Z"/><path class="cls-11" d="M1177.36,381.84a48.64,48.64,0,0,0-48.6,48.59h9.32a39.26,39.26,0,1,1,41.51,39.21V479a48.14,48.14,0,0,0,12.42-2.21,48.59,48.59,0,0,0-14.65-94.93Z"/><path class="cls-11" d="M1192.38,474a11.27,11.27,0,0,1-.37,2.81,10.63,10.63,0,1,1,.37-2.81Z"/><path class="cls-11" d="M1351.62,381.84A48.65,48.65,0,0,0,1303,430.43h9.33a39.27,39.27,0,1,1,41.5,39.21V479a48.14,48.14,0,0,0,12.42-2.21,48.59,48.59,0,0,0-14.64-94.93Z"/><path class="cls-11" d="M1366.64,474a10.83,10.83,0,0,1-.38,2.81,10.55,10.55,0,1,1,.38-2.81Z"/><path class="cls-11" d="M1525.86,381.84a48.64,48.64,0,0,0-48.59,48.59h9.32a39.25,39.25,0,1,1,41.51,39.21V479a48.21,48.21,0,0,0,12.42-2.21,48.6,48.6,0,0,0-14.66-94.93Z"/><path class="cls-11" d="M1540.89,474a10.82,10.82,0,0,1-.37,2.81,10.54,10.54,0,1,1-1.82-9.23A10.42,10.42,0,0,1,1540.89,474Z"/><path class="cls-11" d="M1700.12,381.84a48.65,48.65,0,0,0-48.61,48.59h9.33a39.27,39.27,0,1,1,78.54,0,38.69,38.69,0,0,1-2,12.43,39.3,39.3,0,0,1-35,26.78V479a48.06,48.06,0,0,0,12.42-2.21,48.59,48.59,0,0,0-14.64-94.93Z"/><path class="cls-11" d="M1715.14,474a10.83,10.83,0,0,1-.38,2.81,10.53,10.53,0,1,1,.38-2.81Z"/><path class="cls-11" d="M1874.37,381.84a48.64,48.64,0,0,0-48.6,48.59h9.33a39.25,39.25,0,1,1,41.5,39.21V479a48.14,48.14,0,0,0,12.42-2.21,48.6,48.6,0,0,0-14.65-94.93Z"/><path class="cls-11" d="M1889.39,474a10.82,10.82,0,0,1-.37,2.81,10.54,10.54,0,1,1-1.82-9.23A10.42,10.42,0,0,1,1889.39,474Z"/><path class="cls-11" d="M2048.62,381.84A48.64,48.64,0,0,0,2000,430.43h9.32a39.28,39.28,0,0,1,78.55,0,38.7,38.7,0,0,1-2,12.43,39.3,39.3,0,0,1-35,26.78V479a48.06,48.06,0,0,0,12.41-2.21,48.59,48.59,0,0,0-14.65-94.93Z"/><path class="cls-11" d="M2063.65,474a10.83,10.83,0,0,1-.38,2.81,10.53,10.53,0,1,1-1.81-9.23A10.42,10.42,0,0,1,2063.65,474Z"/><path class="cls-12" d="M1625.18,912.14h-56.67c-6.55,0-13-5.36-14.21-11.91l-10.93-56.67c-1.26-6.55,3.06-11.91,9.61-11.91h56.67c6.55,0,12.95,5.36,14.21,11.91l10.93,56.67C1636.06,906.78,1631.73,912.14,1625.18,912.14Z"/><path class="cls-12" d="M1768.18,912.14h-56.67c-6.55,0-12.94-5.36-14.21-11.91l-10.93-56.67c-1.26-6.55,3.06-11.91,9.61-11.91h56.68c6.55,0,12.94,5.36,14.2,11.91l10.93,56.67C1779.06,906.78,1774.73,912.14,1768.18,912.14Z"/><path class="cls-7" d="M1911.18,912.14h-56.67c-6.55,0-12.94-5.36-14.21-11.91l-10.93-56.67c-1.26-6.55,3.07-11.91,9.62-11.91h56.67c6.55,0,12.94,5.36,14.2,11.91l10.94,56.67C1922.06,906.78,1917.73,912.14,1911.18,912.14Z"/><path class="cls-12" d="M1196.17,912.14H1139.5c-6.55,0-12.94-5.36-14.2-11.91l-10.94-56.67c-1.26-6.55,3.07-11.91,9.62-11.91h56.67c6.55,0,12.94,5.36,14.21,11.91l10.93,56.67C1207.05,906.78,1202.73,912.14,1196.17,912.14Z"/><path class="cls-13" d="M1134.06,742h-24.35a6.52,6.52,0,0,1-6.1-5.12l-4.7-24.35a4.11,4.11,0,0,1,4.13-5.12h24.35a6.54,6.54,0,0,1,6.11,5.12l4.7,24.35A4.12,4.12,0,0,1,1134.06,742Z"/><path class="cls-12" d="M1339.18,912.14h-56.67c-6.56,0-13-5.36-14.21-11.91l-10.93-56.67c-1.27-6.55,3.06-11.91,9.61-11.91h56.67c6.55,0,12.94,5.36,14.21,11.91l10.93,56.67C1350.05,906.78,1345.73,912.14,1339.18,912.14Z"/><path class="cls-12" d="M1482.18,912.14h-56.67c-6.55,0-13-5.36-14.21-11.91l-10.93-56.67c-1.27-6.55,3.06-11.91,9.61-11.91h56.67c6.55,0,12.95,5.36,14.21,11.91l10.93,56.67C1493.06,906.78,1488.73,912.14,1482.18,912.14Z"/><path class="cls-7" d="M2054.19,912.14h-56.68c-6.55,0-12.94-5.36-14.2-11.91l-10.94-56.67c-1.26-6.55,3.07-11.91,9.62-11.91h56.67c6.55,0,12.94,5.36,14.21,11.91l10.93,56.67C2065.06,906.78,2060.74,912.14,2054.19,912.14Z"/><path class="cls-12" d="M1601.44,789.06h-56.67c-6.55,0-13-5.36-14.21-11.91l-10.93-56.67c-1.27-6.56,3.06-11.92,9.61-11.92h56.67c6.55,0,12.95,5.36,14.21,11.92l10.93,56.67C1612.32,783.7,1608,789.06,1601.44,789.06Z"/><path class="cls-12" d="M1744.44,789.06h-56.67c-6.55,0-13-5.36-14.21-11.91l-10.93-56.67c-1.27-6.56,3.06-11.92,9.61-11.92h56.67c6.55,0,12.95,5.36,14.21,11.92l10.93,56.67C1755.32,783.7,1751,789.06,1744.44,789.06Z"/><path class="cls-7" d="M1887.44,789.06h-56.67c-6.55,0-12.94-5.36-14.21-11.91l-10.93-56.67c-1.26-6.56,3.06-11.92,9.61-11.92h56.67c6.55,0,12.95,5.36,14.21,11.92l10.93,56.67C1898.32,783.7,1894,789.06,1887.44,789.06Z"/><path class="cls-7" d="M2030.44,789.06h-56.67c-6.55,0-12.94-5.36-14.21-11.91l-10.93-56.67c-1.26-6.56,3.06-11.92,9.62-11.92h56.67c6.55,0,12.94,5.36,14.2,11.92l10.94,56.67C2041.32,783.7,2037,789.06,2030.44,789.06Z"/><path class="cls-12" d="M1650.34,1042.59h-56.67c-6.55,0-12.94-5.36-14.2-11.91L1568.53,974c-1.26-6.55,3.07-11.91,9.62-11.91h56.67c6.55,0,12.94,5.36,14.21,11.91l10.93,56.67C1661.22,1037.23,1656.9,1042.59,1650.34,1042.59Z"/><path class="cls-12" d="M1793.35,1042.59h-56.67c-6.56,0-13-5.36-14.21-11.91L1711.53,974c-1.26-6.55,3.07-11.91,9.62-11.91h56.67c6.55,0,12.94,5.36,14.21,11.91l10.93,56.67C1804.22,1037.23,1799.9,1042.59,1793.35,1042.59Z"/><path class="cls-7" d="M1936.35,1042.59h-56.67c-6.55,0-13-5.36-14.21-11.91L1854.54,974c-1.27-6.55,3.06-11.91,9.61-11.91h56.67c6.55,0,13,5.36,14.21,11.91l10.93,56.67C1947.23,1037.23,1942.9,1042.59,1936.35,1042.59Z"/><path class="cls-12" d="M1221.34,1042.59h-56.67c-6.55,0-13-5.36-14.21-11.91L1139.53,974c-1.27-6.55,3.06-11.91,9.61-11.91h56.67c6.55,0,13,5.36,14.21,11.91l10.93,56.67C1232.22,1037.23,1227.89,1042.59,1221.34,1042.59Z"/><path class="cls-12" d="M1364.34,1042.59h-56.67c-6.55,0-12.94-5.36-14.21-11.91L1282.53,974c-1.26-6.55,3.06-11.91,9.61-11.91h56.67c6.55,0,13,5.36,14.21,11.91l10.93,56.67C1375.22,1037.23,1370.89,1042.59,1364.34,1042.59Z"/><path class="cls-12" d="M1507.34,1042.59h-56.67c-6.55,0-12.94-5.36-14.21-11.91L1425.53,974c-1.26-6.55,3.06-11.91,9.62-11.91h56.67c6.55,0,12.94,5.36,14.21,11.91l10.93,56.67C1518.22,1037.23,1513.89,1042.59,1507.34,1042.59Z"/><path class="cls-7" d="M2079.35,1042.59h-56.67c-6.55,0-13-5.36-14.21-11.91L1997.54,974c-1.26-6.55,3.06-11.91,9.61-11.91h56.67c6.55,0,12.95,5.36,14.21,11.91l10.93,56.67C2090.23,1037.23,2085.9,1042.59,2079.35,1042.59Z"/><path class="cls-12" d="M1675.51,1173.05h-56.67c-6.55,0-12.95-5.36-14.21-11.91l-10.93-56.67c-1.27-6.55,3.06-11.91,9.61-11.91H1660c6.55,0,13,5.36,14.21,11.91l10.93,56.67C1686.39,1167.69,1682.06,1173.05,1675.51,1173.05Z"/><path class="cls-12" d="M1818.51,1173.05h-56.67c-6.55,0-12.95-5.36-14.21-11.91l-10.93-56.67c-1.26-6.55,3.06-11.91,9.61-11.91H1803c6.55,0,13,5.36,14.21,11.91l10.93,56.67C1829.39,1167.69,1825.06,1173.05,1818.51,1173.05Z"/><path class="cls-7" d="M1961.51,1173.05h-56.67c-6.55,0-12.94-5.36-14.21-11.91l-10.93-56.67c-1.26-6.55,3.06-11.91,9.62-11.91H1946c6.55,0,12.94,5.36,14.2,11.91l10.94,56.67C1972.39,1167.69,1968.06,1173.05,1961.51,1173.05Z"/><path class="cls-12" d="M1246.5,1173.05h-56.67c-6.55,0-12.94-5.36-14.21-11.91l-10.93-56.67c-1.26-6.55,3.07-11.91,9.62-11.91H1231c6.55,0,12.94,5.36,14.21,11.91l10.93,56.67C1257.38,1167.69,1253.05,1173.05,1246.5,1173.05Z"/><path class="cls-4" d="M1389.51,1173.05h-56.68c-6.55,0-12.94-5.36-14.2-11.91l-10.94-56.67c-1.26-6.55,3.07-11.91,9.62-11.91H1374c6.55,0,12.94,5.36,14.21,11.91l10.93,56.67C1400.38,1167.69,1396.06,1173.05,1389.51,1173.05Z"/><path class="cls-12" d="M1532.51,1173.05h-56.67c-6.56,0-12.95-5.36-14.21-11.91l-10.93-56.67c-1.27-6.55,3.06-11.91,9.61-11.91H1517c6.55,0,13,5.36,14.21,11.91l10.93,56.67C1543.38,1167.69,1539.06,1173.05,1532.51,1173.05Z"/><path class="cls-7" d="M2104.51,1173.05h-56.67c-6.55,0-12.94-5.36-14.21-11.91l-10.93-56.67c-1.26-6.55,3.07-11.91,9.62-11.91H2089c6.55,0,12.94,5.36,14.21,11.91l10.93,56.67C2115.39,1167.69,2111.07,1173.05,2104.51,1173.05Z"/><path class="cls-12" d="M1699.25,1296.13h-56.67c-6.55,0-12.94-5.36-14.21-11.91l-10.93-56.67c-1.26-6.55,3.06-11.91,9.61-11.91h56.67c6.56,0,13,5.36,14.21,11.91l10.93,56.67C1710.13,1290.77,1705.8,1296.13,1699.25,1296.13Z"/><path class="cls-12" d="M1842.25,1296.13h-56.67c-6.55,0-12.94-5.36-14.21-11.91l-10.93-56.67c-1.26-6.55,3.06-11.91,9.62-11.91h56.67c6.55,0,12.94,5.36,14.21,11.91l10.93,56.67C1853.13,1290.77,1848.8,1296.13,1842.25,1296.13Z"/><path class="cls-7" d="M1985.25,1296.13h-56.67c-6.55,0-12.94-5.36-14.2-11.91l-10.94-56.67c-1.26-6.55,3.07-11.91,9.62-11.91h56.67c6.55,0,12.94,5.36,14.21,11.91l10.93,56.67C1996.13,1290.77,1991.81,1296.13,1985.25,1296.13Z"/><path class="cls-12" d="M1270.25,1296.13h-56.67c-6.56,0-12.95-5.36-14.21-11.91l-10.93-56.67c-1.27-6.55,3.06-11.91,9.61-11.91h56.67c6.55,0,12.94,5.36,14.21,11.91l10.93,56.67C1281.12,1290.77,1276.8,1296.13,1270.25,1296.13Z"/><path class="cls-12" d="M1413.25,1296.13h-56.67c-6.55,0-12.95-5.36-14.21-11.91l-10.93-56.67c-1.27-6.55,3.06-11.91,9.61-11.91h56.67c6.55,0,13,5.36,14.21,11.91l10.93,56.67C1424.12,1290.77,1419.8,1296.13,1413.25,1296.13Z"/><path class="cls-12" d="M1556.25,1296.13h-56.67c-6.55,0-12.95-5.36-14.21-11.91l-10.93-56.67c-1.27-6.55,3.06-11.91,9.61-11.91h56.67c6.55,0,13,5.36,14.21,11.91l10.93,56.67C1567.13,1290.77,1562.8,1296.13,1556.25,1296.13Z"/><path class="cls-12" d="M1305.83,719.64H1155.69a4,4,0,0,1-4-4h0a4,4,0,0,1,4-4h150.14a4,4,0,0,1,4,4h0A4,4,0,0,1,1305.83,719.64Z"/><path class="cls-12" d="M1310.39,737.82H1160.26a4,4,0,0,1-4-4h0a4,4,0,0,1,4-4h150.13a4,4,0,0,1,4,4h0A4,4,0,0,1,1310.39,737.82Z"/><path class="cls-14" d="M1144.81,584.24h-51.52a7.7,7.7,0,0,1-7.68-7.67h0a7.7,7.7,0,0,1,7.68-7.67h51.52a7.69,7.69,0,0,1,7.67,7.67h0A7.69,7.69,0,0,1,1144.81,584.24Z"/><path class="cls-14" d="M1286.17,584.24h-51.51a7.69,7.69,0,0,1-7.68-7.67h0a7.69,7.69,0,0,1,7.68-7.67h51.51a7.7,7.7,0,0,1,7.68,7.67h0A7.7,7.7,0,0,1,1286.17,584.24Z"/><path class="cls-14" d="M1427.54,584.24H1376a7.69,7.69,0,0,1-7.67-7.67h0a7.69,7.69,0,0,1,7.67-7.67h51.52a7.7,7.7,0,0,1,7.68,7.67h0A7.7,7.7,0,0,1,1427.54,584.24Z"/><path class="cls-14" d="M1568.91,584.24h-51.52a7.69,7.69,0,0,1-7.67-7.67h0a7.69,7.69,0,0,1,7.67-7.67h51.52a7.69,7.69,0,0,1,7.67,7.67h0A7.69,7.69,0,0,1,1568.91,584.24Z"/><path class="cls-14" d="M1710.28,584.24h-51.52a7.7,7.7,0,0,1-7.68-7.67h0a7.7,7.7,0,0,1,7.68-7.67h51.52a7.69,7.69,0,0,1,7.67,7.67h0A7.69,7.69,0,0,1,1710.28,584.24Z"/><path class="cls-14" d="M1851.64,584.24h-51.52a7.7,7.7,0,0,1-7.67-7.67h0a7.7,7.7,0,0,1,7.67-7.67h51.52a7.7,7.7,0,0,1,7.68,7.67h0A7.7,7.7,0,0,1,1851.64,584.24Z"/><path class="cls-14" d="M1993,584.24h-51.52a7.69,7.69,0,0,1-7.67-7.67h0a7.69,7.69,0,0,1,7.67-7.67H1993a7.7,7.7,0,0,1,7.68,7.67h0A7.7,7.7,0,0,1,1993,584.24Z"/><path class="cls-15" d="M1667.17,790.17c-11.38,0-19.66-3.61-24.18-10.62-8.65-13.44-2-32.27,19.87-56a276.84,276.84,0,0,1,34.76-31.18,1.65,1.65,0,1,1,1.94,2.66c-.72.53-72.52,53.69-53.8,82.73,5.93,9.2,18.62,9.81,28.23,8.7,17.79-2.06,41-11.64,62-25.62,21.8-14.48,37.15-30.8,42.13-44.77,3.26-9.17,2.25-15.66-3-19.3-6.8-4.7-21-4.7-38,0-16.25,4.49-32.61,12.59-42.7,21.12a1.64,1.64,0,0,1-2.12-2.51c10.42-8.82,27.26-17.17,43.95-21.78,18.16-5,33-4.85,40.7.48,4.56,3.15,9,9.72,4.23,23.1-5.21,14.63-21,31.54-43.41,46.41-21.47,14.26-45.2,24-63.48,26.15A63,63,0,0,1,1667.17,790.17Z"/><path class="cls-3" d="M2528,1390h-90.8c-4.87-4.13,3.36-13.5,12-14.13,3.73-.28,8.46.5,13.86,1.64,1.24-16.59,8.38-91.2,35.27-88.2,30.24,3.35,0,32.85-8.55,50.32-6.33,12.93-13,31.48-16.06,40.24,2.46.53,5,1.05,7.59,1.53,4-12.31,18.92-53.7,37.89-51.29,22.26,2.83,13.31,19.42-2.47,29.27-11.58,7.25-25.79,17.54-32.55,22.52a96.94,96.94,0,0,0,17.76,1.42C2517.44,1382.91,2525,1387.5,2528,1390Z"/><path class="cls-3" d="M455.28,1385.65c-4.81-7.56-19.3-27.18-38.58-24.58-21,2.83,23.21,16.68,36.75,24.63a22.11,22.11,0,0,1-7.49-.87c-9.06-3.23-24.56,3-29.52,5.13h86.18a13.68,13.68,0,0,0-6.16-7.88c-1.42-.86-4.26-1-7.93-.71,5.12-6,8.68-25.33-5.58-20.37-10.43,3.63-10.4,15.42-9.37,22.4-2.22.34-4.47.69-6.69,1-4.29-21.86-19.47-86-50.22-87.66-31.19-1.73,26.44,66.47,45.62,88.28C459.84,1385.32,457.47,1385.54,455.28,1385.65Z"/><rect class="cls-16" y="1383.25" width="2845.86" height="12.98" rx="3.06"/><path class="cls-17" d="M1062.47,1138.12c-14.27-3-25.69-51.89-25.69-51.89l-49.89,47s28.12,37.42,45.48,43.88c6.78,2.53,27.3,12.82,49.8,24.44l26.68-40.15C1092.77,1150.27,1076.18,1141,1062.47,1138.12Z"/><path class="cls-18" d="M1172.19,1214.13s-30.62-30.2-63.34-52.76l-26.68,40.15c32,16.52,68,35.7,74.09,39C1156.56,1238.65,1159.53,1232.62,1172.19,1214.13Z"/><path class="cls-17" d="M943.62,1142.06l-46.26-23.89-12.92,59s-8.57,43.24-16.21,83.39l47.94,13.28a220.34,220.34,0,0,0,10-42.61c1.26-10.53.56-32.36,4.49-42.14,4.16-10.33,10.29-22.54,18.52-31.33C966.22,1139.56,943.62,1142.06,943.62,1142.06Z"/><path class="cls-18" d="M856.61,1326.43s3,18,32.61,14.46c0,0,19.22-41.24,31.09-80.65l-50.19-10.32C864.32,1280.42,857.17,1319.81,856.61,1326.43Z"/><path class="cls-17" d="M892.38,817.64s-21.88.55-31.44-6.65L854,839.24s16.21,12.75,42.11,20Z"/><path class="cls-19" d="M1032.81,1046.43s10.81,35.74,28.53,57.9c0,0-28.8,19-73.68,48.47l-10-19.67Z"/><path class="cls-17" d="M997.36,681.91s30.47,2.49,52.63,36.29l28.94,28.94a83.64,83.64,0,0,1,10.61,13l21.13,31.9a18,18,0,0,1-.18,20.51,29.49,29.49,0,0,1-10.1,8.37c-3,1.59-5.93,3.24-8.81,5a555.17,555.17,0,0,1-60.71,31.36L1028,821l40.58-29.91s-21.47-4-45.43-25.21l-.42,31-33.37-24.65-1.81-55.12Z"/><path class="cls-20" d="M898.61,660.86s11.08,17.31-.55,39.75L897.5,725l11.22,17,18,1.11L956,704.49l12.88-28.26a96.37,96.37,0,0,1-12.6-12.35c-6.51-7.62-3.61-19.09-3.61-19.09L947,642.3Z"/><path class="cls-17" d="M886,572.13l-1.33,29.26a13.09,13.09,0,0,1-5.75,10.33,25,25,0,0,1-6,2.94,2.13,2.13,0,0,0-1.33,2.84c1.33,3.39,5,7.56,9.85,11.7a3.13,3.13,0,0,1,1.11,2.34l.3,22.75a5.14,5.14,0,0,0,.16,1.3c.64,2.33,3.72,8.71,18.15,6.64,5.14-.74,10.27-1.56,15.44-2,9.18-.81,20.77-4.67,35.55-16.71l10.36-30.43L961,601l-7.89-3.19L946,599.22l-2.24-21.46-9.56-7.06s-20.49.52-21.05.83c-.36.2-16.2,2.91-16.2,2.91Z"/><path class="cls-17" d="M856.37,839.43s-20.83.48-32.2-7.49c0,0-11.66-2.06-5.28-12.41,0,0-7.22-6.82.3-11.74,0,0-9.21-4.79-.5-10.56,0,0-4.91-6.69,2.31-8.7a6.22,6.22,0,0,1,2.61-.13l4.3.65s4.28-10.7,13.23-2.44S861.63,812,861.63,812l-1.94,15.42Z"/><path class="cls-20" d="M824.17,831.94a27.57,27.57,0,0,0,5.9-2.67,4.41,4.41,0,0,0,1.83-2,2.48,2.48,0,0,0-.55-2.34,8.68,8.68,0,0,0-4.86-3.34c-2.08-.54-4.25-1.17-6.33-1.91a59.73,59.73,0,0,1,6.65.6,9,9,0,0,1,6,3.69,4.08,4.08,0,0,1,.65,3.87,5.46,5.46,0,0,1-2.68,2.61A15.62,15.62,0,0,1,824.17,831.94Z"/><path class="cls-20" d="M827.34,820.93a12.57,12.57,0,0,0,4.62-3.54c1-1.47.45-3.19-.77-4.59a9.74,9.74,0,0,0-4.75-2.87c-2-.59-3.91-1.22-5.82-2a59.43,59.43,0,0,1,6.12.74,9.43,9.43,0,0,1,5.75,3,6.64,6.64,0,0,1,1.55,3.11,4.19,4.19,0,0,1-1,3.43A9,9,0,0,1,827.34,820.93Z"/><path class="cls-20" d="M827.91,789.05a23.37,23.37,0,0,0-1.95,9.08,20.17,20.17,0,0,0,1.93,8.87,6.34,6.34,0,0,0,1.14,1.73c.48.42.76.48,1.21.26a8.07,8.07,0,0,0,2.51-3.29A53.25,53.25,0,0,0,836,797l1.6.44a45.59,45.59,0,0,0-1.35,7.19,33,33,0,0,0-.07,7.3,16,16,0,0,0,2.27,6.83,10.32,10.32,0,0,0,2.47,2.64,13.1,13.1,0,0,0,3.29,1.68,12.2,12.2,0,0,1-3.5-1.37,10.71,10.71,0,0,1-2.81-2.56,15.58,15.58,0,0,1-2.83-7.06,32.71,32.71,0,0,1-.29-7.59A46.09,46.09,0,0,1,836,797a.83.83,0,1,1,1.61.41v0h0a48,48,0,0,1-3.32,9A16.78,16.78,0,0,1,833,808.6a5.78,5.78,0,0,1-2,1.88,2.5,2.5,0,0,1-1.7.21,2.93,2.93,0,0,1-1.38-.83,7.68,7.68,0,0,1-1.4-2.23,20,20,0,0,1-1.53-9.55A20.43,20.43,0,0,1,827.91,789.05Z"/><path class="cls-20" d="M818.69,797.23a7.07,7.07,0,0,1,3.56.71,7,7,0,0,1,2.84,2.27,7,7,0,0,1-3.57-.71A7.08,7.08,0,0,1,818.69,797.23Z"/><path class="cls-21" d="M868.19,545.72s6.3,8.3,38.69-7.25c30.82-14.8,87.45-2.66,90.2,51.94,2.88,57.11-41,76.3-40.62,76.08,0,0-9.76-11.38-8.65-42.4,0,0,19.54-6.78,11.44-21-1.84-3.21-8.47-2.61-10.68.37a33.64,33.64,0,0,0-3.25,5.59.63.63,0,0,1-1.19-.22L941.31,583s.19-13.95-21.88-9.15c-14.45,3.15-25.3,2.35-31,1.06C866.15,569.89,863.37,555,868.19,545.72Z"/><ellipse class="cls-22" cx="894.94" cy="599.86" rx="3.78" ry="4.32"/><path class="cls-22" d="M890.16,590a8.85,8.85,0,0,1,3.43-4.38,9.8,9.8,0,0,1,5.61-1.78,7.83,7.83,0,0,1,5.76,2.52,7.18,7.18,0,0,1,1.92,5.39,32.61,32.61,0,0,0-4.34-2.11,9.59,9.59,0,0,0-3.41-.62,27.12,27.12,0,0,0-4,.33C893.7,589.51,892.1,589.78,890.16,590Z"/><path class="cls-23" d="M882.64,634.2s13.51-3.39,13.76,5.16c.23,7.69-13.2,5.84-13.2,5.84"/><path class="cls-24" d="M899.21,698.44s.74,55.21,24.56,39.89c21.53-13.86,40-55,43.41-62.8a1.32,1.32,0,0,1,1.76-.7c3.16,1.39,12.51,4.83,28.51,5.28a2.67,2.67,0,0,1,2.51,3.4c-4.86,17.07-23.93,94,23,106.15,0,0,26,134.46,33.22,149.25,0,0-73.89,14.22-152.22,20.48a6.58,6.58,0,0,1-5.95-2.84h0c-.76-1.11-2.28-4.5-1.15-3.77,7.26,4.71-3.8-190-16.35-222.24a26.58,26.58,0,0,1,7.94-21.61Z"/><path class="cls-20" d="M1023.12,765.84a53.19,53.19,0,0,1-10.25-9.56s4.09,12.82,10.18,17.66Z"/><path class="cls-20" d="M1068.55,791.05a8.79,8.79,0,0,1,3-3.45,8.36,8.36,0,0,1,4.28-1.63,15.17,15.17,0,0,1-3.29,3A14.33,14.33,0,0,1,1068.55,791.05Z"/><path class="cls-18" d="M905.12,955.9s12.93,64.77,18.47,71.42S880,1110.05,880,1110.05s39.88,32.5,86.79,49.86L1033,1054.85a98.23,98.23,0,0,0,15.18-51.12c.2-16.19-2.22-44.94-11.59-64.82Z"/><path class="cls-19" d="M924,1029.54c4.15-7.48,18-59.88,18-59.88s-15.35,41.09-24,44.78Z"/><path class="cls-20" d="M968.25,858.56s-17.09-6.91-25.73,3.33a5.91,5.91,0,0,0-1.42,3.41c-.12,2.08,1.1,5,7.21,2.2Z"/><path class="cls-17" d="M968.9,859.3s-17.1-6.91-25.74,3.33a5.9,5.9,0,0,0-1.41,3.41c-.12,2.08,1.1,5,7.2,2.2Z"/><path class="cls-17" d="M1000.13,840.46c-1.28.89-2.51,1.84-3.73,2.83a90.16,90.16,0,0,1-29,14.79c-9.13,2.52-11.78,3.58-17,6.79-5.86,3.6-10.72,8.52-7.82,12.66a5.06,5.06,0,0,0,6,1.63l.08,0s-5.12,10.53,6.65,7.48c0,0-4.06,11.4,8.26,5.86,0,0,1.11,6.12,8,3.18,11.11-4.75,31-20,38.79-24.53,1.32-.77,2.7-1.42,3.95-2.3l41.85-23.53-10.49-37.37Z"/><path class="cls-20" d="M948.65,879.13a16.3,16.3,0,0,1,3.78-3.69,23.84,23.84,0,0,1,2.18-1.41c.74-.46,1.52-.79,2.31-1.27a5.5,5.5,0,0,1-1.47,2.32,15,15,0,0,1-2,1.75A13.44,13.44,0,0,1,948.65,879.13Z"/><path class="cls-20" d="M955.3,886.61a14.16,14.16,0,0,1,3.22-3.86,20.57,20.57,0,0,1,2-1.5c.68-.47,1.41-.85,2.17-1.29a6,6,0,0,1-1.25,2.28,13.56,13.56,0,0,1-1.74,1.81A12.46,12.46,0,0,1,955.3,886.61Z"/><path class="cls-20" d="M963.56,892.47a5.67,5.67,0,0,1,1.59-2.53,7.61,7.61,0,0,1,2.48-1.58,2.85,2.85,0,0,1-.37,1.61,4.84,4.84,0,0,1-.92,1.21A4.45,4.45,0,0,1,963.56,892.47Z"/><path class="cls-20" d="M944.5,869.37a19,19,0,0,1,3.31-3,31,31,0,0,1,3.76-2.34,21.37,21.37,0,0,1,8.49-2.55c-1.3.76-2.59,1.41-3.87,2.08l-3.82,2C949.8,866.89,947.27,868.23,944.5,869.37Z"/><path class="cls-20" d="M854,839.24a44.59,44.59,0,0,0,2.12-3.94,38.84,38.84,0,0,0,1.68-4,42,42,0,0,0,1.26-4.18c.38-1.42.62-2.88,1-4.38a16.4,16.4,0,0,1-.62,9.14,17.26,17.26,0,0,1-2.15,4.13A11.94,11.94,0,0,1,854,839.24Z"/><path class="cls-24" d="M1168.1,1204.25l-20.39,40.34a151,151,0,0,1,15.32,38.33,228.06,228.06,0,0,1,6.23,45.59,6.61,6.61,0,0,0,3.53,5.74,11.15,11.15,0,0,0,3.2,1.07l37.89-107.89C1182.78,1213.48,1168.1,1204.25,1168.1,1204.25Z"/><path class="cls-25" d="M1184.53,1332.7c6.38-9,9.36-22.3,9.36-22.3,1.29-5.9,18.75-52.68,23.07-64.23.56-1.47,1.22-2.9,1.91-4.31,4.06-8.42-.82-12.57-.82-12.57l-4.17-1.86L1176,1335.32A10.18,10.18,0,0,0,1184.53,1332.7Z"/><circle class="cls-25" cx="1186.42" cy="1235.99" r="10.26"/><circle class="cls-24" cx="1186.42" cy="1235.99" r="4.72"/><path class="cls-26" d="M1164.78,1299.51a1.75,1.75,0,0,1-.4,0,1.73,1.73,0,0,1-1.29-2.08,8.7,8.7,0,0,1,4-5.23c2.17-1.19,4.81-1.24,7.85-.17a1.72,1.72,0,0,1,1,2.2,1.74,1.74,0,0,1-2.2,1.06c-2.08-.74-3.77-.75-5-.06a5.13,5.13,0,0,0-2.26,3A1.73,1.73,0,0,1,1164.78,1299.51Z"/><path class="cls-26" d="M1162.63,1290.21a1.83,1.83,0,0,1-.4,0,1.73,1.73,0,0,1-1.28-2.07,8.7,8.7,0,0,1,4-5.23c2.17-1.19,4.81-1.25,7.85-.17a1.72,1.72,0,0,1,1,2.2,1.74,1.74,0,0,1-2.2,1.06c-2.06-.73-3.75-.76-5-.07a5.24,5.24,0,0,0-2.29,3A1.73,1.73,0,0,1,1162.63,1290.21Z"/><path class="cls-26" d="M1160.35,1280.39a1.4,1.4,0,0,1-.41-.05,1.73,1.73,0,0,1-1.28-2.07,8.74,8.74,0,0,1,4-5.22c2.17-1.19,4.81-1.25,7.85-.18a1.73,1.73,0,0,1-1.15,3.26c-2.06-.72-3.75-.75-5-.07a5.24,5.24,0,0,0-2.29,3A1.73,1.73,0,0,1,1160.35,1280.39Z"/><path class="cls-26" d="M1157.18,1270.23a1.44,1.44,0,0,1-.41,0,1.71,1.71,0,0,1-1.27-2.06,8.67,8.67,0,0,1,4-5.23c2.17-1.19,4.81-1.24,7.85-.17a1.73,1.73,0,1,1-1.15,3.26c-2.06-.74-3.75-.75-5-.07a5.17,5.17,0,0,0-2.28,3A1.74,1.74,0,0,1,1157.18,1270.23Z"/><path class="cls-26" d="M1154.6,1262a1.44,1.44,0,0,1-.41,0,1.71,1.71,0,0,1-1.27-2.06,8.64,8.64,0,0,1,4-5.23c2.17-1.19,4.81-1.25,7.85-.18a1.73,1.73,0,1,1-1.15,3.26c-2.06-.72-3.75-.75-5-.06a5.16,5.16,0,0,0-2.29,3A1.74,1.74,0,0,1,1154.6,1262Z"/><path class="cls-24" d="M897.72,1332.52l-44.22-9.43a151,151,0,0,1-33.15,24.58,227,227,0,0,1-42.5,17.65,6.61,6.61,0,0,0-4.65,4.88,11.35,11.35,0,0,0-.21,3.37l114,9.13C892.53,1349.08,897.72,1332.52,897.72,1332.52Z"/><path class="cls-25" d="M777.7,1381.16c10.29,3.89,23.94,3.37,23.94,3.37,6-.27,55.72,4.69,68,5.93,1.57.16,3.11.44,4.66.74,9.18,1.79,12-4,12-4,.24-1.55.49-3,.73-4.51l-114-9.13A10.17,10.17,0,0,0,777.7,1381.16Z"/><circle class="cls-25" cx="871.69" cy="1358.33" r="10.26"/><circle class="cls-24" cx="871.69" cy="1358.33" r="4.72"/><path class="cls-26" d="M812.89,1363.06h-.14a1.75,1.75,0,0,1-1.59-1.87c.18-2.17-.23-3.81-1.21-4.86a5.38,5.38,0,0,0-3.5-1.45,1.73,1.73,0,0,1-.08-3.45,8.77,8.77,0,0,1,6.07,2.5c1.7,1.79,2.43,4.33,2.17,7.54A1.72,1.72,0,0,1,812.89,1363.06Z"/><path class="cls-26" d="M821.34,1358.62h-.15a1.73,1.73,0,0,1-1.58-1.86c.18-2.18-.23-3.81-1.21-4.87a5.06,5.06,0,0,0-3.5-1.44h0a1.73,1.73,0,0,1-.06-3.45,8.71,8.71,0,0,1,6.07,2.5c1.7,1.79,2.43,4.33,2.17,7.54A1.74,1.74,0,0,1,821.34,1358.62Z"/><path class="cls-26" d="M830.24,1353.9h-.14a1.73,1.73,0,0,1-1.58-1.86c.18-2.18-.23-3.82-1.22-4.87a5.11,5.11,0,0,0-3.49-1.44,1.73,1.73,0,0,1-.08-3.46,8.88,8.88,0,0,1,6.06,2.5c1.7,1.8,2.43,4.33,2.17,7.55A1.72,1.72,0,0,1,830.24,1353.9Z"/><path class="cls-26" d="M839.26,1348.25h-.15a1.74,1.74,0,0,1-1.58-1.87c.18-2.17-.23-3.81-1.21-4.86a5,5,0,0,0-3.5-1.45,1.73,1.73,0,0,1-.08-3.45,8.78,8.78,0,0,1,6.07,2.5c1.7,1.79,2.43,4.33,2.17,7.54A1.73,1.73,0,0,1,839.26,1348.25Z"/><path class="cls-26" d="M846.6,1343.65h-.15a1.74,1.74,0,0,1-1.58-1.87c.18-2.19-.23-3.84-1.23-4.89a5.14,5.14,0,0,0-3.47-1.42,1.76,1.76,0,0,1-1.77-1.68,1.72,1.72,0,0,1,1.68-1.77,8.73,8.73,0,0,1,6.07,2.5c1.7,1.79,2.43,4.33,2.17,7.54A1.73,1.73,0,0,1,846.6,1343.65Z"/><path class="cls-18" d="M1157.18,1241l-.92-.49C1156.06,1241.75,1157.18,1241,1157.18,1241Z"/><path class="cls-20" d="M946.72,617.31a3.07,3.07,0,0,0,1.9,1.34,3.52,3.52,0,0,0,2.19-.44,13.62,13.62,0,0,0,3.56-3.1,9.81,9.81,0,0,0,2.15-4,5.89,5.89,0,0,0-.45-4.22,3,3,0,0,0-3.13-1.82c-1.23.18-2.3,1.52-3.15,2.77a9.62,9.62,0,0,0-1.46,4.39c0,.74.06,1.62.61,2s1.46-.2,2.09-.67c-.52.57-1.2,1.38-2.27,1.09a2.69,2.69,0,0,1-1.28-2.36,10.16,10.16,0,0,1,2.65-7.26,4.83,4.83,0,0,1,2.47-1.54,4.09,4.09,0,0,1,3,.5,5.54,5.54,0,0,1,2,2.11,7.5,7.5,0,0,1,.51,5.45,10.67,10.67,0,0,1-2.73,4.52,13,13,0,0,1-4.23,3,4.15,4.15,0,0,1-2.65.1A3,3,0,0,1,946.72,617.31Z"/><path class="cls-20" d="M947.79,611.39a3.69,3.69,0,0,1,.72-1.64,1.8,1.8,0,0,1,1.9-.67,2.9,2.9,0,0,1,2,3.3,5,5,0,0,1-2.06,3.16,3.84,3.84,0,0,1-3.45.82,4.85,4.85,0,0,0,2.76-1.61,5.25,5.25,0,0,0,1.49-2.56,2,2,0,0,0-1-2.21C949.37,609.53,948.4,610.45,947.79,611.39Z"/><path class="cls-17" d="M492.94,1126.45c-18.43,8.41-28.19,25.11-39.81,43.5L495,1216l36.32-30.13C521,1167.52,510.7,1148,492.94,1126.45Z"/><path class="cls-19" d="M570.93,1239.18c-18.51-17.19-29.08-34.65-39.6-53.31L495,1216l49.69,54.64S566.48,1262.58,570.93,1239.18Z"/><path class="cls-27" d="M564.12,1227.29l-31.84,32.82a152.86,152.86,0,0,1,3.25,41.63,229.69,229.69,0,0,1-7.72,45.91,6.69,6.69,0,0,0,1.69,6.6,11.19,11.19,0,0,0,2.77,2l69.09-92.79C575.52,1240.63,564.12,1227.29,564.12,1227.29Z"/><path class="cls-28" d="M541.31,1356.29c8.86-6.73,15.75-18.71,15.75-18.71,3-5.32,34-45.24,41.63-55.09,1-1.25,2-2.43,3.13-3.59,6.47-6.91,3-12.39,3-12.39l-3.46-3-69.09,92.79A10.26,10.26,0,0,0,541.31,1356.29Z"/><circle class="cls-28" cx="572.25" cy="1263.46" r="10.38"/><circle class="cls-27" cx="572.25" cy="1263.46" r="4.77"/><path class="cls-28" d="M532.74,1318.37a1.72,1.72,0,0,1-.9-.25,1.75,1.75,0,0,1-.61-2.38,8.8,8.8,0,0,1,5.41-3.86c2.45-.49,5,.25,7.63,2.2a1.75,1.75,0,1,1-2.09,2.8c-1.77-1.32-3.4-1.85-4.82-1.58a5.28,5.28,0,0,0-3.12,2.22A1.75,1.75,0,0,1,532.74,1318.37Z"/><path class="cls-28" d="M533.47,1308.74a1.7,1.7,0,0,1-.89-.24,1.74,1.74,0,0,1-.61-2.39,8.8,8.8,0,0,1,5.4-3.86c2.45-.49,5,.25,7.63,2.2a1.74,1.74,0,0,1-2.08,2.8c-1.79-1.33-3.43-1.86-4.86-1.57a5.2,5.2,0,0,0-3.08,2.21A1.75,1.75,0,0,1,533.47,1308.74Z"/><path class="cls-28" d="M534.22,1298.58a1.69,1.69,0,0,1-.89-.25,1.75,1.75,0,0,1-.62-2.39,8.8,8.8,0,0,1,5.4-3.85c2.46-.5,5,.24,7.64,2.19a1.75,1.75,0,1,1-2.09,2.8c-1.79-1.33-3.42-1.85-4.86-1.57a5.25,5.25,0,0,0-3.08,2.21A1.74,1.74,0,0,1,534.22,1298.58Z"/><path class="cls-28" d="M534.22,1287.81a1.68,1.68,0,0,1-.89-.24,1.75,1.75,0,0,1-.62-2.39,8.84,8.84,0,0,1,5.4-3.86c2.46-.5,5,.25,7.64,2.2a1.75,1.75,0,1,1-2.09,2.8c-1.79-1.33-3.42-1.86-4.86-1.57a5.2,5.2,0,0,0-3.08,2.21A1.73,1.73,0,0,1,534.22,1287.81Z"/><path class="cls-28" d="M534.22,1279.05a1.78,1.78,0,0,1-.89-.24,1.76,1.76,0,0,1-.62-2.4,8.8,8.8,0,0,1,5.4-3.85c2.46-.5,5,.24,7.64,2.19a1.75,1.75,0,0,1-2.09,2.81c-1.79-1.33-3.42-1.86-4.86-1.58a5.25,5.25,0,0,0-3.08,2.21A1.74,1.74,0,0,1,534.22,1279.05Z"/><path class="cls-17" d="M688,1157.26c-17.71,9.82-26.13,27.24-36.28,46.47l45.35,42.64,33.86-32.89C719.17,1196,707.38,1177.36,688,1157.26Z"/><path class="cls-19" d="M774.57,1263.54c-19.81-15.69-31.71-32.27-43.65-50.06l-33.86,32.89L750.88,1297S772,1287.22,774.57,1263.54Z"/><path class="cls-27" d="M768.77,1253.5,736.58,1286a152.5,152.5,0,0,1,2.81,41.66,230,230,0,0,1-8.19,45.82,6.68,6.68,0,0,0,1.61,6.62,11.29,11.29,0,0,0,2.75,2l70.06-92.06C780,1267,768.77,1253.5,768.77,1253.5Z"/><path class="cls-28" d="M744.6,1382.26c8.93-6.64,15.95-18.55,15.95-18.55,3.07-5.28,34.44-44.88,42.2-54.65,1-1.24,2.07-2.41,3.17-3.56,6.54-6.83,3.14-12.35,3.14-12.35l-3.44-3.09-70.06,92.06A10.31,10.31,0,0,0,744.6,1382.26Z"/><circle class="cls-28" cx="776.52" cy="1289.75" r="10.38"/><circle class="cls-27" cx="776.52" cy="1289.75" r="4.77"/><path class="cls-28" d="M736.45,1344.24a1.68,1.68,0,0,1-.91-.26,1.74,1.74,0,0,1-.59-2.38,8.77,8.77,0,0,1,5.45-3.8c2.46-.47,5,.3,7.61,2.27a1.76,1.76,0,0,1,.33,2.45,1.74,1.74,0,0,1-2.45.33c-1.76-1.34-3.39-1.89-4.81-1.62a5.2,5.2,0,0,0-3.14,2.19A1.76,1.76,0,0,1,736.45,1344.24Z"/><path class="cls-28" d="M737.28,1334.62a1.79,1.79,0,0,1-.91-.25,1.74,1.74,0,0,1-.58-2.39,8.81,8.81,0,0,1,5.44-3.8c2.46-.46,5,.3,7.61,2.27a1.75,1.75,0,1,1-2.12,2.78c-1.75-1.34-3.38-1.88-4.81-1.62a5.28,5.28,0,0,0-3.14,2.19A1.75,1.75,0,0,1,737.28,1334.62Z"/><path class="cls-28" d="M738.13,1324.46a1.7,1.7,0,0,1-.91-.26,1.73,1.73,0,0,1-.58-2.38,8.77,8.77,0,0,1,5.44-3.8c2.46-.47,5,.3,7.61,2.28a1.74,1.74,0,1,1-2.12,2.77c-1.75-1.34-3.37-1.89-4.81-1.62a5.32,5.32,0,0,0-3.14,2.19A1.75,1.75,0,0,1,738.13,1324.46Z"/><path class="cls-28" d="M738.25,1313.7a1.66,1.66,0,0,1-.91-.26,1.74,1.74,0,0,1-.59-2.38,8.77,8.77,0,0,1,5.45-3.8c2.45-.47,5,.29,7.6,2.27a1.75,1.75,0,1,1-2.12,2.78c-1.75-1.34-3.37-1.89-4.8-1.62a5.24,5.24,0,0,0-3.14,2.18A1.74,1.74,0,0,1,738.25,1313.7Z"/><path class="cls-28" d="M738.34,1304.94a1.77,1.77,0,0,1-.91-.26,1.74,1.74,0,0,1-.58-2.39,8.74,8.74,0,0,1,5.44-3.8c2.46-.46,5,.3,7.61,2.28a1.75,1.75,0,1,1-2.12,2.78c-1.76-1.34-3.39-1.9-4.81-1.63a5.28,5.28,0,0,0-3.14,2.19A1.77,1.77,0,0,1,738.34,1304.94Z"/><path class="cls-17" d="M459.12,777.56s32.22,35.1,47.82,31.76l4.64,16.34L516,866,450.3,808.58Z"/><path class="cls-17" d="M450.3,808.58s-16.39-3.58-24.89-14c0,0-10-4.74-2.09-13.38,0,0-5-8.35,2.79-11.42,0,0-7.25-6.82,1.81-10.45,0,0-3-7.68,3.94-8a5.34,5.34,0,0,1,2.36.48l3.73,1.64s6.12-9.47,12.39.7,8.78,23.4,8.78,23.4L455.91,800Z"/><path class="cls-20" d="M425.41,794.56a23.59,23.59,0,0,0,6-1.28,3.73,3.73,0,0,0,1.94-1.6,2.94,2.94,0,0,0-.07-2.37,8.51,8.51,0,0,0-3.53-4.33c-1.75-1-3.6-2.13-5.31-3.38a50.45,50.45,0,0,1,6,2.19,8.72,8.72,0,0,1,4.51,5,4.48,4.48,0,0,1-.12,3.7,4.85,4.85,0,0,1-2.95,2.11A13.36,13.36,0,0,1,425.41,794.56Z"/><path class="cls-20" d="M430.61,784.53a10.53,10.53,0,0,0,4.94-2.46c1.15-1.21.95-3,.2-4.57a9.24,9.24,0,0,0-3.55-3.9,55.1,55.1,0,0,1-4.84-3.37,52.2,52.2,0,0,1,5.48,2.2,9.06,9.06,0,0,1,4.5,4.33A7.4,7.4,0,0,1,438,780a4.31,4.31,0,0,1-1.53,3.07A7.91,7.91,0,0,1,430.61,784.53Z"/><path class="cls-20" d="M438,753.46a24.59,24.59,0,0,0-3.54,7.94,21.27,21.27,0,0,0-.42,8.51,7.82,7.82,0,0,0,1.17,3.7c.34.34.54.37,1.06.19a5.15,5.15,0,0,0,1.5-1.11,33.63,33.63,0,0,0,4.89-7l1.48.79a36.85,36.85,0,0,0-2.55,6.1,27.11,27.11,0,0,0-1.34,6.46,14.72,14.72,0,0,0,.88,6.45,11.22,11.22,0,0,0,4.2,5.06,10.84,10.84,0,0,1-4.82-4.77,14.47,14.47,0,0,1-1.4-6.79,27.7,27.7,0,0,1,1.05-6.84,37.44,37.44,0,0,1,2.5-6.47.84.84,0,1,1,1.5.75l0,0a31.45,31.45,0,0,1-5.17,7.44,6.66,6.66,0,0,1-2.06,1.45,2.75,2.75,0,0,1-1.56.18,2.48,2.48,0,0,1-1.39-.85,5.71,5.71,0,0,1-1.06-2.33,15.2,15.2,0,0,1-.36-2.28,21.39,21.39,0,0,1,1-9A21.11,21.11,0,0,1,438,753.46Z"/><path class="cls-20" d="M427.92,759.32a6.43,6.43,0,0,1,3.12,1.54,6.26,6.26,0,0,1,2,2.87,6.36,6.36,0,0,1-3.12-1.55A6.49,6.49,0,0,1,427.92,759.32Z"/><path class="cls-20" d="M450.3,808.58a55,55,0,0,1,2.93-6c1-1.91,2-3.72,3-5.84a7.54,7.54,0,0,1-.15,3.47,14,14,0,0,1-1.27,3.21,17,17,0,0,1-1.94,2.8A11.9,11.9,0,0,1,450.3,808.58Z"/><path class="cls-19" d="M521,917.69a177.3,177.3,0,0,0,8.5,33c30.18,108.61,66.47,204.26,123.27,256.44,0,0,41.1-20.75,49.54-35.87a1.57,1.57,0,0,0-.16-1.71l-24.79-31.31a82.2,82.2,0,0,1-15.2-30.72c-1.94-7.61-4.14-17.85-6.41-31.51l-17.65-88.41-13.18-87.84Z"/><path class="cls-18" d="M625,898.93s22.94,18.85,24.42,47.27-11.33,42.53-20.24,49.59c0,0-41.64,35.83-71.59,56.31q-4.2,2.87-8.21,6c-12.62,9.89-48.94,38.55-62.88,51.66a3.33,3.33,0,0,0-.33,4.49L498,1129.41s-16.16,26.47-44.85,40.54c0,0-65.35-60.46-38.73-94.84.65-.84,109.81-129.52,143.43-154.78s34-11.65,34-11.65Z"/><path class="cls-20" d="M517.71,654.24s5.67,34.09-12.1,56.89c-2.56,3.27-4.18,4.88-5.75,8.73l-1.95,2.51-.35,14.93,41.37,5.3,33.15-63.1S558.43,665.71,559,656.1,553.77,639,553.77,639Z"/><path class="cls-17" d="M555.6,642.08c-37.64,26-61.1,18.12-68.09,14.64a4,4,0,0,1-2.24-3.55L485,634.72a3,3,0,0,0-.85-2c-6.12-6.4-7.76-10.68-8.2-12.59a1.25,1.25,0,0,1,.84-1.45c10.18-3.62,16-18.08,16.27-22.34.28-4.55-1.79-22.73-1.79-22.73l36-4.25,15.88,15.32,6.41,19.5,15.32-5.85,9.89,14.07-8.08,21.31-9,4Z"/><path class="cls-21" d="M584.2,561.8S607.08,538,632,561c44.15,40.73-46.08,123,19.22,135.26,0,0-23.35,6.29-43.54-9.42-47.14-36.69-.29-99.52-11.39-103.5Z"/><path class="cls-22" d="M492.59,577.81a1.51,1.51,0,0,1-1.89-.77c-2.55-5.49-2.13-28.66,32.59-34,26.05-4,44,3.56,55.09,11.41a48.82,48.82,0,0,1,19.37,29.8c4,18.84-1.69,52.12-38.41,69.48,0,0-10.62-12.88-6.43-24.36,1-1.27,4.17-1.27,6.43-2.07,11.75-4.15,11.2-21.5,3.4-22.61-5.32-.76-10.68,6.48-11,13.78-.27,5.66-3.44,7.58-3.39,6.48C548.76,615,542.82,559.31,492.59,577.81Z"/><ellipse class="cls-22" cx="500.86" cy="604.12" rx="3.75" ry="4.76"/><path class="cls-22" d="M495.58,593.7a6.89,6.89,0,0,1,3-3,7.94,7.94,0,0,1,4.32-.94,7.06,7.06,0,0,1,4.2,1.68,6.48,6.48,0,0,1,2.22,3.67c-1.42-.47-2.49-1-3.59-1.29a12.17,12.17,0,0,0-3.07-.57A40.17,40.17,0,0,0,495.58,593.7Z"/><path class="cls-22" d="M485.58,642.8a32.93,32.93,0,0,1,3.29-1.29c1-.33,2-.63,3-.9l2.92-.83c1-.25,2-.62,3.37-.88A7.33,7.33,0,0,1,492.8,644a9.38,9.38,0,0,1-3.72.28A7,7,0,0,1,485.58,642.8Z"/><path class="cls-27" d="M497.84,789.45c-34.54-31.76,3.72-73,3.72-73s-1.93,30.72,25.33,15.23a41.35,41.35,0,0,0,10.82-9c7.13-8.23,21.69-26.25,31-46a1.14,1.14,0,0,1,1.7-.45,34.2,34.2,0,0,0,16.24,6.07,1.19,1.19,0,0,1,1,1.64c-4.23,10.31-27.26,70.44,4,85.51a11.83,11.83,0,0,0,13.5-2.23,23.8,23.8,0,0,0,5-7.89.38.38,0,0,1,.73.11c.44,8.36,2.24,43.16,2.24,43.16l3.71,71.59s0,18.59,8.55,24.65a.61.61,0,0,1,.08,1c-4,3.65-30.06,24.46-104.36,20.67a.78.78,0,0,1-.74-.69l-9.67-82.08-2.57-18.44a25.71,25.71,0,0,0-2-6.87Z"/><path class="cls-29" d="M498,789.65c3.06,3.62,18.75,3.69,18.75,3.69s-13.93,6.88-10.57,19.09Z"/><path class="cls-20" d="M518.32,852.43a11.88,11.88,0,0,1,2.56-2.82,18.54,18.54,0,0,1,3.15-2.13,16.28,16.28,0,0,1,7.29-2c-1.09.71-2.18,1.27-3.25,1.86L524.86,849C522.71,850.15,520.62,851.32,518.32,852.43Z"/><path class="cls-17" d="M682.78,790.75C641,692.13,587.66,684,587.65,684c-4.24,10.35-27.24,70.43,4,85.5,8.32,3.79,15.38-1.82,18.51-10.12a.38.38,0,0,1,.73.11h0c15.23,2.55,33.25,31.44,33.25,31.44-9.7,7.4-66.15,51.24-99.71,51.24a34.79,34.79,0,0,0-20.18,5.73c-5.87,3.61-10.73,8.54-7.9,12.69a5.12,5.12,0,0,0,6.19,1.66s-5.16,10.59,6.68,7.52c0,0-2.09,8.6,8.31,5.9,0,0,3.18,5,17-4.83,17.41-12.35,102.33-44,108.35-46.59C690.24,812.41,685.12,795.77,682.78,790.75Z"/><path class="cls-20" d="M522.5,862.25a5.77,5.77,0,0,1,1.93-2.39,8,8,0,0,1,1.22-.76c.44-.23.88-.38,1.44-.61a2.57,2.57,0,0,1-.52,1.63,5.09,5.09,0,0,1-1.09,1.13A4.68,4.68,0,0,1,522.5,862.25Z"/><path class="cls-20" d="M529.18,869.77a4.74,4.74,0,0,1,1.54-2.31,6.24,6.24,0,0,1,1.09-.72,7.51,7.51,0,0,1,1.34-.52,2.4,2.4,0,0,1-.39,1.5,4.52,4.52,0,0,1-.91,1.07A4,4,0,0,1,529.18,869.77Z"/><path class="cls-20" d="M537.49,875.67a4.65,4.65,0,0,1,1.35-2.28,6,6,0,0,1,2.25-1.32,2.42,2.42,0,0,1-.24,1.48,3.89,3.89,0,0,1-.8,1.1A3.57,3.57,0,0,1,537.49,875.67Z"/><path class="cls-20" d="M621.63,764.75s-10.4-11.52-24.47-15.88l13.47,10.63S615.54,759.87,621.63,764.75Z"/><path class="cls-27" d="M590.35,557.89s16.84,11.58,8.38,28.18l-1.64-.66s-4.94-17.07-12.89-24C584.2,561.38,584.11,556.36,590.35,557.89Z"/><path class="cls-20" d="M553.86,622.86a3.07,3.07,0,0,0,1.93,1.35,3.52,3.52,0,0,0,2.21-.44,13.92,13.92,0,0,0,3.61-3.13,10.1,10.1,0,0,0,2.17-4.06,6,6,0,0,0-.46-4.27,3.06,3.06,0,0,0-3.16-1.84c-1.25.18-2.33,1.53-3.19,2.81a9.52,9.52,0,0,0-1.47,4.44c0,.75,0,1.64.62,2s1.47-.2,2.11-.67c-.53.57-1.22,1.39-2.3,1.1a2.75,2.75,0,0,1-1.3-2.39,9.9,9.9,0,0,1,1.15-5.14,9.79,9.79,0,0,1,1.54-2.2,4.9,4.9,0,0,1,2.5-1.56,4.13,4.13,0,0,1,3,.51,5.5,5.5,0,0,1,2,2.13,7.57,7.57,0,0,1,.52,5.51,10.7,10.7,0,0,1-2.77,4.57,13,13,0,0,1-4.27,3,4.17,4.17,0,0,1-2.68.1A3,3,0,0,1,553.86,622.86Z"/><path class="cls-20" d="M554.94,616.88a3.74,3.74,0,0,1,.73-1.66,1.81,1.81,0,0,1,1.92-.69,2.94,2.94,0,0,1,2,3.35,5.08,5.08,0,0,1-2.08,3.2,3.9,3.9,0,0,1-3.49.82,4.9,4.9,0,0,0,2.79-1.63,5.37,5.37,0,0,0,1.51-2.59,2,2,0,0,0-1-2.23C556.55,615,555.56,615.92,554.94,616.88Z"/><path class="cls-17" d="M2206.73,620.69s-66.16-18.82-84-48.6a17.72,17.72,0,0,0-5.55-5.83s-16.73-10.54-30.33-17c-11.54-5.5-20.55-7.54-18-3.7,7.35,11.11,20.93,16.3,20.93,16.3s-11.42,4.26-5.8,13.71c0,0-6.92,3.54-1.52,11.81,0,0-10.15,5.19,2.16,12.52,0,0,14.93,14,36.63,13,2.34-.1,4.67-.44,6.74.75l58.46,36.82Z"/><path class="cls-20" d="M2082.46,587.34a32.67,32.67,0,0,1,6.71,1.89,23.23,23.23,0,0,1,6.18,3.47,5.57,5.57,0,0,1,2.13,3.34,4.47,4.47,0,0,1-1.4,3.74,6.4,6.4,0,0,1-3.28,1.76,3.91,3.91,0,0,1-3.42-.82,3.82,3.82,0,0,0,3.19,0,6.19,6.19,0,0,0,2.48-1.84,3.18,3.18,0,0,0,.77-2.56,4.1,4.1,0,0,0-1.61-2.25,34.86,34.86,0,0,0-5.62-3.57Z"/><path class="cls-20" d="M2111,563a70.52,70.52,0,0,0-8.23,1.14,30.53,30.53,0,0,0-7.79,2.4,10.06,10.06,0,0,0-3.1,2.25,4.11,4.11,0,0,0-1.07,3.23,6.1,6.1,0,0,0,.43,1.77l.8,1.9c.54,1.26,1.12,2.51,1.7,3.75s1.22,2.46,1.89,3.64c.34.58.7,1.16,1.07,1.72l.57.82a1.15,1.15,0,0,0,.46.4c.7.39,1.7-.41,1.58-1.39a27.36,27.36,0,0,1-.3-4.21,9.69,9.69,0,0,1,.86-4.31,3.51,3.51,0,0,1,1.73-1.55,8.54,8.54,0,0,1,2.07-.69,16.46,16.46,0,0,1,8.3.94,17.28,17.28,0,0,0-8.14-.24,8.18,8.18,0,0,0-1.83.75,2.47,2.47,0,0,0-1.24,1.25,8.64,8.64,0,0,0-.5,3.83,27.06,27.06,0,0,0,.54,4.08,3,3,0,0,1-.93,2.54,2.64,2.64,0,0,1-2.78.5,2.77,2.77,0,0,1-1.15-.89c-.22-.29-.44-.58-.64-.88-.41-.59-.79-1.19-1.15-1.8-.72-1.23-1.38-2.48-2-3.74s-1.18-2.55-1.72-3.84l-.79-2a7.32,7.32,0,0,1-.53-2.26,5.77,5.77,0,0,1,1.59-4.41,10.41,10.41,0,0,1,3.7-2.47C2099.76,563.13,2105.44,562.81,2111,563Z"/><path class="cls-20" d="M2121.47,600c-.15,0-16.54,1-16.75-22.33C2104.72,577.65,2107.59,596.26,2121.47,600Z"/><path class="cls-20" d="M2096.48,594.11a21.19,21.19,0,0,0,2.76-3.19,4.84,4.84,0,0,0,.68-1.69,13.34,13.34,0,0,0,.21-2.19,3.62,3.62,0,0,1,1.18,2.2,3.87,3.87,0,0,1-.55,2.61,5,5,0,0,1-1.89,1.73A4.42,4.42,0,0,1,2096.48,594.11Z"/><path class="cls-20" d="M2089.7,563a8.18,8.18,0,0,1,2.79.26,10.79,10.79,0,0,1,2.54,1.07,3.1,3.1,0,0,1-3,.65A3.41,3.41,0,0,1,2089.7,563Z"/><path class="cls-19" d="M2342.56,1324.06s0,.09-.07.25c-.63,2.27-5.33,19.52-4.25,28,1.15,9.08,15.2,11,15.2,11l10.16-28.82"/><path class="cls-20" d="M2311.87,1097s25.75,48.32,25.5,54.49c-.92,22.83-1.6,79.91,11,131.24,0,0-.15,31.41-5.77,41.35,0,0,4.76,15.27,18.3,9.51l9.66-29.54-1.16-60.51.29-29.83-5.33-60.23-.72-41.06-1.73-7.35Z"/><path class="cls-19" d="M2347.66,1280s5,7.09,18.53,7.2l.22,8s-17.27-3.14-18.25-6.11l.11-5.26Z"/><path class="cls-19" d="M2396.79,1352c.88.18,1.07,1.1,1.62,1.81,2.86,3.65,4.89,25.69.24,34.85-3.46,6.82-27.33,20-46.49,1a11,11,0,0,1-3.17-7.89c.08-7.59,1-23.51,7.13-36.77a1.45,1.45,0,0,1,1.62-.8Z"/><path class="cls-17" d="M2424.69,1104.62s-16.42,21.47-14.51,40.57c2.56,25.6,6.47,88.28-14.45,153.37,0,0-2.74,31.55,1.73,53.74,0,0-22.19,25.07-40.63-5.9,0,0,9.22-25.94,9.51-44.38.23-15.15-1.86-30.89-.22-50.24a155.87,155.87,0,0,0-.44-29.77c-2.19-20.47-5.24-59.34-4.67-113.65Z"/><path class="cls-19" d="M2366.35,1296.71a37.17,37.17,0,0,0,29.38,1.85l-.5,8.25s-16.57,5.15-29-1.92Z"/><path class="cls-30" d="M2442.49,884.67c6,7.05,11.11,41.13,13.36,66.32a279.86,279.86,0,0,1-22.36,137.55c-4.69,10.66-8.15,16.73-8.15,16.73-92.79,9.79-113.83-2.31-113.83-2.31-63.72-132-5.26-219-5.26-219Z"/><path class="cls-31" d="M2351.93,658.67c-49,4.31-102.2-15.34-157.2-45.24l-13.4,36.74,118.43,61.76c4,3.65-.5,40.81,5.08,69.33,11.11,56.77-5.16,108.53-7.52,112.42,0,0,42.51,26,154,4.27-14.32-77.18,5.63-105.28-2-148.26l15,73.6-18.92,4.79a1.06,1.06,0,0,0-.72,1.48c1.85,4,7.54,18.26,6.4,39.51a.82.82,0,0,0,.78.88c6.22.33,45.73,1.34,56.24-25.46a13.28,13.28,0,0,0,.57-7.49l-19.17-94.76S2480.67,699.45,2461,691l-57.49-29.39Z"/><polygon class="cls-32" points="2360.14 707.52 2404.38 707.23 2377.14 820.77 2360.14 707.52"/><path class="cls-33" d="M2329.49,658.45s.54,18.74,4.86,75.15c0,0,8.43-1.3,10.73.5s-8,13.62-8,13.62l40,73-17.83-117.11-7.38-45S2350.34,660.29,2329.49,658.45Z"/><polygon class="cls-33" points="2443.71 681.94 2425.99 729.27 2413.67 736.08 2419.51 742.24 2377.14 820.77 2413.78 667.57 2443.71 681.94"/><path class="cls-20" d="M2350.78,640.23s6.77,11.53,1.15,18.44l8.21,48.85,44.24-.29L2417.06,652l-10.52-22.33L2377,647h-9.08Z"/><path class="cls-17" d="M2329.81,583.49s.43,16.67,1.51,29.83c1.19,14.37,21.73,33.39,35.77,36.31s42-19.13,42-19.13l18.37-15.77,2.16-21.4-17.94-6.05-22.15-16.43-19-3-10.48-13.08-3.78-5.4-9.3,13.07-8.86,10.16Z"/><path class="cls-22" d="M2338,588.21a5.61,5.61,0,0,1,1.05-3.62,6.45,6.45,0,0,1,3.17-2.41,5.65,5.65,0,0,1,4.09.11,5.28,5.28,0,0,1,2.79,2.61c-1.35.1-2.38,0-3.32.14a8.51,8.51,0,0,0-2.42.51A38.86,38.86,0,0,0,2338,588.21Z"/><path class="cls-22" d="M2377.14,585.19a7.69,7.69,0,0,1,3.34-2.8,9.13,9.13,0,0,1,4.42-.8,7.54,7.54,0,0,1,4.32,1.74,6.23,6.23,0,0,1,2.19,3.87,32.18,32.18,0,0,0-3.61-1.46,13.71,13.71,0,0,0-3.19-.61C2382.43,585,2380.11,585.18,2377.14,585.19Z"/><ellipse class="cls-22" cx="2380.16" cy="600.24" rx="3.24" ry="4.39"/><ellipse class="cls-22" cx="2344.51" cy="600.39" rx="3.24" ry="4.25"/><path class="cls-34" d="M2359.05,630.41c-1.16-1.68-1.28-3.45,3.55-3.27a4.76,4.76,0,0,1,.66.06,17.05,17.05,0,0,0,9.84-1.32,2.71,2.71,0,0,1,3.63,1c.8,1.56-4.77,5.92-8.16,6.43a8.26,8.26,0,0,1-2.49.44A8,8,0,0,1,2359.05,630.41Z"/><path class="cls-20" d="M2360.5,618a3.27,3.27,0,0,1-3.3-.3A3.34,3.34,0,0,1,2356,616a3.85,3.85,0,0,1-.17-2,4.88,4.88,0,0,1,1.67-2.88,5.35,5.35,0,0,1,2.84-1.25,13.26,13.26,0,0,1-.53,2.82,19.46,19.46,0,0,0-.48,1.9,2.56,2.56,0,0,0-.05,1.18A7.81,7.81,0,0,0,2360.5,618Z"/><path class="cls-22" d="M2329.16,580.79s-6.26-59,52.31-56c26.14,1.35,41.57,13.12,50.63,25.74a55.6,55.6,0,0,1,2.52,60.78c-2.68,4.47-6.45,9.37-10.25,11.06a27.72,27.72,0,0,0-5.15-1.84c-.66-.12-1.49-.13-1.07-.65,3-3.63,12.41-16.17,6.89-22-3.21-3.42-8.81-2.53-11.34,1.42a12.26,12.26,0,0,0-1.87,6.15s6.09-24.1-44.24-35.43c-9.4-2.12-10.22-17.41-10.22-17.41s.43,14.86-12.86,23-14.91,12.2-14.91,12.2Z"/><path class="cls-20" d="M2091.35,577.15c-4.67,2.55-6.69-1.35-6.69-1.35S2088.73,578,2091.35,577.15Z"/><path class="cls-22" d="M2379.74,596.16a15.26,15.26,0,0,1,3-.22c.46,0,.93,0,1.42.1a8.7,8.7,0,0,1,1.61.33,3.76,3.76,0,0,1-3.07,1.35,4.17,4.17,0,0,1-1.66-.4A2.74,2.74,0,0,1,2379.74,596.16Z"/><path class="cls-22" d="M2338.8,596a16,16,0,0,1,3-.21,13.94,13.94,0,0,1,1.42.1,7.32,7.32,0,0,1,1.61.33,3.72,3.72,0,0,1-3.07,1.34,4.34,4.34,0,0,1-1.66-.39A2.86,2.86,0,0,1,2338.8,596Z"/><g class="cls-35"><ellipse class="cls-36" cx="2391.62" cy="616.02" rx="7.42" ry="5.33"/></g><g class="cls-35"><ellipse class="cls-36" cx="2343.27" cy="616.04" rx="5.5" ry="5.31"/></g><path class="cls-20" d="M2422.17,602.77s-4.47-3.53-5.62,1.08-.36,11.45,1.73,8.21-1.15-7.64-1.15-7.64S2417.81,600.89,2422.17,602.77Z"/><path class="cls-17" d="M2447.27,830.54c-14.45,4-43.6,10.93-67.35,10.14l-4.3-.24c-1.07-.09-2.14-.19-3.2-.32l0,.13c-10.38-.64-23.63-1.64-27.58-2.79-6.78-2-10.52-4.24-13.21-1.82-2.09,1.89-6.82,3.78-8.8,4.53a1.78,1.78,0,0,0-1.13,1.57c-.14,1.84.5,5.15,6.67,5.81a.11.11,0,0,1,0,.22c-2.72.57-11.53,2.61-11.83,5.3-.35,3.18,1.29,6.51,5.62,6.06,0,0,.11,5.3,3,6.21s4.15.38,4.15.38,1,4.55,3.84,4.78,4.29.48,4.29.48a5.32,5.32,0,0,0,4.84,3.19c6.38.1,15.77-3.67,23.11-5.83,22.7-5.63,44.62,2.1,88.64-.33C2456.63,852.37,2453.59,838.74,2447.27,830.54Z"/><path class="cls-20" d="M2328.56,847.57c-.33,0-2.13-.82-1.74-1s9.36-4.18,15.7-2.52c.4.11-13.7,3.42-13.77,3.45A.43.43,0,0,1,2328.56,847.57Z"/><path class="cls-20" d="M2322.65,859.87a1,1,0,0,1-.83-.51,1.1,1.1,0,0,1,.33-1.45c.22-.14,5.53-3.58,11.2-3.83a1,1,0,0,1,1,1,1,1,0,0,1-.93,1.09c-5.18.23-10.22,3.5-10.27,3.53A1,1,0,0,1,2322.65,859.87Z"/><path class="cls-20" d="M2337.48,871.56a1.08,1.08,0,0,1-.37-1.4c.12-.25,1.39-2.49,6.89-3.64a1,1,0,0,1,1.14.84,1.06,1.06,0,0,1-.77,1.24c-4.53.95-5.56,2.59-5.57,2.61A1.64,1.64,0,0,1,2337.48,871.56Z"/><path class="cls-20" d="M2329.84,866.46a1,1,0,0,1-.8-.44,1.11,1.11,0,0,1,.23-1.47,22.12,22.12,0,0,1,9.42-3.92,1,1,0,0,1,1.09.91,1.05,1.05,0,0,1-.84,1.19,20.37,20.37,0,0,0-8.53,3.54A1,1,0,0,1,2329.84,866.46Z"/><path class="cls-22" d="M2426.42,623a6.26,6.26,0,0,0-2.73-1.7l-5.05-1.49-.16,0a79.55,79.55,0,0,1-10.82,11.83c5.38,57.8-38.76,82.4-41.27,85.79,0,0,52.69,3,71.2-33.59C2448.35,662.62,2440.32,637.41,2426.42,623Z"/></g></g></svg>