<svg xmlns="http://www.w3.org/2000/svg" viewBox="0 0 2703.61 1396.64"><defs><style>.cls-1{fill:#f9eded;}.cls-2{fill:#a8d29f;}.cls-3{fill:#82b378;}.cls-4{fill:#f93535;}.cls-5{fill:#f9c7c7;}.cls-6{fill:#fce0e0;}.cls-7{fill:#e87979;}.cls-8{fill:#ed6b6b;}.cls-9{fill:#d65454;}.cls-10{fill:#ffd9d9;}.cls-11{fill:#78acea;}.cls-12{fill:#f9afaf;}.cls-13{fill:#f99746;}.cls-14{fill:#fff;}.cls-15{fill:#c65447;}.cls-16{fill:#ffb27d;}.cls-17{fill:#f42525;}.cls-18{fill:#233862;}.cls-19{fill:#4f4f4f;}.cls-20{fill:#2d2d2d;}.cls-21{fill:#ed985f;}.cls-22{fill:#2c3a64;}.cls-23{fill:#c00;}.cls-24{fill:#e0e0e0;}</style></defs><g id="Layer_2" data-name="Layer 2"><g id="Слой_1" data-name="Слой 1"><path class="cls-1" d="M206.05,1395.94s-309.76-332.59-52.38-692.66c228.36-319.48,494.61-297.65,690-168,83.2,55.22,323.07,6.81,527.23-318.28C1649.27-226.32,2614.37,42.56,2438.4,724.62c-85.15,330.08,259.17,342.07,83.72,672Z"/><path class="cls-2" d="M800.93,753S647.68,534.84,587.8,563.11,800.93,753,800.93,753Z"/><path class="cls-2" d="M791.18,694.35s-23.41-164-60.31-157.57S791.18,694.35,791.18,694.35Z"/><path class="cls-3" d="M661.62,1205.55s14.73-73-42.47-82.15c0,0-38.8-1.35-61.64,13.28,0,0,64.88,37.45,57.16,49.1s-69.28-47-69.28-47-69.55,30.46-85.08,52.52c0,0,82.19,14.64,71.85,24s-96.58-1.88-96.58-1.88-55.56,44.75-31.36,80.38,51.82,35.38,60.56,29.19,51.54-57.35,57-50.4-13.39,50.16-35.67,64.13c0,0,70,23.56,91-6.29s11.33-53.07,24.69-71.28,28.68-26.75,25.94-14.26-30.66,38.75-30.78,62.62-2.49,41.25,24.78,20.14,63.48-69.92,51.67-96Z"/><path class="cls-3" d="M435,1278s163.19-99.61,226.67-72.49c0,0,21.78,19.85,59.25,28.06l9.86,8.46s-45.93-14.32-57.3-10.39C673.43,1231.68,656.59,1163.55,435,1278Z"/><path class="cls-3" d="M720.87,1233.61s50.59,6.47,79.51,52.39l-6.17,4.21s-38.76-42.53-70.12-50.11S720.87,1233.61,720.87,1233.61Z"/><path class="cls-2" d="M711.57,992.6s118.51-66.36,63.2-156.42c0,0-44.24-55.3-91.64-69.52,0,0,25.28,134.3,0,137.46s-17.38-151.68-17.38-151.68-124.82-60-173.8-55.3c0,0,77.42,131.14,52.14,128S431.91,689.24,431.91,689.24s-128-23.7-148.52,52.14S296,855.14,315,859.88s140.62,3.16,137.46,19-85.32,41.08-131.14,26.86c0,0,50.56,124.82,116.92,118.5s86.9-47.4,128-50.56,71.1,7.9,50.56,19-90.06,3.63-123.24,31.83-60,45.59,1.58,58.23,172.22,4.74,194.34-42.66Z"/><path class="cls-3" d="M341.85,765.08S673.65,872.52,711.57,992.6c0,0-1.58,53.72,31.6,115.34v23.7s-34.76-80.58-53.72-91.64C689.45,1040,763.71,935.72,341.85,765.08Z"/><path class="cls-3" d="M743.17,1107.94s51.17,77.71,22,172.29L752,1276.7s12.78-104.19-14-156.58S743.17,1107.94,743.17,1107.94Z"/><path class="cls-4" d="M832,437.39,654.71,1354a30.22,30.22,0,0,0,29.67,36h93.51Z"/><path class="cls-5" d="M2010.57,699.78s-79.75-50.87-37.7-111.29c0,0,33-36.69,66.5-44.69,0,0-22.94,92.38-5.49,95.59S2052,534.61,2052,534.61s89.19-36.77,123.06-31.52c0,0-59.07,88.1-41.36,86.92s83.43-90,83.43-90,89.94-11.37,101.19,42.18-13.33,78.6-26.7,81.14-97.91-3.41-96.34,7.7,57.68,32,90.11,23.91c0,0-40.14,84.78-86,77.74s-58.53-36.43-87-40.27-49.76,2.65-35.92,11.17,62.48,6.11,84.43,27,39.93,34.1-3.42,40.43-120-3.58-133.44-37.43Z"/><path class="cls-5" d="M2276.74,556.33s-235,61.46-266.17,143.45c0,0-1,37.42-26.58,78.94l-.94,16.48s27.38-54.64,41-61.58C2024.06,733.62,1976.59,658.15,2276.74,556.33Z"/><path class="cls-5" d="M1984,778.72s-38.68,52-22.17,118.93l9.29-1.94s-4.72-73,16-108.32S1984,778.72,1984,778.72Z"/><path class="cls-6" d="M1795.84,479s-122.53-26.91-97.78-121.34c0,0,24.29-60.74,62.38-86,0,0,13.64,125.49,36.83,121.51S1772,254.38,1772,254.38s94.25-86.52,138.82-95.46c0,0-33.3,136.68-11.8,127.11s62.76-150.18,62.76-150.18,106.78-55.24,145.26,6.29,19.31,104,3.82,113.22-123.46,40.48-116.43,53.6,86.43,13.45,123.12-11.4c0,0-11.25,123.89-71.6,136.08s-89.52-18.61-126.68-10.4-60.74,26-39.62,30.31,80.59-20.93,117.48-4.88,65.29,24.21,14.2,51.89-151,50.34-183.22,14.37Z"/><path class="cls-6" d="M2061.7,178.76S1797.19,362.65,1795.84,479c0,0,15.79,47.06,3,110.42l6.35,21s9.13-80.54,22.93-95.4C1828.1,514.93,1734.51,442.65,2061.7,178.76Z"/><path class="cls-6" d="M1798.82,589.38s-24.41,82.4,26.72,158.2l10.69-6.66s-39.22-88.67-29.59-142.16S1798.82,589.38,1798.82,589.38Z"/><path class="cls-7" d="M834.14,433.68l-117.52,900a49.85,49.85,0,0,0,49.44,56.3H938.45l-97.2-959.53Z"/><path class="cls-8" d="M834.14,433.68l-52.6,894.24a58.6,58.6,0,0,0,58.5,62h257.11Z"/><path class="cls-9" d="M832.17,441l25.58,886.94a58.6,58.6,0,0,0,58.5,62h257.11Z"/><path class="cls-10" d="M2063.2,1390H1049.4a52.42,52.42,0,0,1-51.56-43L843.57,503.35a62.37,62.37,0,0,1,61.35-73.58H1906.79a52.42,52.42,0,0,1,51.56,43l156.41,855.36A52.42,52.42,0,0,1,2063.2,1390Z"/><path class="cls-4" d="M863.64,612.92h1121l-28.74-159.28a29,29,0,0,0-28.56-23.87H841.52A9.5,9.5,0,0,0,832.17,441Z"/><path class="cls-11" d="M889.85,381.84a48.64,48.64,0,0,0-48.6,48.59h9.34a39.25,39.25,0,1,1,41.5,39.21V479a48.14,48.14,0,0,0,12.42-2.21,48.59,48.59,0,0,0-14.66-94.93Z"/><path class="cls-11" d="M904.88,474a10.82,10.82,0,0,1-.37,2.81,10.54,10.54,0,1,1-1.82-9.23A10.42,10.42,0,0,1,904.88,474Z"/><path class="cls-11" d="M1064.11,381.84a48.65,48.65,0,0,0-48.61,48.59h9.33a39.27,39.27,0,1,1,78.54,0,38.69,38.69,0,0,1-2,12.43,39.28,39.28,0,0,1-35,26.78V479a48.06,48.06,0,0,0,12.42-2.21,48.59,48.59,0,0,0-14.64-94.93Z"/><path class="cls-11" d="M1079.13,474a10.83,10.83,0,0,1-.38,2.81,10.55,10.55,0,1,1,.38-2.81Z"/><path class="cls-11" d="M1238.36,381.84a48.64,48.64,0,0,0-48.6,48.59h9.33a39.27,39.27,0,1,1,41.5,39.21V479a48.21,48.21,0,0,0,12.42-2.21,48.59,48.59,0,0,0-14.65-94.93Z"/><path class="cls-11" d="M1253.39,474a10.83,10.83,0,0,1-.38,2.81,10.55,10.55,0,1,1,.38-2.81Z"/><path class="cls-11" d="M1412.61,381.84A48.64,48.64,0,0,0,1364,430.43h9.32a39.25,39.25,0,1,1,41.51,39.21V479a48.21,48.21,0,0,0,12.42-2.21,48.6,48.6,0,0,0-14.66-94.93Z"/><path class="cls-11" d="M1427.64,474a11.27,11.27,0,0,1-.37,2.81,10.54,10.54,0,1,1-1.82-9.23A10.42,10.42,0,0,1,1427.64,474Z"/><path class="cls-11" d="M1586.87,381.84a48.65,48.65,0,0,0-48.61,48.59h9.33a39.26,39.26,0,1,1,41.5,39.21V479a48.06,48.06,0,0,0,12.42-2.21,48.59,48.59,0,0,0-14.64-94.93Z"/><path class="cls-11" d="M1601.89,474a10.83,10.83,0,0,1-.38,2.81,10.53,10.53,0,1,1-1.81-9.23A10.42,10.42,0,0,1,1601.89,474Z"/><path class="cls-11" d="M1761.12,381.84a48.64,48.64,0,0,0-48.6,48.59h9.32a39.25,39.25,0,1,1,41.51,39.21V479a48.14,48.14,0,0,0,12.42-2.21,48.6,48.6,0,0,0-14.65-94.93Z"/><path class="cls-11" d="M1776.14,474a10.82,10.82,0,0,1-.37,2.81,10.54,10.54,0,1,1-1.82-9.23A10.42,10.42,0,0,1,1776.14,474Z"/><path class="cls-11" d="M1935.37,381.84a48.64,48.64,0,0,0-48.6,48.59h9.33a39.27,39.27,0,0,1,78.54,0,38.69,38.69,0,0,1-2,12.43,39.3,39.3,0,0,1-35,26.78V479a48.06,48.06,0,0,0,12.42-2.21,48.59,48.59,0,0,0-14.65-94.93Z"/><path class="cls-11" d="M1950.4,474a10.83,10.83,0,0,1-.38,2.81,10.53,10.53,0,1,1-1.81-9.23A10.42,10.42,0,0,1,1950.4,474Z"/><path class="cls-12" d="M1511.93,912.14h-56.67c-6.55,0-13-5.36-14.21-11.91l-10.93-56.67c-1.27-6.55,3.06-11.91,9.61-11.91h56.67c6.55,0,12.95,5.36,14.21,11.91l10.93,56.67C1522.81,906.78,1518.48,912.14,1511.93,912.14Z"/><path class="cls-12" d="M1654.93,912.14h-56.67c-6.55,0-13-5.36-14.21-11.91l-10.93-56.67c-1.26-6.55,3.06-11.91,9.61-11.91h56.67c6.55,0,12.95,5.36,14.21,11.91l10.93,56.67C1665.81,906.78,1661.48,912.14,1654.93,912.14Z"/><path class="cls-7" d="M1797.93,912.14h-56.67c-6.55,0-12.94-5.36-14.21-11.91l-10.93-56.67c-1.26-6.55,3.06-11.91,9.61-11.91h56.67c6.56,0,12.95,5.36,14.21,11.91l10.94,56.67C1808.81,906.78,1804.48,912.14,1797.93,912.14Z"/><path class="cls-12" d="M1082.92,912.14h-56.67c-6.55,0-12.94-5.36-14.21-11.91l-10.93-56.67c-1.26-6.55,3.06-11.91,9.62-11.91h56.67c6.55,0,12.94,5.36,14.21,11.91l10.93,56.67C1093.8,906.78,1089.47,912.14,1082.92,912.14Z"/><path class="cls-13" d="M1020.81,742H996.46a6.53,6.53,0,0,1-6.11-5.12l-4.69-24.35a4.11,4.11,0,0,1,4.13-5.12h24.35a6.54,6.54,0,0,1,6.11,5.12l4.69,24.35A4.11,4.11,0,0,1,1020.81,742Z"/><path class="cls-12" d="M1225.92,912.14h-56.67c-6.55,0-12.94-5.36-14.2-11.91l-10.94-56.67c-1.26-6.55,3.07-11.91,9.62-11.91h56.67c6.55,0,12.94,5.36,14.21,11.91l10.93,56.67C1236.8,906.78,1232.48,912.14,1225.92,912.14Z"/><path class="cls-12" d="M1368.93,912.14h-56.67c-6.55,0-13-5.36-14.21-11.91l-10.93-56.67c-1.27-6.55,3.06-11.91,9.61-11.91h56.67c6.55,0,12.94,5.36,14.21,11.91l10.93,56.67C1379.8,906.78,1375.48,912.14,1368.93,912.14Z"/><path class="cls-7" d="M1940.93,912.14h-56.67c-6.55,0-12.94-5.36-14.21-11.91l-10.93-56.67c-1.26-6.55,3.07-11.91,9.62-11.91h56.67c6.55,0,12.94,5.36,14.21,11.91l10.93,56.67C1951.81,906.78,1947.48,912.14,1940.93,912.14Z"/><path class="cls-12" d="M1488.19,789.06h-56.67c-6.56,0-13-5.36-14.21-11.91l-10.93-56.67c-1.27-6.56,3.06-11.92,9.61-11.92h56.67c6.55,0,12.94,5.36,14.21,11.92l10.93,56.67C1499.06,783.7,1494.74,789.06,1488.19,789.06Z"/><path class="cls-12" d="M1631.19,789.06h-56.67c-6.55,0-13-5.36-14.21-11.91l-10.93-56.67c-1.27-6.56,3.06-11.92,9.61-11.92h56.67c6.55,0,12.95,5.36,14.21,11.92l10.93,56.67C1642.06,783.7,1637.74,789.06,1631.19,789.06Z"/><path class="cls-7" d="M1774.19,789.06h-56.67c-6.55,0-13-5.36-14.21-11.91l-10.93-56.67c-1.27-6.56,3.06-11.92,9.61-11.92h56.67c6.55,0,12.95,5.36,14.21,11.92l10.93,56.67C1785.07,783.7,1780.74,789.06,1774.19,789.06Z"/><path class="cls-7" d="M1917.19,789.06h-56.67c-6.55,0-12.94-5.36-14.21-11.91l-10.93-56.67c-1.26-6.56,3.06-11.92,9.61-11.92h56.67c6.55,0,12.95,5.36,14.21,11.92l10.93,56.67C1928.07,783.7,1923.74,789.06,1917.19,789.06Z"/><path class="cls-12" d="M1537.09,1042.59h-56.67c-6.55,0-12.94-5.36-14.21-11.91L1455.28,974c-1.26-6.55,3.06-11.91,9.62-11.91h56.67c6.55,0,12.94,5.36,14.2,11.91l10.94,56.67C1548,1037.23,1543.64,1042.59,1537.09,1042.59Z"/><path class="cls-12" d="M1680.09,1042.59h-56.67c-6.55,0-12.94-5.36-14.21-11.91L1598.28,974c-1.26-6.55,3.07-11.91,9.62-11.91h56.67c6.55,0,12.94,5.36,14.21,11.91l10.93,56.67C1691,1037.23,1686.65,1042.59,1680.09,1042.59Z"/><path class="cls-7" d="M1823.1,1042.59h-56.67c-6.55,0-13-5.36-14.21-11.91L1741.29,974c-1.27-6.55,3.06-11.91,9.61-11.91h56.67c6.55,0,12.94,5.36,14.21,11.91l10.93,56.67C1834,1037.23,1829.65,1042.59,1823.1,1042.59Z"/><path class="cls-12" d="M1108.09,1042.59h-56.67c-6.55,0-13-5.36-14.21-11.91L1026.28,974c-1.27-6.55,3.06-11.91,9.61-11.91h56.67c6.55,0,13,5.36,14.21,11.91l10.93,56.67C1119,1037.23,1114.64,1042.59,1108.09,1042.59Z"/><path class="cls-12" d="M1251.09,1042.59h-56.67c-6.55,0-13-5.36-14.21-11.91L1169.28,974c-1.27-6.55,3.06-11.91,9.61-11.91h56.67c6.55,0,13,5.36,14.21,11.91l10.93,56.67C1262,1037.23,1257.64,1042.59,1251.09,1042.59Z"/><path class="cls-12" d="M1394.09,1042.59h-56.67c-6.55,0-12.94-5.36-14.21-11.91L1312.28,974c-1.26-6.55,3.06-11.91,9.61-11.91h56.67c6.56,0,13,5.36,14.21,11.91l10.94,56.67C1405,1037.23,1400.64,1042.59,1394.09,1042.59Z"/><path class="cls-7" d="M1966.1,1042.59h-56.67c-6.55,0-13-5.36-14.21-11.91L1884.29,974c-1.27-6.55,3.06-11.91,9.61-11.91h56.67c6.55,0,13,5.36,14.21,11.91l10.93,56.67C1977,1037.23,1972.65,1042.59,1966.1,1042.59Z"/><path class="cls-12" d="M1562.26,1173.05h-56.67c-6.55,0-12.95-5.36-14.21-11.91l-10.93-56.67c-1.27-6.55,3.06-11.91,9.61-11.91h56.67c6.55,0,13,5.36,14.21,11.91l10.93,56.67C1573.13,1167.69,1568.81,1173.05,1562.26,1173.05Z"/><path class="cls-12" d="M1705.26,1173.05h-56.67c-6.55,0-12.95-5.36-14.21-11.91l-10.93-56.67c-1.27-6.55,3.06-11.91,9.61-11.91h56.67c6.55,0,13,5.36,14.21,11.91l10.93,56.67C1716.14,1167.69,1711.81,1173.05,1705.26,1173.05Z"/><path class="cls-7" d="M1848.26,1173.05h-56.67c-6.55,0-12.95-5.36-14.21-11.91l-10.93-56.67c-1.26-6.55,3.06-11.91,9.61-11.91h56.67c6.56,0,13,5.36,14.21,11.91l10.93,56.67C1859.14,1167.69,1854.81,1173.05,1848.26,1173.05Z"/><path class="cls-12" d="M1133.25,1173.05h-56.67c-6.55,0-12.94-5.36-14.21-11.91l-10.93-56.67c-1.26-6.55,3.06-11.91,9.61-11.91h56.68c6.55,0,12.94,5.36,14.2,11.91l10.94,56.67C1144.13,1167.69,1139.8,1173.05,1133.25,1173.05Z"/><path class="cls-4" d="M1276.25,1173.05h-56.67c-6.55,0-12.94-5.36-14.21-11.91l-10.93-56.67c-1.26-6.55,3.06-11.91,9.62-11.91h56.67c6.55,0,12.94,5.36,14.21,11.91l10.93,56.67C1287.13,1167.69,1282.8,1173.05,1276.25,1173.05Z"/><path class="cls-12" d="M1419.25,1173.05h-56.66c-6.56,0-12.95-5.36-14.21-11.91l-10.94-56.67c-1.26-6.55,3.07-11.91,9.62-11.91h56.67c6.55,0,12.94,5.36,14.21,11.91l10.93,56.67C1430.13,1167.69,1425.81,1173.05,1419.25,1173.05Z"/><path class="cls-7" d="M1991.26,1173.05h-56.67c-6.55,0-12.94-5.36-14.21-11.91l-10.93-56.67c-1.26-6.55,3.06-11.91,9.61-11.91h56.68c6.55,0,12.94,5.36,14.2,11.91l10.94,56.67C2002.14,1167.69,1997.81,1173.05,1991.26,1173.05Z"/><path class="cls-12" d="M1586,1296.13h-56.67c-6.55,0-12.95-5.36-14.21-11.91l-10.93-56.67c-1.27-6.55,3.06-11.91,9.61-11.91h56.67c6.55,0,13,5.36,14.21,11.91l10.93,56.67C1596.88,1290.77,1592.55,1296.13,1586,1296.13Z"/><path class="cls-12" d="M1729,1296.13h-56.67c-6.55,0-12.94-5.36-14.21-11.91l-10.93-56.67c-1.26-6.55,3.06-11.91,9.61-11.91h56.67c6.56,0,13,5.36,14.21,11.91l10.93,56.67C1739.88,1290.77,1735.55,1296.13,1729,1296.13Z"/><path class="cls-7" d="M1872,1296.13h-56.67c-6.55,0-12.94-5.36-14.21-11.91l-10.93-56.67c-1.26-6.55,3.06-11.91,9.62-11.91h56.67c6.55,0,12.94,5.36,14.21,11.91l10.93,56.67C1882.88,1290.77,1878.55,1296.13,1872,1296.13Z"/><path class="cls-12" d="M1157,1296.13h-56.67c-6.55,0-12.94-5.36-14.2-11.91l-10.94-56.67c-1.26-6.55,3.07-11.91,9.62-11.91h56.67c6.55,0,12.94,5.36,14.21,11.91l10.93,56.67C1167.87,1290.77,1163.55,1296.13,1157,1296.13Z"/><path class="cls-12" d="M1300,1296.13h-56.67c-6.56,0-12.95-5.36-14.21-11.91l-10.93-56.67c-1.27-6.55,3.06-11.91,9.61-11.91h56.67c6.55,0,12.94,5.36,14.21,11.91l10.93,56.67C1310.87,1290.77,1306.55,1296.13,1300,1296.13Z"/><path class="cls-12" d="M1443,1296.13h-56.67c-6.55,0-12.95-5.36-14.21-11.91l-10.93-56.67c-1.27-6.55,3.06-11.91,9.61-11.91h56.67c6.55,0,13,5.36,14.21,11.91l10.93,56.67C1453.88,1290.77,1449.55,1296.13,1443,1296.13Z"/><path class="cls-12" d="M1192.57,719.64H1042.44a4,4,0,0,1-4-4h0a4,4,0,0,1,4-4h150.13a4,4,0,0,1,4,4h0A4,4,0,0,1,1192.57,719.64Z"/><path class="cls-12" d="M1197.14,737.82H1047a4,4,0,0,1-4-4h0a4,4,0,0,1,4-4h150.13a4,4,0,0,1,4,4h0A4,4,0,0,1,1197.14,737.82Z"/><path class="cls-14" d="M1031.56,584.24H980a7.7,7.7,0,0,1-7.68-7.67h0A7.7,7.7,0,0,1,980,568.9h51.52a7.69,7.69,0,0,1,7.67,7.67h0A7.69,7.69,0,0,1,1031.56,584.24Z"/><path class="cls-14" d="M1172.92,584.24H1121.4a7.69,7.69,0,0,1-7.67-7.67h0a7.69,7.69,0,0,1,7.67-7.67h51.52a7.7,7.7,0,0,1,7.68,7.67h0A7.7,7.7,0,0,1,1172.92,584.24Z"/><path class="cls-14" d="M1314.29,584.24h-51.52a7.69,7.69,0,0,1-7.67-7.67h0a7.69,7.69,0,0,1,7.67-7.67h51.52a7.69,7.69,0,0,1,7.67,7.67h0A7.69,7.69,0,0,1,1314.29,584.24Z"/><path class="cls-14" d="M1455.66,584.24h-51.52a7.7,7.7,0,0,1-7.68-7.67h0a7.7,7.7,0,0,1,7.68-7.67h51.52a7.69,7.69,0,0,1,7.67,7.67h0A7.69,7.69,0,0,1,1455.66,584.24Z"/><path class="cls-14" d="M1597,584.24h-51.52a7.7,7.7,0,0,1-7.68-7.67h0a7.7,7.7,0,0,1,7.68-7.67H1597a7.69,7.69,0,0,1,7.67,7.67h0A7.69,7.69,0,0,1,1597,584.24Z"/><path class="cls-14" d="M1738.39,584.24h-51.52a7.69,7.69,0,0,1-7.67-7.67h0a7.69,7.69,0,0,1,7.67-7.67h51.52a7.7,7.7,0,0,1,7.68,7.67h0A7.7,7.7,0,0,1,1738.39,584.24Z"/><path class="cls-14" d="M1879.76,584.24h-51.52a7.69,7.69,0,0,1-7.67-7.67h0a7.69,7.69,0,0,1,7.67-7.67h51.52a7.69,7.69,0,0,1,7.67,7.67h0A7.69,7.69,0,0,1,1879.76,584.24Z"/><path class="cls-15" d="M1553.92,790.17c-11.38,0-19.66-3.61-24.18-10.62-8.66-13.44-2-32.27,19.87-56a276.84,276.84,0,0,1,34.76-31.18,1.65,1.65,0,1,1,1.94,2.66c-.72.53-72.52,53.69-53.8,82.73,5.93,9.2,18.62,9.81,28.23,8.7,17.79-2.06,41-11.64,62-25.62,21.8-14.48,37.15-30.8,42.13-44.77,3.26-9.17,2.25-15.66-3-19.3-6.79-4.7-21-4.7-38,0-16.25,4.49-32.61,12.59-42.7,21.12a1.64,1.64,0,1,1-2.12-2.51c10.42-8.82,27.26-17.17,43.95-21.78,18.16-5,33-4.85,40.7.48,4.56,3.15,9,9.72,4.22,23.1-5.2,14.63-21,31.54-43.4,46.41-21.47,14.26-45.2,24-63.48,26.15A63,63,0,0,1,1553.92,790.17Z"/><path class="cls-16" d="M1851.39,696.75l-5.84-11s2.9-19.66-21.74-32.1c0,0-9-3.66-14.09,3.68-4.68,6.76,8.93,5.54,8.2,17.11s4.76,18.36,12.41,22.13l6.31,7.32Z"/><path class="cls-17" d="M2084.22,670.38s-21.16,103.84-137.58,137.76c-36.35,10.59-118.91-109.06-118.91-109.06s2.9-11,21.08-8.49c0,0,80.4,53.22,90.52,59,9,5.13,68-66,95-77.41S2084.22,670.38,2084.22,670.38Z"/><rect class="cls-15" x="1796.67" y="604.94" width="25.62" height="128.88" transform="translate(1480.84 2570.5) rotate(-100.49)"/><polygon class="cls-16" points="1716.66 686.57 1748.45 693.71 1743.79 668.51 1716.66 686.57"/><path class="cls-16" d="M1886.79,650.68l1.48,8a9,9,0,0,1-7.23,10.52l-5.86,1.08-4.67-25.19,6.38-1.18A8.49,8.49,0,0,1,1886.79,650.68Z"/><path class="cls-18" d="M2223.21,1323.15s14.45,13.18,11.63,22.54-15.85,15.61-17.61,27.06-8.81,17.69-15.15,17.69h-30.23s-4.67-8,6.6-10.48,15.53-15.88,14.82-28.37,1.06-29.14,1.06-29.14l24-5.55Z"/><path class="cls-18" d="M2046,1357.24s2.59,30-3.75,33.12l-81.15-.17s0-9.36,13-11.44,35.93-9.72,39.8-26.71S2046,1357.24,2046,1357.24Z"/><path class="cls-19" d="M1977.51,933.5s4.28,52.58,9.31,115.79c6.84,85.86,15.06,191.33,15.87,211.31,1.41,34.69,7,90.19,7,90.19s13.38,13.18,40.16,7.62c0,0,23.86-79.22,30.68-163,.11-1.37.21-2.76.32-4.14,6.34-85.33,16.2-265,16.2-265Z"/><path class="cls-20" d="M1977.51,933.5s4.28,52.58,9.31,115.79l93.76,146.08c.11-1.37.21-2.76.32-4.14,6.34-85.33,16.2-265,16.2-265Z"/><path class="cls-19" d="M1997.05,939.74s77.15,190.44,127.88,279.93,66.58,114.47,66.58,114.47,29.06-11.45,31.7-19.25c0,0-19.39-172.77-53.36-214.89-19.2-23.8-41.75-95.22-42.81-120.19s-6.87-74.41-6.87-74.41Z"/><path class="cls-16" d="M2098.56,646.28s-52.2,25.18-82.29,15.84a70.8,70.8,0,0,1,20.37-16.3c-1-6-1.85-11.28-2.32-15.73a145.51,145.51,0,0,1-1.27-16.07l20.14-15.84,19.1-15.16C2070.78,625.65,2098.56,646.28,2098.56,646.28Z"/><path class="cls-4" d="M1974.21,937.84a4.71,4.71,0,0,0,3.14,1.25c11.33-.23,44.32,6,72.21,3.19,23.61-2.28,44.44-9.12,66.78-18.91,3-1.37,9.85-5,9.73-8.2-.12-3.65-.46-8.78-.93-15.4-.93-13-2.25-31.51-2.67-53.42-.31-16.25-.13-34.39,1.05-53.59.07-1.29.13-2.59.19-3.9.34-7,.5-14.13.5-21.06a365,365,0,0,0-4.74-62.68c-5.68-33-16.33-58.91-32.06-70.43-2.09-1.6-15,4.67-27.08,10.48-11,5.36-22,5.93-32.41,3.88l-10.41,9.12c-12.63,11.5-26.52,27.34-32.65,51.28-5.09,20.29-8.1,57-9.73,95-.79,17.32-1.38,34.64-1.61,51.16v.57c-.12,1.71-.12,3.43-.12,5.14C1972.83,903.65,1973.4,937.27,1974.21,937.84Z"/><path class="cls-21" d="M2072.63,599.32s-13.19,24-38.31,30.77a145.51,145.51,0,0,1-1.27-16.07l20.14-15.84Z"/><path class="cls-16" d="M2023.87,613.33s49.79,8.14,54.47-22.47,14.25-50.18-17.35-56.67-39.57,4.27-43.65,14.11S2011,610.42,2023.87,613.33Z"/><path class="cls-22" d="M2096.44,530.52c.45-.52,1.49-.93,3.81-1.06a9.37,9.37,0,0,0-4.33-1.22c-.49-3.23-2.21-8.94-7.76-10.33a7,7,0,0,1,3.38,5c-6.44-6.6-20.22-11.41-58.38-8.4-50.3,4-33.72,36.17-27.21,40s22.9-6.68,35-5.72,14.44,18.49,18.56,20.9,2.5-1.85,8.06-4.37,6.1,6.71,4.49,12.71,6,13.92,6,13.92l7.73-8.33c7.73-8.33,15-43.6,11.5-51.12Q2096.9,531.54,2096.44,530.52Z"/><path class="cls-16" d="M1845.44,685.2s1.71-6.77-3-9.81-9-11.32-11-10.2c-4.09,2.32,2.25,9.54,1.09,18.55C1832.14,686.89,1839.48,695.15,1845.44,685.2Z"/><path class="cls-23" d="M2122.47,846.35c-.31-16.25-.13-34.39,1.05-53.59.07-1.29.13-2.59.19-3.9-4.74-23.45-11.9-44.25-22.44-44.93C2101.27,743.93,2069.87,793.27,2122.47,846.35Z"/><path class="cls-16" d="M2164,931.44s-2.62,25.44-5.49,30.25-15.1,20.2-20.31,23.21,3.18-20.26,2.12-24.79-4.29,8.27-6.58,8.57-1.71-11.22-1.79-15.41,11.17-14.54,15.14-23.47S2164,931.44,2164,931.44Z"/><path class="cls-4" d="M2087.39,634.44s31.5,14.92,46.61,37.85c23.43,35.58,50.59,165.24,51.1,177.25s-19.83,96.78-19.83,96.78-20.61-1.36-25.93-11.76c0,0,4.12-87.1,1.51-92.7S2054.9,725,2064.27,701.29,2087.39,634.44,2087.39,634.44Z"/><polygon class="cls-15" points="1732.95 675.73 1734.61 690.6 1716.66 686.57 1732.95 675.73"/><path class="cls-3" d="M2414.72,1390h-90.79c-4.87-4.13,3.36-13.5,12-14.13,3.74-.28,8.47.5,13.86,1.64,1.25-16.59,8.39-91.2,35.28-88.2,30.24,3.35,0,32.85-8.55,50.32-6.33,12.93-13,31.48-16.06,40.24,2.45.53,5,1.05,7.59,1.53,4-12.31,18.92-53.7,37.88-51.29,22.27,2.83,13.32,19.42-2.46,29.27-11.58,7.25-25.8,17.54-32.55,22.52a96.94,96.94,0,0,0,17.76,1.42C2404.19,1382.91,2411.78,1387.5,2414.72,1390Z"/><path class="cls-3" d="M342,1385.65c-4.82-7.56-19.3-27.18-38.59-24.58-21,2.83,23.21,16.68,36.75,24.63a22.18,22.18,0,0,1-7.49-.87c-9.05-3.23-24.55,3-29.51,5.13h86.18a13.68,13.68,0,0,0-6.16-7.88c-1.42-.86-4.26-1-7.93-.71,5.12-6,8.68-25.33-5.59-20.37-10.42,3.63-10.39,15.42-9.37,22.4-2.21.34-4.46.69-6.68,1-4.29-21.86-19.47-86-50.23-87.66C272.23,1295,329.86,1363.22,349,1385,346.58,1385.32,344.22,1385.54,342,1385.65Z"/><rect class="cls-24" y="1389.05" width="2703.61" height="7.17" rx="3.06"/></g></g></svg>