<?xml version="1.0" standalone="no"?>
<!DOCTYPE svg PUBLIC "-//W3C//DTD SVG 20010904//EN"
 "http://www.w3.org/TR/2001/REC-SVG-20010904/DTD/svg10.dtd">
<svg version="1.0" xmlns="http://www.w3.org/2000/svg"
 width="843.000000pt" height="843.000000pt" viewBox="0 0 843.000000 843.000000"
 preserveAspectRatio="xMidYMid meet">
<metadata>
Created by potrace 1.14, written by Peter Selinger 2001-2017
</metadata>
<g transform="translate(0.000000,843.000000) scale(0.100000,-0.100000)"
fill="#000000" stroke="none">
<path d="M4095 6029 c-353 -24 -716 -178 -967 -409 l-78 -72 -72 67 c-200 183
-479 323 -771 387 -138 30 -482 33 -622 5 -665 -134 -1166 -630 -1305 -1292
-27 -130 -37 -368 -21 -501 33 -271 123 -515 271 -734 396 -588 1130 -853
1815 -655 232 67 468 200 647 364 l58 53 72 -67 c156 -143 375 -268 593 -338
190 -61 264 -72 500 -72 236 0 310 11 500 72 218 70 437 195 592 338 l73 66
82 -71 c502 -436 1195 -532 1788 -249 546 260 902 801 927 1409 34 812 -538
1526 -1342 1676 -153 29 -462 27 -607 -4 -302 -64 -573 -202 -790 -401 l-58
-53 -77 72 c-312 286 -764 440 -1208 409z m-1715 -814 l0 -415 58 39 c102 69
199 89 337 70 178 -24 302 -143 362 -346 15 -51 18 -121 21 -590 l3 -533 -128
0 c-70 0 -145 -3 -165 -6 l-37 -7 -3 524 -3 524 -23 47 c-31 62 -71 90 -137
96 -112 9 -208 -78 -261 -238 -16 -49 -18 -104 -22 -502 l-3 -448 -170 0 -169
0 0 1100 0 1100 170 0 170 0 0 -415z m4236 -171 c-10 -143 -47 -246 -120 -331
-51 -58 -122 -90 -233 -104 -106 -13 -142 -32 -167 -84 -31 -64 -36 -149 -36
-642 l0 -483 -169 0 -169 0 5 738 c3 405 8 739 10 742 6 6 293 14 293 7 0 -2
-7 -21 -15 -40 -16 -38 -19 -128 -6 -161 6 -15 11 -5 20 41 22 114 86 168 245
207 37 9 94 30 126 46 68 34 158 114 185 164 19 35 20 35 28 14 5 -13 6 -64 3
-114z m1084 74 c120 -61 121 -242 1 -305 -24 -13 -60 -23 -80 -23 -45 0 -118
36 -144 71 -41 56 -41 152 0 208 25 35 99 71 143 71 20 0 56 -10 80 -22z
m-5997 -223 c82 -28 164 -81 212 -138 l34 -39 -76 -102 c-42 -55 -78 -103 -79
-105 -2 -2 -32 15 -67 37 -86 55 -131 72 -184 72 -112 0 -209 -108 -249 -277
-25 -106 -23 -320 4 -403 28 -86 69 -140 134 -176 48 -26 62 -29 148 -29 91 0
98 2 166 38 39 21 96 60 126 87 31 27 58 46 62 43 9 -10 7 -133 -4 -181 -41
-174 -176 -285 -365 -298 -107 -8 -184 6 -270 47 -165 79 -292 243 -346 447
-26 95 -36 315 -20 419 16 103 54 217 98 293 78 134 226 249 369 285 83 21
215 12 307 -20z m2247 15 c102 -16 215 -77 288 -155 68 -72 131 -189 159 -295
21 -77 24 -318 5 -362 l-12 -28 -400 0 -400 0 0 -38 c0 -132 96 -256 230 -296
104 -31 250 -10 389 54 35 17 65 30 67 30 11 0 2 -106 -14 -158 -53 -167 -184
-252 -393 -252 -298 0 -517 174 -599 476 -28 101 -38 339 -21 450 28 173 93
306 202 416 137 139 296 189 499 158z m1276 -11 c244 -51 426 -317 427 -624 1
-55 -5 -124 -12 -152 l-13 -53 -400 0 -401 0 5 -63 c9 -104 73 -200 170 -252
105 -56 276 -44 444 30 32 14 61 22 66 17 12 -12 -9 -137 -31 -188 -41 -91
-125 -158 -239 -189 -74 -21 -246 -16 -325 9 -257 82 -407 291 -439 615 -37
374 97 684 354 810 65 33 102 45 159 51 77 8 165 4 235 -11z m1877 6 c94 -20
196 -77 278 -154 l70 -66 -91 -107 c-50 -60 -94 -108 -98 -108 -4 0 -41 28
-82 61 -90 74 -140 98 -200 99 -84 0 -140 -56 -140 -142 0 -80 42 -111 207
-153 138 -35 235 -85 309 -159 85 -85 107 -145 108 -291 1 -153 -34 -253 -121
-346 -95 -101 -186 -134 -373 -134 -156 0 -218 15 -303 74 -54 38 -108 115
-128 181 -14 50 -23 171 -15 215 l7 37 37 -40 c119 -128 362 -205 462 -146 50
29 80 78 80 130 0 79 -63 127 -235 179 -193 59 -291 128 -350 248 -59 121 -59
269 2 394 91 186 329 281 576 228z"/>
<path d="M7563 5090 c-137 -62 -93 -263 57 -263 39 0 94 23 72 31 -7 2 -26 24
-43 48 -22 32 -37 44 -54 44 -23 0 -25 -4 -25 -45 0 -33 -4 -45 -15 -45 -12 0
-15 18 -15 105 l0 105 63 0 c37 0 71 -6 82 -14 24 -17 25 -74 1 -92 -16 -11
-16 -14 6 -48 13 -20 26 -36 30 -36 13 0 38 58 38 86 0 36 -36 97 -68 116 -46
27 -84 29 -129 8z"/>
<path d="M7570 5010 c0 -28 2 -30 39 -30 21 0 44 6 50 14 17 21 -13 46 -55 46
-31 0 -34 -2 -34 -30z"/>
<path d="M3781 4615 c-78 -24 -153 -124 -176 -232 l-7 -33 237 0 236 0 -7 38
c-21 117 -89 209 -170 231 -48 13 -58 13 -113 -4z"/>
<path d="M5018 4620 c-43 -13 -87 -48 -115 -93 -25 -40 -63 -138 -63 -164 0
-10 45 -13 236 -13 l236 0 -7 33 c-36 182 -152 278 -287 237z"/>
<path d="M3350 2400 l0 -210 25 0 25 0 0 210 0 210 -25 0 -25 0 0 -210z"/>
<path d="M4420 2575 c0 -21 5 -25 30 -25 25 0 30 4 30 25 0 21 -5 25 -30 25
-25 0 -30 -4 -30 -25z"/>
<path d="M2350 2535 c0 -38 -3 -45 -20 -45 -13 0 -20 -7 -20 -20 0 -13 7 -20
20 -20 19 0 20 -7 20 -110 0 -98 2 -112 21 -131 16 -16 30 -19 67 -17 40 3 47
6 50 25 3 20 0 22 -27 17 -53 -11 -61 6 -61 117 l0 99 45 0 c38 0 45 3 45 20
0 17 -7 20 -45 20 l-45 0 0 45 c0 41 -2 45 -25 45 -23 0 -25 -4 -25 -45z"/>
<path d="M6120 2535 c0 -38 -3 -45 -20 -45 -13 0 -20 -7 -20 -20 0 -13 7 -20
19 -20 18 0 20 -10 23 -109 4 -133 14 -151 90 -151 44 0 48 2 48 25 0 22 -3
24 -28 19 -50 -10 -62 14 -62 122 l0 94 50 0 c43 0 50 3 50 20 0 17 -7 20 -50
20 l-50 0 0 45 c0 41 -2 45 -25 45 -23 0 -25 -4 -25 -45z"/>
<path d="M1805 2484 c-16 -8 -33 -21 -37 -27 -5 -8 -8 -4 -8 11 0 17 -6 22
-25 22 l-25 0 0 -150 0 -150 25 0 c25 0 25 0 25 95 0 132 18 165 91 165 57 0
69 -27 69 -150 l0 -110 25 0 25 0 0 118 c0 132 -8 154 -66 178 -43 18 -62 18
-99 -2z"/>
<path d="M2980 2489 c-14 -6 -35 -20 -47 -31 l-23 -21 0 26 c0 22 -5 27 -25
27 l-25 0 0 -150 0 -150 24 0 c23 0 24 2 28 94 3 84 6 97 27 120 14 15 39 30
55 34 24 6 31 14 31 32 0 28 -11 32 -45 19z"/>
<path d="M3663 2489 c-53 -15 -78 -72 -54 -118 10 -17 56 -41 115 -58 64 -20
59 -75 -7 -81 -20 -2 -49 4 -66 12 -38 20 -47 20 -55 0 -4 -10 1 -22 11 -30
25 -18 102 -34 135 -27 38 7 78 50 78 83 0 40 -27 67 -94 93 -68 26 -87 47
-66 72 11 14 24 16 60 11 78 -12 84 -11 88 5 6 29 -90 54 -145 38z"/>
<path d="M3980 2489 c-13 -6 -33 -17 -42 -26 -17 -15 -18 -15 -18 5 0 17 -6
22 -25 22 l-25 0 0 -195 0 -195 25 0 c24 0 25 2 25 66 l0 65 25 -19 c64 -51
166 -28 204 47 44 85 18 179 -59 219 -48 24 -71 26 -110 11z m84 -50 c26 -12
56 -63 56 -97 0 -61 -46 -112 -102 -112 -40 0 -86 36 -97 75 -26 97 55 174
143 134z"/>
<path d="M4340 2489 c-14 -6 -35 -20 -47 -31 l-23 -21 0 26 c0 22 -5 27 -25
27 l-25 0 0 -150 0 -150 24 0 c23 0 24 2 28 94 3 84 6 97 27 120 14 15 39 30
55 34 24 6 31 14 31 32 0 28 -11 32 -45 19z"/>
<path d="M4650 2493 c-8 -3 -25 -15 -37 -26 l-23 -20 0 21 c0 17 -6 22 -25 22
l-25 0 0 -150 0 -150 25 0 c25 0 25 0 25 95 0 104 10 137 47 154 86 39 123
-11 123 -166 0 -76 2 -83 20 -83 19 0 20 7 20 120 0 116 -1 121 -27 150 -28
31 -88 47 -123 33z"/>
<path d="M4935 2486 c-17 -7 -43 -28 -58 -45 -22 -27 -27 -42 -27 -86 0 -46 5
-60 30 -89 53 -60 136 -71 194 -25 l26 20 0 -30 c0 -75 -87 -111 -173 -73 -46
20 -47 20 -57 2 -16 -30 29 -54 110 -58 79 -5 121 12 150 61 17 28 20 51 20
180 l0 147 -25 0 c-18 0 -25 -5 -25 -20 0 -21 0 -21 -28 0 -37 27 -98 34 -137
16z m136 -65 c62 -62 19 -161 -71 -161 -33 0 -48 6 -71 29 -62 62 -19 161 71
161 33 0 48 -6 71 -29z"/>
<path d="M6380 2489 c-99 -41 -129 -174 -58 -255 53 -60 148 -68 209 -17 27
23 28 26 12 38 -15 11 -21 10 -42 -6 -47 -37 -129 -19 -155 35 l-15 31 121 3
120 3 -6 40 c-13 83 -51 124 -123 134 -21 2 -49 0 -63 -6z m97 -54 c11 -8 26
-28 31 -45 l11 -30 -94 0 -94 0 11 30 c13 38 43 60 83 60 17 0 40 -7 52 -15z"/>
<path d="M6733 2489 c-17 -5 -41 -21 -52 -35 l-21 -27 0 32 c0 26 -4 31 -25
31 l-25 0 0 -150 0 -150 25 0 c24 0 25 2 25 75 0 112 35 175 97 175 19 0 23 5
23 30 0 33 0 33 -47 19z"/>
<path d="M2055 2476 c-26 -19 -13 -50 17 -39 13 4 44 8 70 8 49 0 71 -13 82
-50 6 -19 2 -21 -75 -20 -79 0 -81 -1 -110 -33 -38 -43 -39 -84 -1 -122 48
-48 95 -48 185 -2 4 2 7 -3 7 -12 0 -10 9 -16 25 -16 l25 0 0 100 c0 162 -27
200 -140 200 -40 0 -74 -5 -85 -14z m172 -150 c12 -11 -11 -68 -33 -82 -34
-23 -92 -20 -117 4 -26 27 -17 67 20 81 26 10 120 8 130 -3z"/>
<path d="M2530 2380 c0 -128 12 -164 65 -186 45 -19 63 -18 108 5 29 15 37 16
37 5 0 -8 10 -14 25 -14 l25 0 0 150 0 150 -25 0 -25 0 0 -105 c0 -99 -2 -107
-25 -130 -32 -33 -78 -33 -110 0 -23 23 -25 31 -25 130 l0 105 -25 0 -25 0 0
-110z"/>
<path d="M3073 2480 c-24 -10 -27 -18 -15 -37 6 -10 17 -10 42 -3 56 16 89 12
115 -15 42 -41 33 -54 -29 -48 -99 10 -161 -27 -161 -99 0 -77 84 -117 169
-79 37 16 46 17 46 5 0 -8 10 -14 26 -14 l26 0 -4 121 -3 121 -33 29 c-29 26
-39 29 -95 28 -34 0 -72 -4 -84 -9z m136 -146 c23 -5 31 -12 31 -28 0 -72
-117 -110 -156 -50 -12 18 -13 27 -4 44 19 35 64 47 129 34z"/>
<path d="M4420 2340 l0 -150 25 0 25 0 0 150 0 150 -25 0 -25 0 0 -150z"/>
<path d="M5382 2340 c49 -143 53 -151 77 -148 22 3 29 15 61 113 l37 110 37
-112 c34 -101 40 -113 61 -113 17 0 26 8 35 33 34 97 90 260 90 264 0 2 -12 3
-27 1 -25 -3 -30 -11 -59 -106 -18 -57 -35 -106 -37 -109 -3 -2 -22 46 -42
106 -32 97 -39 111 -59 111 -19 0 -26 -13 -56 -105 -19 -58 -37 -105 -40 -105
-3 0 -21 47 -40 105 -32 100 -35 105 -62 105 l-27 0 51 -150z"/>
<path d="M5833 2480 c-30 -12 -20 -55 11 -45 61 18 101 17 129 -5 15 -12 27
-30 27 -40 0 -16 -6 -18 -54 -13 -63 6 -120 -10 -141 -40 -19 -28 -19 -87 0
-114 30 -43 117 -51 173 -17 19 13 22 13 22 -1 0 -9 9 -15 25 -15 l25 0 0 111
c0 159 -21 189 -130 188 -36 0 -75 -4 -87 -9z m136 -146 c26 -5 31 -11 31 -34
0 -52 -72 -88 -129 -64 -28 12 -32 18 -29 46 5 49 50 67 127 52z"/>
</g>
</svg>
